%TF.GenerationSoftware,KiCad,Pcbnew,9.0.4*%
%TF.CreationDate,2025-12-16T21:44:14-08:00*%
%TF.ProjectId,Droplet,44726f70-6c65-4742-9e6b-696361645f70,rev?*%
%TF.SameCoordinates,Original*%
%TF.FileFunction,Paste,Top*%
%TF.FilePolarity,Positive*%
%FSLAX46Y46*%
G04 Gerber Fmt 4.6, Leading zero omitted, Abs format (unit mm)*
G04 Created by KiCad (PCBNEW 9.0.4) date 2025-12-16 21:44:14*
%MOMM*%
%LPD*%
G01*
G04 APERTURE LIST*
G04 Aperture macros list*
%AMRoundRect*
0 Rectangle with rounded corners*
0 $1 Rounding radius*
0 $2 $3 $4 $5 $6 $7 $8 $9 X,Y pos of 4 corners*
0 Add a 4 corners polygon primitive as box body*
4,1,4,$2,$3,$4,$5,$6,$7,$8,$9,$2,$3,0*
0 Add four circle primitives for the rounded corners*
1,1,$1+$1,$2,$3*
1,1,$1+$1,$4,$5*
1,1,$1+$1,$6,$7*
1,1,$1+$1,$8,$9*
0 Add four rect primitives between the rounded corners*
20,1,$1+$1,$2,$3,$4,$5,0*
20,1,$1+$1,$4,$5,$6,$7,0*
20,1,$1+$1,$6,$7,$8,$9,0*
20,1,$1+$1,$8,$9,$2,$3,0*%
G04 Aperture macros list end*
%ADD10RoundRect,0.135000X-0.135000X-0.185000X0.135000X-0.185000X0.135000X0.185000X-0.135000X0.185000X0*%
%ADD11RoundRect,0.150000X-0.150000X0.825000X-0.150000X-0.825000X0.150000X-0.825000X0.150000X0.825000X0*%
%ADD12R,1.100000X0.540000*%
%ADD13RoundRect,0.135000X-0.185000X0.135000X-0.185000X-0.135000X0.185000X-0.135000X0.185000X0.135000X0*%
%ADD14RoundRect,0.275000X-0.275000X0.475000X-0.275000X-0.475000X0.275000X-0.475000X0.275000X0.475000X0*%
%ADD15RoundRect,0.135000X0.135000X0.185000X-0.135000X0.185000X-0.135000X-0.185000X0.135000X-0.185000X0*%
%ADD16RoundRect,0.140000X-0.219203X-0.021213X-0.021213X-0.219203X0.219203X0.021213X0.021213X0.219203X0*%
%ADD17RoundRect,0.135000X0.185000X-0.135000X0.185000X0.135000X-0.185000X0.135000X-0.185000X-0.135000X0*%
%ADD18RoundRect,0.140000X0.140000X0.170000X-0.140000X0.170000X-0.140000X-0.170000X0.140000X-0.170000X0*%
G04 APERTURE END LIST*
D10*
%TO.C,R7*%
X105213817Y-33822241D03*
X106233817Y-33822241D03*
%TD*%
D11*
%TO.C,U1*%
X119579825Y-28767000D03*
X118309825Y-28767000D03*
X117039825Y-28767000D03*
X115769825Y-28767000D03*
X115769825Y-33717000D03*
X117039825Y-33717000D03*
X118309825Y-33717000D03*
X119579825Y-33717000D03*
%TD*%
D12*
%TO.C,D1*%
X119172824Y-36031498D03*
X114652824Y-36031498D03*
X119172824Y-37231498D03*
X114652824Y-37231498D03*
X119172824Y-38431498D03*
X114652824Y-38431498D03*
X119172824Y-39631498D03*
X114652824Y-39631498D03*
%TD*%
D13*
%TO.C,R2*%
X113500000Y-35890000D03*
X113500000Y-36910000D03*
%TD*%
D10*
%TO.C,R6*%
X105208284Y-35017318D03*
X106228284Y-35017318D03*
%TD*%
%TO.C,R8*%
X105219460Y-32613600D03*
X106239460Y-32613600D03*
%TD*%
D13*
%TO.C,R3*%
X113030000Y-37894800D03*
X113030000Y-38914800D03*
%TD*%
D14*
%TO.C,U2*%
X124405824Y-31252498D03*
X121865824Y-31252498D03*
X121865824Y-37552498D03*
X124405824Y-37552498D03*
%TD*%
D15*
%TO.C,R5*%
X106226799Y-36220400D03*
X105206799Y-36220400D03*
%TD*%
D16*
%TO.C,C1*%
X120996389Y-28895989D03*
X121675211Y-29574811D03*
%TD*%
D12*
%TO.C,D2*%
X99289200Y-36217000D03*
X103809200Y-36217000D03*
X99289200Y-35017000D03*
X103809200Y-35017000D03*
X99289200Y-33817000D03*
X103809200Y-33817000D03*
X99289200Y-32617000D03*
X103809200Y-32617000D03*
%TD*%
D17*
%TO.C,R1*%
X114400000Y-34910000D03*
X114400000Y-33890000D03*
%TD*%
D18*
%TO.C,C2*%
X123780000Y-39100000D03*
X122820000Y-39100000D03*
%TD*%
D15*
%TO.C,R4*%
X116791200Y-41046400D03*
X115771200Y-41046400D03*
%TD*%
M02*
