%TF.GenerationSoftware,KiCad,Pcbnew,9.0.4*%
%TF.CreationDate,2025-12-16T21:44:14-08:00*%
%TF.ProjectId,Droplet,44726f70-6c65-4742-9e6b-696361645f70,rev?*%
%TF.SameCoordinates,Original*%
%TF.FileFunction,Copper,L2,Bot*%
%TF.FilePolarity,Positive*%
%FSLAX46Y46*%
G04 Gerber Fmt 4.6, Leading zero omitted, Abs format (unit mm)*
G04 Created by KiCad (PCBNEW 9.0.4) date 2025-12-16 21:44:14*
%MOMM*%
%LPD*%
G01*
G04 APERTURE LIST*
%TA.AperFunction,Conductor*%
%ADD10C,0.200000*%
%TD*%
%TA.AperFunction,SMDPad,CuDef*%
%ADD11C,4.000000*%
%TD*%
%TA.AperFunction,ComponentPad*%
%ADD12R,0.850000X0.850000*%
%TD*%
%TA.AperFunction,ComponentPad*%
%ADD13C,0.850000*%
%TD*%
%TA.AperFunction,CastellatedPad*%
%ADD14C,1.879600*%
%TD*%
%TA.AperFunction,SMDPad,CuDef*%
%ADD15C,1.500000*%
%TD*%
%TA.AperFunction,ViaPad*%
%ADD16C,0.600000*%
%TD*%
%TA.AperFunction,Conductor*%
%ADD17C,0.558800*%
%TD*%
%TA.AperFunction,Conductor*%
%ADD18C,0.152400*%
%TD*%
G04 APERTURE END LIST*
%TO.N,GND*%
D10*
X115750000Y-30550000D02*
X120850000Y-30550000D01*
X120850000Y-38250000D01*
X115750000Y-38250000D01*
X115750000Y-30550000D01*
%TA.AperFunction,Conductor*%
G36*
X115750000Y-30550000D02*
G01*
X120850000Y-30550000D01*
X120850000Y-38250000D01*
X115750000Y-38250000D01*
X115750000Y-30550000D01*
G37*
%TD.AperFunction*%
%TD*%
D11*
%TO.P,TP2,1,1*%
%TO.N,GND*%
X118300000Y-34400000D03*
%TD*%
D12*
%TO.P,J2,1,Pin_1*%
%TO.N,VBATT*%
X111832825Y-36417001D03*
D13*
%TO.P,J2,2,Pin_2*%
%TO.N,/PA6*%
X111832825Y-35417001D03*
%TO.P,J2,3,Pin_3*%
%TO.N,/PA7*%
X111832825Y-34417001D03*
%TO.P,J2,4,Pin_4*%
%TO.N,/PA1*%
X111832825Y-33417001D03*
%TO.P,J2,5,Pin_5*%
%TO.N,/PA2*%
X111832825Y-32417001D03*
%TD*%
D14*
%TO.P,J8,1,Pin_1*%
%TO.N,/PA2*%
X99200000Y-26600000D03*
%TD*%
%TO.P,J10,1,Pin_1*%
%TO.N,/PA7*%
X104000000Y-26700000D03*
%TD*%
%TO.P,J12,1,Pin_1*%
%TO.N,VBATT*%
X97000000Y-27600000D03*
%TD*%
%TO.P,J11,1,Pin_1*%
%TO.N,/PA6*%
X101600000Y-26300000D03*
%TD*%
%TO.P,J4,1,Pin_1*%
%TO.N,/PA7*%
X115900000Y-26600000D03*
%TD*%
%TO.P,J5,1,Pin_1*%
%TO.N,/PA1*%
X113700000Y-27800000D03*
%TD*%
%TO.P,J6,1,Pin_1*%
%TO.N,/PA2*%
X120800000Y-26700000D03*
%TD*%
%TO.P,J7,1,Pin_1*%
%TO.N,VBATT*%
X123000000Y-27700000D03*
%TD*%
%TO.P,J9,1,Pin_1*%
%TO.N,/PA1*%
X106200000Y-27700000D03*
%TD*%
%TO.P,J3,1,Pin_1*%
%TO.N,/PA6*%
X118338600Y-26250000D03*
%TD*%
D12*
%TO.P,J1,1,Pin_1*%
%TO.N,VBATT*%
X108077000Y-36417000D03*
D13*
%TO.P,J1,2,Pin_2*%
%TO.N,/PA6*%
X108077000Y-35417000D03*
%TO.P,J1,3,Pin_3*%
%TO.N,/PA7*%
X108077000Y-34417000D03*
%TO.P,J1,4,Pin_4*%
%TO.N,/PA1*%
X108077000Y-33417000D03*
%TO.P,J1,5,Pin_5*%
%TO.N,/PA2*%
X108077000Y-32417000D03*
%TD*%
D11*
%TO.P,TP1,1,1*%
%TO.N,VBATT*%
X101549200Y-34417000D03*
%TD*%
D15*
%TO.P,TP4,1,1*%
%TO.N,GND*%
X124612400Y-34417000D03*
%TD*%
%TO.P,TP5,1,1*%
%TO.N,VBATT*%
X124612400Y-36982400D03*
%TD*%
%TO.P,TP3,1,1*%
%TO.N,/PA0*%
X124663200Y-31902400D03*
%TD*%
D16*
%TO.N,GND*%
X119300000Y-32000000D03*
X120600000Y-31252498D03*
X125200000Y-33300000D03*
%TO.N,VBATT*%
X117200000Y-38900000D03*
%TO.N,/PA2*%
X114900000Y-30300000D03*
%TO.N,/PA6*%
X114503200Y-33300000D03*
%TO.N,/PA7*%
X113477636Y-33877636D03*
X114600000Y-29200000D03*
%TO.N,/PA1*%
X111728840Y-31398789D03*
%TO.N,VBATT*%
X96977200Y-39776400D03*
X97790000Y-33401000D03*
X101854000Y-39370000D03*
X120400000Y-39600000D03*
X106984800Y-37998400D03*
X105968800Y-39776400D03*
X124293215Y-38654003D03*
X97790000Y-36195000D03*
X99263200Y-31191200D03*
X120532324Y-29639998D03*
X94996000Y-34290000D03*
X99263200Y-37744400D03*
X98500000Y-28900000D03*
%TO.N,GND*%
X122881825Y-31013400D03*
X122100000Y-39200000D03*
%TO.N,/PA6*%
X115000000Y-31500000D03*
%TO.N,/PA2*%
X106929400Y-29800000D03*
X103970600Y-29815764D03*
%TO.N,/PA0*%
X123901200Y-33020000D03*
%TD*%
D10*
%TO.N,GND*%
X119903768Y-34400000D02*
X119910384Y-34406616D01*
X118300000Y-34400000D02*
X119903768Y-34400000D01*
D17*
%TO.N,VBATT*%
X120532324Y-29639998D02*
X120560002Y-29639998D01*
X122361600Y-27838400D02*
X123164600Y-27838400D01*
%TO.N,GND*%
X124612400Y-33887600D02*
X125200000Y-33300000D01*
X124612400Y-34417000D02*
X124612400Y-33887600D01*
%TO.N,/PA2*%
X114900000Y-30300000D02*
X113949826Y-30300000D01*
X113949826Y-30300000D02*
X111832825Y-32417001D01*
X120751600Y-26873200D02*
X119924800Y-27700000D01*
X119924800Y-27700000D02*
X117500000Y-27700000D01*
X117500000Y-27700000D02*
X114900000Y-30300000D01*
%TO.N,/PA6*%
X114503200Y-33883600D02*
X114503200Y-33300000D01*
%TO.N,/PA7*%
X113477636Y-33877636D02*
X112938271Y-34417001D01*
X112938271Y-34417001D02*
X111832825Y-34417001D01*
X111832825Y-34417000D02*
X111832825Y-34272401D01*
X115900000Y-26600000D02*
X115900000Y-27900000D01*
X115900000Y-27900000D02*
X114600000Y-29200000D01*
%TO.N,/PA1*%
X111728840Y-31398789D02*
X112800000Y-30327629D01*
X112800000Y-30327629D02*
X112800000Y-29700000D01*
X113700000Y-28800000D02*
X113700000Y-27800000D01*
X112800000Y-29700000D02*
X113700000Y-28800000D01*
%TO.N,VBATT*%
X120400000Y-39600000D02*
X120730400Y-39930400D01*
X124293215Y-37301585D02*
X124612400Y-36982400D01*
X124293215Y-38654003D02*
X124293215Y-37301585D01*
D18*
X109188000Y-35306000D02*
X110721824Y-35306000D01*
X111832825Y-36417001D02*
X110721824Y-35306000D01*
X108077000Y-36417000D02*
X109188000Y-35306000D01*
D17*
X120730400Y-39930400D02*
X122402542Y-39930400D01*
%TO.N,GND*%
X122881825Y-38418175D02*
X122100000Y-39200000D01*
X122881825Y-31013400D02*
X122881824Y-31013401D01*
X122881825Y-36942499D02*
X122881825Y-38418175D01*
X122881824Y-31013401D02*
X122881825Y-36942499D01*
X124587000Y-34391600D02*
X124612400Y-34417000D01*
%TO.N,/PA1*%
X107475960Y-33417000D02*
X108077000Y-33417000D01*
X106200000Y-32141040D02*
X107475960Y-33417000D01*
X106200000Y-27700000D02*
X106200000Y-32141040D01*
%TO.N,/PA7*%
X104000000Y-26700000D02*
X104000000Y-27509800D01*
X108077000Y-34417000D02*
X107472152Y-34417000D01*
X104000000Y-27509800D02*
X105490200Y-29000000D01*
X107472152Y-34417000D02*
X105490200Y-32435048D01*
X105490200Y-32435048D02*
X105490200Y-29000000D01*
%TO.N,/PA6*%
X104700000Y-29400000D02*
X104700000Y-32648656D01*
X112969799Y-35417001D02*
X114503200Y-33883600D01*
X104700000Y-32648656D02*
X107468344Y-35417000D01*
X111832825Y-35417001D02*
X112969799Y-35417001D01*
X107468344Y-35417000D02*
X108077000Y-35417000D01*
X111856733Y-35440909D02*
X111832825Y-35417001D01*
X101600000Y-26300000D02*
X104700000Y-29400000D01*
%TO.N,/PA2*%
X106929400Y-29970600D02*
X106909800Y-29990200D01*
X103800000Y-29645164D02*
X103800000Y-29600000D01*
X102100000Y-27900000D02*
X100500000Y-27900000D01*
X106909800Y-31847032D02*
X107479768Y-32417000D01*
X100500000Y-27900000D02*
X99200000Y-26600000D01*
X103800000Y-29600000D02*
X102100000Y-27900000D01*
X106929400Y-29800000D02*
X106929400Y-29970600D01*
X103970600Y-29815764D02*
X103800000Y-29645164D01*
X107479768Y-32417000D02*
X108077000Y-32417000D01*
X106909800Y-29990200D02*
X106909800Y-31847032D01*
D10*
%TO.N,/PA0*%
X123901200Y-33020000D02*
X123901200Y-32664400D01*
X123901200Y-32664400D02*
X124663200Y-31902400D01*
D17*
%TO.N,/PA6*%
X114503200Y-33300000D02*
X114503200Y-31996800D01*
X114503200Y-31996800D02*
X115000000Y-31500000D01*
%TD*%
%TA.AperFunction,Conductor*%
%TO.N,VBATT*%
G36*
X98427911Y-27440539D02*
G01*
X98457144Y-27469772D01*
X98602353Y-27575272D01*
X98762277Y-27656757D01*
X98762279Y-27656757D01*
X98762280Y-27656758D01*
X98762283Y-27656760D01*
X98932973Y-27712221D01*
X98932977Y-27712222D01*
X99110253Y-27740300D01*
X99110256Y-27740300D01*
X99289747Y-27740300D01*
X99467016Y-27712223D01*
X99467017Y-27712222D01*
X99467021Y-27712222D01*
X99535004Y-27690131D01*
X99596188Y-27690131D01*
X99635601Y-27714282D01*
X100205335Y-28284016D01*
X100205337Y-28284017D01*
X100205338Y-28284018D01*
X100205339Y-28284019D01*
X100314761Y-28347194D01*
X100314759Y-28347194D01*
X100314763Y-28347195D01*
X100314765Y-28347196D01*
X100436820Y-28379900D01*
X100563181Y-28379900D01*
X101860210Y-28379900D01*
X101918401Y-28398807D01*
X101930214Y-28408896D01*
X103345074Y-29823756D01*
X103360804Y-29844256D01*
X103373296Y-29865892D01*
X103415985Y-29939832D01*
X103521086Y-30044931D01*
X103536819Y-30065434D01*
X103570100Y-30123078D01*
X103663286Y-30216264D01*
X103663288Y-30216265D01*
X103663290Y-30216267D01*
X103777410Y-30282154D01*
X103777408Y-30282154D01*
X103777412Y-30282155D01*
X103777414Y-30282156D01*
X103904708Y-30316264D01*
X103904710Y-30316264D01*
X104036491Y-30316264D01*
X104036492Y-30316264D01*
X104095477Y-30300459D01*
X104156578Y-30303660D01*
X104204128Y-30342165D01*
X104220100Y-30396085D01*
X104220100Y-32585475D01*
X104220100Y-32711837D01*
X104247939Y-32815733D01*
X104252805Y-32833893D01*
X104252805Y-32833894D01*
X104315631Y-32942711D01*
X104315984Y-32943322D01*
X107140277Y-35767614D01*
X107168053Y-35822129D01*
X107163031Y-35872211D01*
X107158402Y-35884622D01*
X107152000Y-35944175D01*
X107152000Y-36166999D01*
X107152001Y-36167000D01*
X107978000Y-36167000D01*
X108005612Y-36175971D01*
X107935386Y-36205060D01*
X107865060Y-36275386D01*
X107827000Y-36367272D01*
X107827000Y-36466728D01*
X107865060Y-36558614D01*
X107935386Y-36628940D01*
X108027272Y-36667000D01*
X108126728Y-36667000D01*
X108218614Y-36628940D01*
X108288940Y-36558614D01*
X108320313Y-36482871D01*
X108322155Y-36485407D01*
X108327000Y-36516000D01*
X108327000Y-37341999D01*
X108327001Y-37342000D01*
X108360182Y-37342000D01*
X108382232Y-37349164D01*
X108405128Y-37352791D01*
X108410775Y-37358438D01*
X108418373Y-37360907D01*
X108432001Y-37379665D01*
X108448392Y-37396056D01*
X108449641Y-37403943D01*
X108454337Y-37410407D01*
X108457963Y-37456488D01*
X108443621Y-37547034D01*
X108435563Y-37573388D01*
X108260351Y-37949100D01*
X108257231Y-37955226D01*
X108003479Y-38413363D01*
X107999942Y-38419257D01*
X107715002Y-38858690D01*
X107711064Y-38864324D01*
X107396323Y-39282916D01*
X107392003Y-39288264D01*
X107048974Y-39684002D01*
X107044294Y-39689037D01*
X106674619Y-40060026D01*
X106669600Y-40064724D01*
X106275091Y-40409149D01*
X106269759Y-40413488D01*
X105852276Y-40729721D01*
X105846655Y-40733679D01*
X105408246Y-41020170D01*
X105402365Y-41023728D01*
X104945130Y-41279106D01*
X104939015Y-41282248D01*
X104465165Y-41505277D01*
X104458848Y-41507987D01*
X103970651Y-41697600D01*
X103964160Y-41699865D01*
X103463989Y-41855140D01*
X103457357Y-41856949D01*
X102947608Y-41977142D01*
X102940866Y-41978486D01*
X102424015Y-42063012D01*
X102417197Y-42063885D01*
X101895726Y-42112340D01*
X101888863Y-42112738D01*
X101365288Y-42124889D01*
X101358414Y-42124810D01*
X100835252Y-42100596D01*
X100828400Y-42100040D01*
X100308182Y-42039580D01*
X100301385Y-42038550D01*
X99786610Y-41942134D01*
X99779901Y-41940634D01*
X99273071Y-41808729D01*
X99266483Y-41806768D01*
X99018251Y-41723388D01*
X98770011Y-41640005D01*
X98763591Y-41637597D01*
X98444872Y-41505277D01*
X98279896Y-41436785D01*
X98273643Y-41433931D01*
X97805049Y-41200036D01*
X97799008Y-41196754D01*
X97347778Y-40930906D01*
X97341980Y-40927213D01*
X96910284Y-40630691D01*
X96904756Y-40626604D01*
X96494688Y-40300846D01*
X96489457Y-40296386D01*
X96102972Y-39942946D01*
X96098064Y-39938134D01*
X95737050Y-39558738D01*
X95732487Y-39553596D01*
X95398660Y-39150047D01*
X95394473Y-39144613D01*
X95089451Y-38718866D01*
X95085645Y-38713143D01*
X94810917Y-38267274D01*
X94807516Y-38261300D01*
X94564385Y-37797430D01*
X94561407Y-37791234D01*
X94508900Y-37671513D01*
X94351046Y-37311592D01*
X94348518Y-37305235D01*
X94171953Y-36812165D01*
X94169864Y-36805624D01*
X94130839Y-36667000D01*
X94074460Y-36466728D01*
X94045004Y-36362094D01*
X94043722Y-36352811D01*
X99966942Y-36352811D01*
X100100241Y-36459114D01*
X100337998Y-36608507D01*
X100590982Y-36730337D01*
X100590985Y-36730338D01*
X100856017Y-36823077D01*
X101129776Y-36885561D01*
X101408801Y-36916999D01*
X101408804Y-36917000D01*
X101689596Y-36917000D01*
X101689598Y-36916999D01*
X101930787Y-36889824D01*
X107151999Y-36889824D01*
X107158401Y-36949370D01*
X107158403Y-36949381D01*
X107208646Y-37084088D01*
X107208647Y-37084090D01*
X107294807Y-37199184D01*
X107294815Y-37199192D01*
X107409909Y-37285352D01*
X107409911Y-37285353D01*
X107544618Y-37335596D01*
X107544629Y-37335598D01*
X107604176Y-37342000D01*
X107826999Y-37342000D01*
X107827000Y-37341999D01*
X107827000Y-36667001D01*
X107826999Y-36667000D01*
X107152001Y-36667000D01*
X107152000Y-36667001D01*
X107152000Y-36889824D01*
X107151999Y-36889824D01*
X101930787Y-36889824D01*
X101968623Y-36885561D01*
X102242382Y-36823077D01*
X102507414Y-36730338D01*
X102507417Y-36730337D01*
X102760401Y-36608507D01*
X102865981Y-36542167D01*
X102998158Y-36459114D01*
X103131456Y-36352811D01*
X101549199Y-34770554D01*
X99966942Y-36352811D01*
X94043722Y-36352811D01*
X94041300Y-36335267D01*
X94041300Y-36309678D01*
X94010755Y-36097239D01*
X94010755Y-36097236D01*
X93965813Y-35944175D01*
X93950287Y-35891297D01*
X93861131Y-35696069D01*
X93861127Y-35696060D01*
X93766527Y-35548856D01*
X93750975Y-35489684D01*
X93756248Y-35466644D01*
X93755537Y-35466454D01*
X93757216Y-35460187D01*
X93757217Y-35460186D01*
X93791325Y-35332892D01*
X93791325Y-35201108D01*
X93757217Y-35073814D01*
X93757215Y-35073811D01*
X93757215Y-35073809D01*
X93691328Y-34959690D01*
X93691326Y-34959688D01*
X93691325Y-34959686D01*
X93643640Y-34912001D01*
X93615865Y-34857487D01*
X93625436Y-34797055D01*
X93643639Y-34771999D01*
X93691325Y-34724314D01*
X93691328Y-34724309D01*
X93757215Y-34610190D01*
X93757215Y-34610188D01*
X93757217Y-34610186D01*
X93791325Y-34482892D01*
X93791325Y-34351108D01*
X93771361Y-34276601D01*
X99049200Y-34276601D01*
X99049200Y-34557398D01*
X99080638Y-34836423D01*
X99143122Y-35110182D01*
X99235861Y-35375214D01*
X99235862Y-35375217D01*
X99357692Y-35628201D01*
X99507085Y-35865958D01*
X99613387Y-35999256D01*
X101195644Y-34416999D01*
X101902754Y-34416999D01*
X103485011Y-35999256D01*
X103591314Y-35865958D01*
X103740707Y-35628201D01*
X103862537Y-35375217D01*
X103862538Y-35375214D01*
X103955277Y-35110182D01*
X104017761Y-34836423D01*
X104049199Y-34557398D01*
X104049200Y-34557396D01*
X104049200Y-34276603D01*
X104049199Y-34276601D01*
X104017761Y-33997576D01*
X103955277Y-33723817D01*
X103862538Y-33458785D01*
X103862537Y-33458782D01*
X103740707Y-33205798D01*
X103591314Y-32968041D01*
X103485011Y-32834742D01*
X101902754Y-34416999D01*
X101195644Y-34416999D01*
X99613387Y-32834742D01*
X99507089Y-32968035D01*
X99507087Y-32968038D01*
X99357692Y-33205798D01*
X99235862Y-33458782D01*
X99235861Y-33458785D01*
X99143122Y-33723817D01*
X99080638Y-33997576D01*
X99049200Y-34276601D01*
X93771361Y-34276601D01*
X93757217Y-34223814D01*
X93713878Y-34148748D01*
X93691328Y-34109690D01*
X93691326Y-34109688D01*
X93691325Y-34109686D01*
X93643640Y-34062001D01*
X93615865Y-34007487D01*
X93625436Y-33947055D01*
X93643639Y-33921999D01*
X93691325Y-33874314D01*
X93725147Y-33815733D01*
X93757215Y-33760190D01*
X93757215Y-33760188D01*
X93757217Y-33760186D01*
X93791325Y-33632892D01*
X93791325Y-33501108D01*
X93757217Y-33373814D01*
X93757216Y-33373812D01*
X93755537Y-33367546D01*
X93757608Y-33366990D01*
X93753559Y-33315587D01*
X93766538Y-33285172D01*
X93861149Y-33137952D01*
X93950311Y-32942711D01*
X94010780Y-32736769D01*
X94030523Y-32599452D01*
X94041325Y-32524323D01*
X94041325Y-32500736D01*
X94044093Y-32481187D01*
X99966942Y-32481187D01*
X101549199Y-34063444D01*
X103131456Y-32481187D01*
X102998158Y-32374885D01*
X102760401Y-32225492D01*
X102507417Y-32103662D01*
X102507414Y-32103661D01*
X102242382Y-32010922D01*
X101968623Y-31948438D01*
X101689598Y-31917000D01*
X101408801Y-31917000D01*
X101129776Y-31948438D01*
X100856017Y-32010922D01*
X100590985Y-32103661D01*
X100590982Y-32103662D01*
X100337998Y-32225492D01*
X100100238Y-32374887D01*
X100100235Y-32374889D01*
X99966942Y-32481187D01*
X94044093Y-32481187D01*
X94045216Y-32473254D01*
X94091950Y-32311517D01*
X94176402Y-32019244D01*
X94178593Y-32012563D01*
X94364021Y-31508306D01*
X94366668Y-31501829D01*
X94587448Y-31012009D01*
X94590545Y-31005742D01*
X94845564Y-30532835D01*
X94849118Y-30526773D01*
X94929670Y-30399890D01*
X95137070Y-30073197D01*
X95141045Y-30067403D01*
X95142501Y-30065434D01*
X95460489Y-29635422D01*
X95464843Y-29629951D01*
X95814170Y-29221745D01*
X95818911Y-29216587D01*
X96163722Y-28867279D01*
X96218057Y-28839150D01*
X96278550Y-28848330D01*
X96279122Y-28848619D01*
X96447308Y-28934314D01*
X96662849Y-29004348D01*
X96749999Y-29018150D01*
X96750000Y-29018149D01*
X96750000Y-28413542D01*
X96768907Y-28355351D01*
X96789110Y-28334712D01*
X97038358Y-28145351D01*
X97044048Y-28141339D01*
X97096863Y-28106841D01*
X97155921Y-28090850D01*
X97213100Y-28112627D01*
X97246559Y-28163853D01*
X97250000Y-28189728D01*
X97250000Y-29018150D01*
X97337150Y-29004348D01*
X97552691Y-28934314D01*
X97754617Y-28831428D01*
X97937965Y-28698218D01*
X98098218Y-28537965D01*
X98231428Y-28354617D01*
X98334314Y-28152691D01*
X98404348Y-27937149D01*
X98418151Y-27850000D01*
X97870631Y-27850000D01*
X97864760Y-27848092D01*
X97858701Y-27849279D01*
X97836119Y-27838786D01*
X97812440Y-27831093D01*
X97808810Y-27826098D01*
X97803213Y-27823497D01*
X97791113Y-27801739D01*
X97776476Y-27781593D01*
X97776476Y-27775418D01*
X97773476Y-27770024D01*
X97776476Y-27745309D01*
X97776476Y-27720407D01*
X97780105Y-27715411D01*
X97780849Y-27709284D01*
X97797802Y-27691053D01*
X97812440Y-27670907D01*
X97822516Y-27664479D01*
X97969439Y-27582774D01*
X97975683Y-27579586D01*
X98316063Y-27420824D01*
X98376791Y-27413362D01*
X98427911Y-27440539D01*
G37*
%TD.AperFunction*%
%TD*%
%TA.AperFunction,Conductor*%
%TO.N,VBATT*%
G36*
X121643488Y-27559798D02*
G01*
X121797201Y-27631650D01*
X121803416Y-27634829D01*
X122036169Y-27764519D01*
X122077798Y-27809359D01*
X122085120Y-27870105D01*
X122055338Y-27923553D01*
X121999829Y-27949289D01*
X121987981Y-27950000D01*
X121581849Y-27950000D01*
X121595651Y-28037149D01*
X121665685Y-28252691D01*
X121768571Y-28454617D01*
X121901781Y-28637965D01*
X122062034Y-28798218D01*
X122245382Y-28931428D01*
X122447308Y-29034314D01*
X122662849Y-29104348D01*
X122749999Y-29118150D01*
X122750000Y-29118149D01*
X122750000Y-28411724D01*
X122768907Y-28353533D01*
X122818407Y-28317569D01*
X122879593Y-28317569D01*
X122908952Y-28332941D01*
X122993975Y-28397647D01*
X123146285Y-28513561D01*
X123151711Y-28518003D01*
X123216401Y-28574926D01*
X123247595Y-28627557D01*
X123250000Y-28649246D01*
X123250000Y-29118150D01*
X123337150Y-29104348D01*
X123552688Y-29034315D01*
X123595396Y-29012554D01*
X123655828Y-29002982D01*
X123710345Y-29030758D01*
X123710856Y-29031272D01*
X123928404Y-29252020D01*
X123933146Y-29257188D01*
X124146835Y-29507309D01*
X124278165Y-29661030D01*
X124282542Y-29666539D01*
X124597994Y-30093851D01*
X124601962Y-30099646D01*
X124886269Y-30548287D01*
X124889822Y-30554360D01*
X125045809Y-30844185D01*
X125056738Y-30904386D01*
X125030194Y-30959514D01*
X124976317Y-30988512D01*
X124939319Y-30988202D01*
X124866986Y-30973814D01*
X124756818Y-30951900D01*
X124756816Y-30951900D01*
X124569584Y-30951900D01*
X124569581Y-30951900D01*
X124385950Y-30988426D01*
X124212970Y-31060077D01*
X124212961Y-31060081D01*
X124057292Y-31164098D01*
X124057288Y-31164101D01*
X123924901Y-31296488D01*
X123924898Y-31296492D01*
X123820881Y-31452161D01*
X123820877Y-31452170D01*
X123749226Y-31625150D01*
X123712700Y-31808781D01*
X123712700Y-31808784D01*
X123712700Y-31996016D01*
X123748977Y-32178396D01*
X123749227Y-32179650D01*
X123749227Y-32179652D01*
X123785932Y-32268267D01*
X123788041Y-32295074D01*
X123792249Y-32321638D01*
X123790415Y-32325237D01*
X123790732Y-32329264D01*
X123764472Y-32376155D01*
X123716689Y-32423939D01*
X123660739Y-32479889D01*
X123621180Y-32548407D01*
X123621177Y-32548413D01*
X123612013Y-32582615D01*
X123586391Y-32626994D01*
X123530728Y-32682658D01*
X123476212Y-32710436D01*
X123415780Y-32700865D01*
X123372515Y-32657601D01*
X123361724Y-32612655D01*
X123361724Y-31169210D01*
X123365097Y-31143587D01*
X123368687Y-31130190D01*
X123382325Y-31079292D01*
X123382325Y-30947508D01*
X123348217Y-30820214D01*
X123348215Y-30820211D01*
X123348215Y-30820209D01*
X123282328Y-30706090D01*
X123282326Y-30706088D01*
X123282325Y-30706086D01*
X123189139Y-30612900D01*
X123189136Y-30612898D01*
X123189134Y-30612896D01*
X123075014Y-30547009D01*
X123075016Y-30547009D01*
X123025624Y-30533775D01*
X122947717Y-30512900D01*
X122815933Y-30512900D01*
X122738025Y-30533775D01*
X122688634Y-30547009D01*
X122574515Y-30612896D01*
X122481321Y-30706090D01*
X122415434Y-30820209D01*
X122396364Y-30891378D01*
X122381325Y-30947508D01*
X122381325Y-31079292D01*
X122394963Y-31130190D01*
X122398551Y-31143580D01*
X122401924Y-31169203D01*
X122401925Y-36879319D01*
X122401925Y-38178384D01*
X122383018Y-38236575D01*
X122372929Y-38248388D01*
X121870827Y-38750489D01*
X121850325Y-38766221D01*
X121792687Y-38799499D01*
X121699496Y-38892690D01*
X121633609Y-39006809D01*
X121633608Y-39006814D01*
X121599500Y-39134108D01*
X121599500Y-39265892D01*
X121629579Y-39378151D01*
X121633609Y-39393190D01*
X121699496Y-39507309D01*
X121699498Y-39507311D01*
X121699500Y-39507314D01*
X121792686Y-39600500D01*
X121792688Y-39600501D01*
X121792690Y-39600503D01*
X121906810Y-39666390D01*
X121906808Y-39666390D01*
X121906812Y-39666391D01*
X121906814Y-39666392D01*
X122034108Y-39700500D01*
X122034110Y-39700500D01*
X122165890Y-39700500D01*
X122165892Y-39700500D01*
X122293186Y-39666392D01*
X122293188Y-39666390D01*
X122293190Y-39666390D01*
X122407309Y-39600503D01*
X122407309Y-39600502D01*
X122407314Y-39600500D01*
X122500500Y-39507314D01*
X122533779Y-39449671D01*
X122549505Y-39429175D01*
X123265841Y-38712840D01*
X123329021Y-38603410D01*
X123361725Y-38481355D01*
X123361725Y-38354994D01*
X123361725Y-37692261D01*
X123380632Y-37634070D01*
X123430132Y-37598106D01*
X123491318Y-37598106D01*
X123540818Y-37634070D01*
X123541248Y-37634714D01*
X123568719Y-37672525D01*
X124258845Y-36982399D01*
X123568719Y-36292273D01*
X123541018Y-36330404D01*
X123539370Y-36329207D01*
X123498563Y-36364024D01*
X123437564Y-36368794D01*
X123385411Y-36336798D01*
X123362025Y-36280259D01*
X123361724Y-36272541D01*
X123361724Y-35938719D01*
X123922273Y-35938719D01*
X124612399Y-36628845D01*
X125302525Y-35938719D01*
X125267548Y-35913307D01*
X125092229Y-35823978D01*
X125092226Y-35823976D01*
X124905114Y-35763179D01*
X124905110Y-35763178D01*
X124710780Y-35732400D01*
X124514020Y-35732400D01*
X124319689Y-35763178D01*
X124319685Y-35763179D01*
X124132573Y-35823976D01*
X124132570Y-35823978D01*
X123957256Y-35913304D01*
X123922273Y-35938719D01*
X123361724Y-35938719D01*
X123361724Y-33427345D01*
X123380631Y-33369154D01*
X123430131Y-33333190D01*
X123491317Y-33333190D01*
X123530725Y-33357339D01*
X123593886Y-33420500D01*
X123593888Y-33420501D01*
X123593890Y-33420503D01*
X123708010Y-33486390D01*
X123708008Y-33486390D01*
X123708012Y-33486391D01*
X123708014Y-33486392D01*
X123835308Y-33520500D01*
X123835310Y-33520500D01*
X123925682Y-33520500D01*
X123983873Y-33539407D01*
X124019837Y-33588907D01*
X124019837Y-33650093D01*
X123995686Y-33689504D01*
X123874101Y-33811088D01*
X123874098Y-33811092D01*
X123770081Y-33966761D01*
X123770077Y-33966770D01*
X123698426Y-34139750D01*
X123661900Y-34323381D01*
X123661900Y-34510618D01*
X123698426Y-34694249D01*
X123770077Y-34867229D01*
X123770081Y-34867238D01*
X123831854Y-34959686D01*
X123874098Y-35022908D01*
X124006492Y-35155302D01*
X124072863Y-35199649D01*
X124162161Y-35259318D01*
X124162167Y-35259320D01*
X124162169Y-35259322D01*
X124335149Y-35330973D01*
X124518784Y-35367500D01*
X124518785Y-35367500D01*
X124706015Y-35367500D01*
X124706016Y-35367500D01*
X124889651Y-35330973D01*
X125062631Y-35259322D01*
X125062634Y-35259319D01*
X125062638Y-35259318D01*
X125107587Y-35229282D01*
X125218308Y-35155302D01*
X125350702Y-35022908D01*
X125443924Y-34883392D01*
X125454718Y-34867238D01*
X125454719Y-34867234D01*
X125454722Y-34867231D01*
X125526373Y-34694251D01*
X125562900Y-34510616D01*
X125562900Y-34323384D01*
X125526373Y-34139749D01*
X125454722Y-33966769D01*
X125454720Y-33966766D01*
X125454718Y-33966762D01*
X125402604Y-33888769D01*
X125400968Y-33882971D01*
X125396709Y-33878712D01*
X125392792Y-33853980D01*
X125385995Y-33829881D01*
X125388080Y-33824228D01*
X125387138Y-33818280D01*
X125398505Y-33795970D01*
X125407172Y-33772477D01*
X125414896Y-33763783D01*
X125429176Y-33749504D01*
X125449666Y-33733782D01*
X125507314Y-33700500D01*
X125600500Y-33607314D01*
X125611127Y-33588907D01*
X125666390Y-33493190D01*
X125666390Y-33493188D01*
X125666392Y-33493186D01*
X125700500Y-33365892D01*
X125700500Y-33234108D01*
X125700498Y-33234103D01*
X125700336Y-33232868D01*
X125700500Y-33231982D01*
X125700500Y-33227619D01*
X125701309Y-33227619D01*
X125702071Y-33223502D01*
X125699650Y-33214291D01*
X125707527Y-33194056D01*
X125711484Y-33172707D01*
X125718392Y-33166150D01*
X125721848Y-33157275D01*
X125740115Y-33145534D01*
X125755865Y-33130588D01*
X125765307Y-33129344D01*
X125773320Y-33124195D01*
X125794998Y-33125434D01*
X125816527Y-33122599D01*
X125824897Y-33127143D01*
X125834406Y-33127687D01*
X125851215Y-33141432D01*
X125870298Y-33151792D01*
X125881771Y-33166416D01*
X125885815Y-33172707D01*
X125958101Y-33285184D01*
X125973656Y-33344359D01*
X125968398Y-33367355D01*
X125969113Y-33367547D01*
X125967434Y-33373811D01*
X125967433Y-33373814D01*
X125933325Y-33501108D01*
X125933325Y-33632892D01*
X125957819Y-33724304D01*
X125967434Y-33760190D01*
X126033321Y-33874309D01*
X126033323Y-33874311D01*
X126033325Y-33874314D01*
X126081009Y-33921998D01*
X126108785Y-33976513D01*
X126099214Y-34036945D01*
X126081010Y-34062000D01*
X126033325Y-34109686D01*
X126033322Y-34109689D01*
X126033321Y-34109690D01*
X125967434Y-34223809D01*
X125948364Y-34294978D01*
X125933325Y-34351108D01*
X125933325Y-34482892D01*
X125940753Y-34510614D01*
X125967434Y-34610190D01*
X126033321Y-34724309D01*
X126033323Y-34724311D01*
X126033325Y-34724314D01*
X126081009Y-34771998D01*
X126108785Y-34826513D01*
X126099214Y-34886945D01*
X126081010Y-34912000D01*
X126055910Y-34937101D01*
X126033322Y-34959689D01*
X126033321Y-34959690D01*
X125967434Y-35073809D01*
X125954866Y-35120715D01*
X125933325Y-35201108D01*
X125933325Y-35332892D01*
X125967433Y-35460186D01*
X125967433Y-35460187D01*
X125969113Y-35466454D01*
X125967050Y-35467006D01*
X125971087Y-35518452D01*
X125958112Y-35548843D01*
X125863508Y-35696047D01*
X125863504Y-35696054D01*
X125774343Y-35891286D01*
X125713870Y-36097233D01*
X125695512Y-36224914D01*
X125668516Y-36279821D01*
X125667524Y-36280827D01*
X124789178Y-37159176D01*
X124789177Y-37159177D01*
X123922273Y-38026078D01*
X123957260Y-38051497D01*
X124132570Y-38140821D01*
X124132573Y-38140823D01*
X124319685Y-38201620D01*
X124319689Y-38201621D01*
X124514020Y-38232400D01*
X124710778Y-38232400D01*
X124727002Y-38229830D01*
X124787434Y-38239401D01*
X124830700Y-38282664D01*
X124840272Y-38343096D01*
X124826114Y-38380604D01*
X124601946Y-38734344D01*
X124597971Y-38740149D01*
X124282520Y-39167458D01*
X124278143Y-39172967D01*
X123933130Y-39576801D01*
X123928390Y-39581965D01*
X123746234Y-39766801D01*
X123555567Y-39960274D01*
X123550453Y-39965106D01*
X123151717Y-40315966D01*
X123146273Y-40320424D01*
X122723605Y-40642090D01*
X122717858Y-40646149D01*
X122273431Y-40936968D01*
X122267411Y-40940609D01*
X121803431Y-41199141D01*
X121797166Y-41202345D01*
X121316011Y-41427260D01*
X121309535Y-41430011D01*
X120813628Y-41620180D01*
X120806973Y-41622465D01*
X120298779Y-41776942D01*
X120291979Y-41778747D01*
X119774137Y-41896728D01*
X119767226Y-41898047D01*
X119242279Y-41978956D01*
X119235291Y-41979780D01*
X118705927Y-42023198D01*
X118698899Y-42023523D01*
X118167813Y-42029234D01*
X118160778Y-42029060D01*
X117630597Y-41997032D01*
X117623594Y-41996358D01*
X117097054Y-41926759D01*
X117090115Y-41925590D01*
X116569830Y-41818763D01*
X116562993Y-41817104D01*
X116051611Y-41673594D01*
X116044908Y-41671453D01*
X115545018Y-41491986D01*
X115538485Y-41489375D01*
X115052599Y-41274854D01*
X115046267Y-41271785D01*
X114705454Y-41091375D01*
X114576830Y-41023287D01*
X114570765Y-41019795D01*
X114120161Y-40738581D01*
X114114332Y-40734648D01*
X113684862Y-40422155D01*
X113679323Y-40417816D01*
X113487297Y-40256039D01*
X113273125Y-40075603D01*
X113267924Y-40070896D01*
X112887028Y-39700666D01*
X112882185Y-39695611D01*
X112528561Y-39299279D01*
X112524077Y-39293878D01*
X112199509Y-38873446D01*
X112195410Y-38867727D01*
X111901532Y-38425317D01*
X111897849Y-38419322D01*
X111824369Y-38289562D01*
X111636121Y-37957129D01*
X111632877Y-37950893D01*
X111451841Y-37570468D01*
X111443455Y-37543417D01*
X111429687Y-37456488D01*
X111439258Y-37396056D01*
X111482523Y-37352791D01*
X111527468Y-37342001D01*
X111582824Y-37342001D01*
X111582825Y-37342000D01*
X111582825Y-36667002D01*
X112082825Y-36667002D01*
X112082825Y-37342000D01*
X112082826Y-37342001D01*
X112305649Y-37342001D01*
X112365195Y-37335599D01*
X112365206Y-37335597D01*
X112499913Y-37285354D01*
X112499915Y-37285353D01*
X112615009Y-37199193D01*
X112615017Y-37199185D01*
X112701177Y-37084091D01*
X112701178Y-37084089D01*
X112751421Y-36949382D01*
X112751423Y-36949371D01*
X112757825Y-36889825D01*
X112757825Y-36667002D01*
X112757824Y-36667001D01*
X112082826Y-36667001D01*
X112082825Y-36667002D01*
X111582825Y-36667002D01*
X111582825Y-36516001D01*
X111591796Y-36488388D01*
X111620885Y-36558615D01*
X111691211Y-36628941D01*
X111783097Y-36667001D01*
X111882553Y-36667001D01*
X111974439Y-36628941D01*
X112044765Y-36558615D01*
X112082825Y-36466729D01*
X112082825Y-36367273D01*
X112044765Y-36275387D01*
X111974439Y-36205061D01*
X111898696Y-36173687D01*
X111901232Y-36171846D01*
X111931825Y-36167001D01*
X112757824Y-36167001D01*
X112757825Y-36167000D01*
X112757825Y-35995901D01*
X112776732Y-35937710D01*
X112826232Y-35901746D01*
X112856825Y-35896901D01*
X113032978Y-35896901D01*
X113032980Y-35896901D01*
X113155034Y-35864197D01*
X113264465Y-35801017D01*
X114887215Y-34178266D01*
X114890659Y-34172302D01*
X114950396Y-34068834D01*
X114982074Y-33950609D01*
X114982076Y-33950609D01*
X114982076Y-33950599D01*
X114983100Y-33946781D01*
X114983100Y-33820420D01*
X114983100Y-33455806D01*
X114986473Y-33430183D01*
X115003700Y-33365892D01*
X115003700Y-33234108D01*
X114986473Y-33169814D01*
X114983100Y-33144192D01*
X114983100Y-32236587D01*
X115002007Y-32178396D01*
X115012090Y-32166590D01*
X115229171Y-31949508D01*
X115249666Y-31933782D01*
X115301003Y-31904143D01*
X115360849Y-31891423D01*
X115416745Y-31916310D01*
X115447337Y-31969299D01*
X115449500Y-31989881D01*
X115449500Y-38289564D01*
X115469978Y-38365988D01*
X115469980Y-38365992D01*
X115504232Y-38425317D01*
X115509540Y-38434511D01*
X115565489Y-38490460D01*
X115565491Y-38490461D01*
X115634007Y-38530019D01*
X115634011Y-38530021D01*
X115710435Y-38550499D01*
X115710437Y-38550500D01*
X115710438Y-38550500D01*
X120889563Y-38550500D01*
X120889563Y-38550499D01*
X120965989Y-38530021D01*
X121034511Y-38490460D01*
X121090460Y-38434511D01*
X121130021Y-38365989D01*
X121150500Y-38289562D01*
X121150500Y-30510438D01*
X121130021Y-30434011D01*
X121090460Y-30365489D01*
X121034511Y-30309540D01*
X121034508Y-30309538D01*
X120965992Y-30269980D01*
X120965988Y-30269978D01*
X120889564Y-30249500D01*
X120889562Y-30249500D01*
X115868189Y-30249500D01*
X115809998Y-30230593D01*
X115774034Y-30181093D01*
X115774034Y-30119907D01*
X115798185Y-30080496D01*
X117669785Y-28208896D01*
X117724302Y-28181119D01*
X117739789Y-28179900D01*
X119987979Y-28179900D01*
X119987981Y-28179900D01*
X120110035Y-28147196D01*
X120219466Y-28084016D01*
X120461293Y-27842186D01*
X120515810Y-27814409D01*
X120546784Y-27814409D01*
X120710253Y-27840300D01*
X120710256Y-27840300D01*
X120889747Y-27840300D01*
X121067022Y-27812222D01*
X121067026Y-27812221D01*
X121237716Y-27756760D01*
X121237718Y-27756758D01*
X121237723Y-27756757D01*
X121397647Y-27675272D01*
X121542856Y-27569772D01*
X121542858Y-27569769D01*
X121543378Y-27569392D01*
X121601569Y-27550484D01*
X121643488Y-27559798D01*
G37*
%TD.AperFunction*%
%TD*%
M02*
