%TF.GenerationSoftware,KiCad,Pcbnew,9.0.4*%
%TF.CreationDate,2025-12-16T21:44:14-08:00*%
%TF.ProjectId,Droplet,44726f70-6c65-4742-9e6b-696361645f70,rev?*%
%TF.SameCoordinates,Original*%
%TF.FileFunction,Legend,Top*%
%TF.FilePolarity,Positive*%
%FSLAX46Y46*%
G04 Gerber Fmt 4.6, Leading zero omitted, Abs format (unit mm)*
G04 Created by KiCad (PCBNEW 9.0.4) date 2025-12-16 21:44:14*
%MOMM*%
%LPD*%
G01*
G04 APERTURE LIST*
%ADD10C,0.300000*%
%ADD11C,0.150000*%
%ADD12C,0.120000*%
%ADD13C,0.250000*%
G04 APERTURE END LIST*
D10*
X95778028Y-36723146D02*
X96778028Y-36366003D01*
X96778028Y-36366003D02*
X95778028Y-36008860D01*
X96778028Y-34651717D02*
X96778028Y-35508860D01*
X96778028Y-35080289D02*
X95278028Y-35080289D01*
X95278028Y-35080289D02*
X95492314Y-35223146D01*
X95492314Y-35223146D02*
X95635171Y-35366003D01*
X95635171Y-35366003D02*
X95706600Y-35508860D01*
X96635171Y-34008861D02*
X96706600Y-33937432D01*
X96706600Y-33937432D02*
X96778028Y-34008861D01*
X96778028Y-34008861D02*
X96706600Y-34080289D01*
X96706600Y-34080289D02*
X96635171Y-34008861D01*
X96635171Y-34008861D02*
X96778028Y-34008861D01*
X95278028Y-33008860D02*
X95278028Y-32866003D01*
X95278028Y-32866003D02*
X95349457Y-32723146D01*
X95349457Y-32723146D02*
X95420885Y-32651718D01*
X95420885Y-32651718D02*
X95563742Y-32580289D01*
X95563742Y-32580289D02*
X95849457Y-32508860D01*
X95849457Y-32508860D02*
X96206600Y-32508860D01*
X96206600Y-32508860D02*
X96492314Y-32580289D01*
X96492314Y-32580289D02*
X96635171Y-32651718D01*
X96635171Y-32651718D02*
X96706600Y-32723146D01*
X96706600Y-32723146D02*
X96778028Y-32866003D01*
X96778028Y-32866003D02*
X96778028Y-33008860D01*
X96778028Y-33008860D02*
X96706600Y-33151718D01*
X96706600Y-33151718D02*
X96635171Y-33223146D01*
X96635171Y-33223146D02*
X96492314Y-33294575D01*
X96492314Y-33294575D02*
X96206600Y-33366003D01*
X96206600Y-33366003D02*
X95849457Y-33366003D01*
X95849457Y-33366003D02*
X95563742Y-33294575D01*
X95563742Y-33294575D02*
X95420885Y-33223146D01*
X95420885Y-33223146D02*
X95349457Y-33151718D01*
X95349457Y-33151718D02*
X95278028Y-33008860D01*
D11*
X105607950Y-32041860D02*
X105274617Y-31565669D01*
X105036522Y-32041860D02*
X105036522Y-31041860D01*
X105036522Y-31041860D02*
X105417474Y-31041860D01*
X105417474Y-31041860D02*
X105512712Y-31089479D01*
X105512712Y-31089479D02*
X105560331Y-31137098D01*
X105560331Y-31137098D02*
X105607950Y-31232336D01*
X105607950Y-31232336D02*
X105607950Y-31375193D01*
X105607950Y-31375193D02*
X105560331Y-31470431D01*
X105560331Y-31470431D02*
X105512712Y-31518050D01*
X105512712Y-31518050D02*
X105417474Y-31565669D01*
X105417474Y-31565669D02*
X105036522Y-31565669D01*
X105941284Y-31041860D02*
X106607950Y-31041860D01*
X106607950Y-31041860D02*
X106179379Y-32041860D01*
X117988095Y-30204819D02*
X117988095Y-31014342D01*
X117988095Y-31014342D02*
X118035714Y-31109580D01*
X118035714Y-31109580D02*
X118083333Y-31157200D01*
X118083333Y-31157200D02*
X118178571Y-31204819D01*
X118178571Y-31204819D02*
X118369047Y-31204819D01*
X118369047Y-31204819D02*
X118464285Y-31157200D01*
X118464285Y-31157200D02*
X118511904Y-31109580D01*
X118511904Y-31109580D02*
X118559523Y-31014342D01*
X118559523Y-31014342D02*
X118559523Y-30204819D01*
X119559523Y-31204819D02*
X118988095Y-31204819D01*
X119273809Y-31204819D02*
X119273809Y-30204819D01*
X119273809Y-30204819D02*
X119178571Y-30347676D01*
X119178571Y-30347676D02*
X119083333Y-30442914D01*
X119083333Y-30442914D02*
X118988095Y-30490533D01*
X116961905Y-37554819D02*
X116961905Y-36554819D01*
X116961905Y-36554819D02*
X117200000Y-36554819D01*
X117200000Y-36554819D02*
X117342857Y-36602438D01*
X117342857Y-36602438D02*
X117438095Y-36697676D01*
X117438095Y-36697676D02*
X117485714Y-36792914D01*
X117485714Y-36792914D02*
X117533333Y-36983390D01*
X117533333Y-36983390D02*
X117533333Y-37126247D01*
X117533333Y-37126247D02*
X117485714Y-37316723D01*
X117485714Y-37316723D02*
X117438095Y-37411961D01*
X117438095Y-37411961D02*
X117342857Y-37507200D01*
X117342857Y-37507200D02*
X117200000Y-37554819D01*
X117200000Y-37554819D02*
X116961905Y-37554819D01*
X118485714Y-37554819D02*
X117914286Y-37554819D01*
X118200000Y-37554819D02*
X118200000Y-36554819D01*
X118200000Y-36554819D02*
X118104762Y-36697676D01*
X118104762Y-36697676D02*
X118009524Y-36792914D01*
X118009524Y-36792914D02*
X117914286Y-36840533D01*
X113854819Y-34966666D02*
X113378628Y-35299999D01*
X113854819Y-35538094D02*
X112854819Y-35538094D01*
X112854819Y-35538094D02*
X112854819Y-35157142D01*
X112854819Y-35157142D02*
X112902438Y-35061904D01*
X112902438Y-35061904D02*
X112950057Y-35014285D01*
X112950057Y-35014285D02*
X113045295Y-34966666D01*
X113045295Y-34966666D02*
X113188152Y-34966666D01*
X113188152Y-34966666D02*
X113283390Y-35014285D01*
X113283390Y-35014285D02*
X113331009Y-35061904D01*
X113331009Y-35061904D02*
X113378628Y-35157142D01*
X113378628Y-35157142D02*
X113378628Y-35538094D01*
X112950057Y-34585713D02*
X112902438Y-34538094D01*
X112902438Y-34538094D02*
X112854819Y-34442856D01*
X112854819Y-34442856D02*
X112854819Y-34204761D01*
X112854819Y-34204761D02*
X112902438Y-34109523D01*
X112902438Y-34109523D02*
X112950057Y-34061904D01*
X112950057Y-34061904D02*
X113045295Y-34014285D01*
X113045295Y-34014285D02*
X113140533Y-34014285D01*
X113140533Y-34014285D02*
X113283390Y-34061904D01*
X113283390Y-34061904D02*
X113854819Y-34633332D01*
X113854819Y-34633332D02*
X113854819Y-34014285D01*
X105551617Y-37808937D02*
X105218284Y-37332746D01*
X104980189Y-37808937D02*
X104980189Y-36808937D01*
X104980189Y-36808937D02*
X105361141Y-36808937D01*
X105361141Y-36808937D02*
X105456379Y-36856556D01*
X105456379Y-36856556D02*
X105503998Y-36904175D01*
X105503998Y-36904175D02*
X105551617Y-36999413D01*
X105551617Y-36999413D02*
X105551617Y-37142270D01*
X105551617Y-37142270D02*
X105503998Y-37237508D01*
X105503998Y-37237508D02*
X105456379Y-37285127D01*
X105456379Y-37285127D02*
X105361141Y-37332746D01*
X105361141Y-37332746D02*
X104980189Y-37332746D01*
X106408760Y-36808937D02*
X106218284Y-36808937D01*
X106218284Y-36808937D02*
X106123046Y-36856556D01*
X106123046Y-36856556D02*
X106075427Y-36904175D01*
X106075427Y-36904175D02*
X105980189Y-37047032D01*
X105980189Y-37047032D02*
X105932570Y-37237508D01*
X105932570Y-37237508D02*
X105932570Y-37618460D01*
X105932570Y-37618460D02*
X105980189Y-37713698D01*
X105980189Y-37713698D02*
X106027808Y-37761318D01*
X106027808Y-37761318D02*
X106123046Y-37808937D01*
X106123046Y-37808937D02*
X106313522Y-37808937D01*
X106313522Y-37808937D02*
X106408760Y-37761318D01*
X106408760Y-37761318D02*
X106456379Y-37713698D01*
X106456379Y-37713698D02*
X106503998Y-37618460D01*
X106503998Y-37618460D02*
X106503998Y-37380365D01*
X106503998Y-37380365D02*
X106456379Y-37285127D01*
X106456379Y-37285127D02*
X106408760Y-37237508D01*
X106408760Y-37237508D02*
X106313522Y-37189889D01*
X106313522Y-37189889D02*
X106123046Y-37189889D01*
X106123046Y-37189889D02*
X106027808Y-37237508D01*
X106027808Y-37237508D02*
X105980189Y-37285127D01*
X105980189Y-37285127D02*
X105932570Y-37380365D01*
X105564793Y-30630019D02*
X105231460Y-30153828D01*
X104993365Y-30630019D02*
X104993365Y-29630019D01*
X104993365Y-29630019D02*
X105374317Y-29630019D01*
X105374317Y-29630019D02*
X105469555Y-29677638D01*
X105469555Y-29677638D02*
X105517174Y-29725257D01*
X105517174Y-29725257D02*
X105564793Y-29820495D01*
X105564793Y-29820495D02*
X105564793Y-29963352D01*
X105564793Y-29963352D02*
X105517174Y-30058590D01*
X105517174Y-30058590D02*
X105469555Y-30106209D01*
X105469555Y-30106209D02*
X105374317Y-30153828D01*
X105374317Y-30153828D02*
X104993365Y-30153828D01*
X106136222Y-30058590D02*
X106040984Y-30010971D01*
X106040984Y-30010971D02*
X105993365Y-29963352D01*
X105993365Y-29963352D02*
X105945746Y-29868114D01*
X105945746Y-29868114D02*
X105945746Y-29820495D01*
X105945746Y-29820495D02*
X105993365Y-29725257D01*
X105993365Y-29725257D02*
X106040984Y-29677638D01*
X106040984Y-29677638D02*
X106136222Y-29630019D01*
X106136222Y-29630019D02*
X106326698Y-29630019D01*
X106326698Y-29630019D02*
X106421936Y-29677638D01*
X106421936Y-29677638D02*
X106469555Y-29725257D01*
X106469555Y-29725257D02*
X106517174Y-29820495D01*
X106517174Y-29820495D02*
X106517174Y-29868114D01*
X106517174Y-29868114D02*
X106469555Y-29963352D01*
X106469555Y-29963352D02*
X106421936Y-30010971D01*
X106421936Y-30010971D02*
X106326698Y-30058590D01*
X106326698Y-30058590D02*
X106136222Y-30058590D01*
X106136222Y-30058590D02*
X106040984Y-30106209D01*
X106040984Y-30106209D02*
X105993365Y-30153828D01*
X105993365Y-30153828D02*
X105945746Y-30249066D01*
X105945746Y-30249066D02*
X105945746Y-30439542D01*
X105945746Y-30439542D02*
X105993365Y-30534780D01*
X105993365Y-30534780D02*
X106040984Y-30582400D01*
X106040984Y-30582400D02*
X106136222Y-30630019D01*
X106136222Y-30630019D02*
X106326698Y-30630019D01*
X106326698Y-30630019D02*
X106421936Y-30582400D01*
X106421936Y-30582400D02*
X106469555Y-30534780D01*
X106469555Y-30534780D02*
X106517174Y-30439542D01*
X106517174Y-30439542D02*
X106517174Y-30249066D01*
X106517174Y-30249066D02*
X106469555Y-30153828D01*
X106469555Y-30153828D02*
X106421936Y-30106209D01*
X106421936Y-30106209D02*
X106326698Y-30058590D01*
X112560543Y-39803754D02*
X112661558Y-39231335D01*
X112156482Y-39399693D02*
X112863589Y-38692587D01*
X112863589Y-38692587D02*
X113132963Y-38961961D01*
X113132963Y-38961961D02*
X113166635Y-39062976D01*
X113166635Y-39062976D02*
X113166635Y-39130319D01*
X113166635Y-39130319D02*
X113132963Y-39231335D01*
X113132963Y-39231335D02*
X113031948Y-39332350D01*
X113031948Y-39332350D02*
X112930932Y-39366022D01*
X112930932Y-39366022D02*
X112863589Y-39366022D01*
X112863589Y-39366022D02*
X112762574Y-39332350D01*
X112762574Y-39332350D02*
X112493200Y-39062976D01*
X113503352Y-39332350D02*
X113941085Y-39770083D01*
X113941085Y-39770083D02*
X113436009Y-39803754D01*
X113436009Y-39803754D02*
X113537024Y-39904770D01*
X113537024Y-39904770D02*
X113570696Y-40005785D01*
X113570696Y-40005785D02*
X113570696Y-40073128D01*
X113570696Y-40073128D02*
X113537024Y-40174144D01*
X113537024Y-40174144D02*
X113368665Y-40342502D01*
X113368665Y-40342502D02*
X113267650Y-40376174D01*
X113267650Y-40376174D02*
X113200306Y-40376174D01*
X113200306Y-40376174D02*
X113099291Y-40342502D01*
X113099291Y-40342502D02*
X112897261Y-40140472D01*
X112897261Y-40140472D02*
X112863589Y-40039457D01*
X112863589Y-40039457D02*
X112863589Y-39972113D01*
X123681004Y-33543091D02*
X122871481Y-33543091D01*
X122871481Y-33543091D02*
X122776243Y-33590710D01*
X122776243Y-33590710D02*
X122728624Y-33638329D01*
X122728624Y-33638329D02*
X122681004Y-33733567D01*
X122681004Y-33733567D02*
X122681004Y-33924043D01*
X122681004Y-33924043D02*
X122728624Y-34019281D01*
X122728624Y-34019281D02*
X122776243Y-34066900D01*
X122776243Y-34066900D02*
X122871481Y-34114519D01*
X122871481Y-34114519D02*
X123681004Y-34114519D01*
X123585766Y-34543091D02*
X123633385Y-34590710D01*
X123633385Y-34590710D02*
X123681004Y-34685948D01*
X123681004Y-34685948D02*
X123681004Y-34924043D01*
X123681004Y-34924043D02*
X123633385Y-35019281D01*
X123633385Y-35019281D02*
X123585766Y-35066900D01*
X123585766Y-35066900D02*
X123490528Y-35114519D01*
X123490528Y-35114519D02*
X123395290Y-35114519D01*
X123395290Y-35114519D02*
X123252433Y-35066900D01*
X123252433Y-35066900D02*
X122681004Y-34495472D01*
X122681004Y-34495472D02*
X122681004Y-35114519D01*
X105499332Y-39062819D02*
X105165999Y-38586628D01*
X104927904Y-39062819D02*
X104927904Y-38062819D01*
X104927904Y-38062819D02*
X105308856Y-38062819D01*
X105308856Y-38062819D02*
X105404094Y-38110438D01*
X105404094Y-38110438D02*
X105451713Y-38158057D01*
X105451713Y-38158057D02*
X105499332Y-38253295D01*
X105499332Y-38253295D02*
X105499332Y-38396152D01*
X105499332Y-38396152D02*
X105451713Y-38491390D01*
X105451713Y-38491390D02*
X105404094Y-38539009D01*
X105404094Y-38539009D02*
X105308856Y-38586628D01*
X105308856Y-38586628D02*
X104927904Y-38586628D01*
X106404094Y-38062819D02*
X105927904Y-38062819D01*
X105927904Y-38062819D02*
X105880285Y-38539009D01*
X105880285Y-38539009D02*
X105927904Y-38491390D01*
X105927904Y-38491390D02*
X106023142Y-38443771D01*
X106023142Y-38443771D02*
X106261237Y-38443771D01*
X106261237Y-38443771D02*
X106356475Y-38491390D01*
X106356475Y-38491390D02*
X106404094Y-38539009D01*
X106404094Y-38539009D02*
X106451713Y-38634247D01*
X106451713Y-38634247D02*
X106451713Y-38872342D01*
X106451713Y-38872342D02*
X106404094Y-38967580D01*
X106404094Y-38967580D02*
X106356475Y-39015200D01*
X106356475Y-39015200D02*
X106261237Y-39062819D01*
X106261237Y-39062819D02*
X106023142Y-39062819D01*
X106023142Y-39062819D02*
X105927904Y-39015200D01*
X105927904Y-39015200D02*
X105880285Y-38967580D01*
X123127887Y-29886411D02*
X123060543Y-29886411D01*
X123060543Y-29886411D02*
X122925856Y-29819067D01*
X122925856Y-29819067D02*
X122858513Y-29751724D01*
X122858513Y-29751724D02*
X122791169Y-29617037D01*
X122791169Y-29617037D02*
X122791169Y-29482350D01*
X122791169Y-29482350D02*
X122824841Y-29381335D01*
X122824841Y-29381335D02*
X122925856Y-29212976D01*
X122925856Y-29212976D02*
X123026871Y-29111961D01*
X123026871Y-29111961D02*
X123195230Y-29010945D01*
X123195230Y-29010945D02*
X123296245Y-28977274D01*
X123296245Y-28977274D02*
X123430932Y-28977274D01*
X123430932Y-28977274D02*
X123565619Y-29044617D01*
X123565619Y-29044617D02*
X123632963Y-29111961D01*
X123632963Y-29111961D02*
X123700306Y-29246648D01*
X123700306Y-29246648D02*
X123700306Y-29313991D01*
X123733978Y-30627189D02*
X123329917Y-30223128D01*
X123531948Y-30425159D02*
X124239054Y-29718052D01*
X124239054Y-29718052D02*
X124070696Y-29751724D01*
X124070696Y-29751724D02*
X123936009Y-29751724D01*
X123936009Y-29751724D02*
X123834993Y-29718052D01*
X100822105Y-31444019D02*
X100822105Y-30444019D01*
X100822105Y-30444019D02*
X101060200Y-30444019D01*
X101060200Y-30444019D02*
X101203057Y-30491638D01*
X101203057Y-30491638D02*
X101298295Y-30586876D01*
X101298295Y-30586876D02*
X101345914Y-30682114D01*
X101345914Y-30682114D02*
X101393533Y-30872590D01*
X101393533Y-30872590D02*
X101393533Y-31015447D01*
X101393533Y-31015447D02*
X101345914Y-31205923D01*
X101345914Y-31205923D02*
X101298295Y-31301161D01*
X101298295Y-31301161D02*
X101203057Y-31396400D01*
X101203057Y-31396400D02*
X101060200Y-31444019D01*
X101060200Y-31444019D02*
X100822105Y-31444019D01*
X101774486Y-30539257D02*
X101822105Y-30491638D01*
X101822105Y-30491638D02*
X101917343Y-30444019D01*
X101917343Y-30444019D02*
X102155438Y-30444019D01*
X102155438Y-30444019D02*
X102250676Y-30491638D01*
X102250676Y-30491638D02*
X102298295Y-30539257D01*
X102298295Y-30539257D02*
X102345914Y-30634495D01*
X102345914Y-30634495D02*
X102345914Y-30729733D01*
X102345914Y-30729733D02*
X102298295Y-30872590D01*
X102298295Y-30872590D02*
X101726867Y-31444019D01*
X101726867Y-31444019D02*
X102345914Y-31444019D01*
X114654819Y-32666666D02*
X114178628Y-32999999D01*
X114654819Y-33238094D02*
X113654819Y-33238094D01*
X113654819Y-33238094D02*
X113654819Y-32857142D01*
X113654819Y-32857142D02*
X113702438Y-32761904D01*
X113702438Y-32761904D02*
X113750057Y-32714285D01*
X113750057Y-32714285D02*
X113845295Y-32666666D01*
X113845295Y-32666666D02*
X113988152Y-32666666D01*
X113988152Y-32666666D02*
X114083390Y-32714285D01*
X114083390Y-32714285D02*
X114131009Y-32761904D01*
X114131009Y-32761904D02*
X114178628Y-32857142D01*
X114178628Y-32857142D02*
X114178628Y-33238094D01*
X114654819Y-31714285D02*
X114654819Y-32285713D01*
X114654819Y-31999999D02*
X113654819Y-31999999D01*
X113654819Y-31999999D02*
X113797676Y-32095237D01*
X113797676Y-32095237D02*
X113892914Y-32190475D01*
X113892914Y-32190475D02*
X113940533Y-32285713D01*
X122033333Y-40559580D02*
X121985714Y-40607200D01*
X121985714Y-40607200D02*
X121842857Y-40654819D01*
X121842857Y-40654819D02*
X121747619Y-40654819D01*
X121747619Y-40654819D02*
X121604762Y-40607200D01*
X121604762Y-40607200D02*
X121509524Y-40511961D01*
X121509524Y-40511961D02*
X121461905Y-40416723D01*
X121461905Y-40416723D02*
X121414286Y-40226247D01*
X121414286Y-40226247D02*
X121414286Y-40083390D01*
X121414286Y-40083390D02*
X121461905Y-39892914D01*
X121461905Y-39892914D02*
X121509524Y-39797676D01*
X121509524Y-39797676D02*
X121604762Y-39702438D01*
X121604762Y-39702438D02*
X121747619Y-39654819D01*
X121747619Y-39654819D02*
X121842857Y-39654819D01*
X121842857Y-39654819D02*
X121985714Y-39702438D01*
X121985714Y-39702438D02*
X122033333Y-39750057D01*
X122414286Y-39750057D02*
X122461905Y-39702438D01*
X122461905Y-39702438D02*
X122557143Y-39654819D01*
X122557143Y-39654819D02*
X122795238Y-39654819D01*
X122795238Y-39654819D02*
X122890476Y-39702438D01*
X122890476Y-39702438D02*
X122938095Y-39750057D01*
X122938095Y-39750057D02*
X122985714Y-39845295D01*
X122985714Y-39845295D02*
X122985714Y-39940533D01*
X122985714Y-39940533D02*
X122938095Y-40083390D01*
X122938095Y-40083390D02*
X122366667Y-40654819D01*
X122366667Y-40654819D02*
X122985714Y-40654819D01*
X117790933Y-42110819D02*
X117457600Y-41634628D01*
X117219505Y-42110819D02*
X117219505Y-41110819D01*
X117219505Y-41110819D02*
X117600457Y-41110819D01*
X117600457Y-41110819D02*
X117695695Y-41158438D01*
X117695695Y-41158438D02*
X117743314Y-41206057D01*
X117743314Y-41206057D02*
X117790933Y-41301295D01*
X117790933Y-41301295D02*
X117790933Y-41444152D01*
X117790933Y-41444152D02*
X117743314Y-41539390D01*
X117743314Y-41539390D02*
X117695695Y-41587009D01*
X117695695Y-41587009D02*
X117600457Y-41634628D01*
X117600457Y-41634628D02*
X117219505Y-41634628D01*
X118648076Y-41444152D02*
X118648076Y-42110819D01*
X118409981Y-41063200D02*
X118171886Y-41777485D01*
X118171886Y-41777485D02*
X118790933Y-41777485D01*
D12*
%TO.C,R7*%
X105570176Y-33442241D02*
X105877458Y-33442241D01*
X105570176Y-34202241D02*
X105877458Y-34202241D01*
%TO.C,J2*%
X111087825Y-35682001D02*
X111087825Y-31807001D01*
X111147260Y-35682001D02*
X111087825Y-35682001D01*
X111422795Y-31807001D02*
X111087825Y-31807001D01*
X112577825Y-31807001D02*
X112242855Y-31807001D01*
X112577825Y-35682001D02*
X112518390Y-35682001D01*
X112577825Y-35682001D02*
X112577825Y-31807001D01*
X112577825Y-36417001D02*
X112577825Y-37152001D01*
X112577825Y-37152001D02*
X111832825Y-37152001D01*
%TO.C,U1*%
X115114825Y-31242000D02*
X115114825Y-29292000D01*
X115114825Y-31242000D02*
X115114825Y-33192000D01*
X120234825Y-31242000D02*
X120234825Y-29292000D01*
X120234825Y-31242000D02*
X120234825Y-33192000D01*
X120469825Y-28782000D02*
X120139825Y-28542000D01*
X120469825Y-28302000D01*
X120469825Y-28782000D01*
G36*
X120469825Y-28782000D02*
G01*
X120139825Y-28542000D01*
X120469825Y-28302000D01*
X120469825Y-28782000D01*
G37*
D13*
%TO.C,D1*%
X114412824Y-35331498D02*
X114412824Y-35531498D01*
X114412824Y-36531498D02*
X114412824Y-36731498D01*
X114412824Y-37731498D02*
X114412824Y-37931498D01*
X114412824Y-38931498D02*
X114412824Y-39131498D01*
X114412824Y-40131498D02*
X114412824Y-40331498D01*
X114412824Y-40331498D02*
X119412824Y-40331498D01*
X119412824Y-35331498D02*
X114412824Y-35331498D01*
X119412824Y-35531498D02*
X119412824Y-35331498D01*
X119412824Y-36731498D02*
X119412824Y-36531498D01*
X119412824Y-37931498D02*
X119412824Y-37731498D01*
X119412824Y-39131498D02*
X119412824Y-38931498D01*
X119412824Y-40331498D02*
X119412824Y-40131498D01*
D12*
%TO.C,R2*%
X113120000Y-36246359D02*
X113120000Y-36553641D01*
X113880000Y-36246359D02*
X113880000Y-36553641D01*
%TO.C,R6*%
X105564643Y-34637318D02*
X105871925Y-34637318D01*
X105564643Y-35397318D02*
X105871925Y-35397318D01*
%TO.C,R8*%
X105575819Y-32233600D02*
X105883101Y-32233600D01*
X105575819Y-32993600D02*
X105883101Y-32993600D01*
%TO.C,R3*%
X112650000Y-38251159D02*
X112650000Y-38558441D01*
X113410000Y-38251159D02*
X113410000Y-38558441D01*
%TO.C,U2*%
X120535824Y-32302498D02*
X125735824Y-32302498D01*
X120535824Y-36502498D02*
X120535824Y-32302498D01*
X125735824Y-32302498D02*
X125735824Y-36502498D01*
X125735824Y-36502498D02*
X120535824Y-36502498D01*
X125635824Y-31702498D02*
X125135824Y-31402498D01*
X125635824Y-31102499D01*
X125635824Y-31702498D01*
G36*
X125635824Y-31702498D02*
G01*
X125135824Y-31402498D01*
X125635824Y-31102499D01*
X125635824Y-31702498D01*
G37*
%TO.C,R5*%
X105870440Y-35840400D02*
X105563158Y-35840400D01*
X105870440Y-36600400D02*
X105563158Y-36600400D01*
%TO.C,C1*%
X121004990Y-29413707D02*
X121157493Y-29566210D01*
X121514107Y-28904590D02*
X121666610Y-29057093D01*
D13*
%TO.C,D2*%
X99049200Y-31917000D02*
X99049200Y-32117000D01*
X99049200Y-33117000D02*
X99049200Y-33317000D01*
X99049200Y-34317000D02*
X99049200Y-34517000D01*
X99049200Y-35517000D02*
X99049200Y-35717000D01*
X99049200Y-36717000D02*
X99049200Y-36917000D01*
X99049200Y-36917000D02*
X104049200Y-36917000D01*
X104049200Y-31917000D02*
X99049200Y-31917000D01*
X104049200Y-32117000D02*
X104049200Y-31917000D01*
X104049200Y-33317000D02*
X104049200Y-33117000D01*
X104049200Y-34517000D02*
X104049200Y-34317000D01*
X104049200Y-35717000D02*
X104049200Y-35517000D01*
X104049200Y-36917000D02*
X104049200Y-36717000D01*
D12*
%TO.C,R1*%
X114020000Y-34553641D02*
X114020000Y-34246359D01*
X114780000Y-34553641D02*
X114780000Y-34246359D01*
%TO.C,C2*%
X123407836Y-38740000D02*
X123192164Y-38740000D01*
X123407836Y-39460000D02*
X123192164Y-39460000D01*
%TO.C,R4*%
X116434841Y-40666400D02*
X116127559Y-40666400D01*
X116434841Y-41426400D02*
X116127559Y-41426400D01*
%TD*%
M02*
