M48
; DRILL file KiCad 10.0.0 date 2026-03-28T00:54:03
; FORMAT={-:-/ absolute / metric / decimal}
; #@! TF.CreationDate,2026-03-28T00:54:03-07:00
; #@! TF.GenerationSoftware,Kicad,Pcbnew,10.0.0
; #@! TF.FileFunction,Plated,1,2,PTH
FMAT,2
METRIC
; #@! TA.AperFunction,Plated,PTH,ViaDrill
T1C0.300
; #@! TA.AperFunction,Plated,PTH,ComponentDrill
T2C0.500
; #@! TA.AperFunction,Plated,PTH,CastelletedDrill
T3C1.016
%
G90
G05
T1
X90.792Y-40.42
X90.792Y-58.42
X90.792Y-76.42
X90.792Y-94.42
X90.792Y-112.42
X92.773Y-45.906
X92.773Y-63.906
X92.773Y-81.906
X92.773Y-99.906
X92.773Y-117.906
X93.586Y-39.531
X93.586Y-42.325
X93.586Y-57.531
X93.586Y-60.325
X93.586Y-75.531
X93.586Y-78.325
X93.586Y-93.531
X93.586Y-96.325
X93.586Y-111.531
X93.586Y-114.325
X94.296Y-35.03
X94.296Y-53.03
X94.296Y-71.03
X94.296Y-89.03
X94.296Y-107.03
X95.059Y-37.321
X95.059Y-43.874
X95.059Y-55.321
X95.059Y-61.874
X95.059Y-73.321
X95.059Y-79.874
X95.059Y-91.321
X95.059Y-97.874
X95.059Y-109.321
X95.059Y-115.874
X97.65Y-45.5
X97.65Y-63.5
X97.65Y-81.5
X97.65Y-99.5
X97.65Y-117.5
X99.767Y-35.946
X99.767Y-53.946
X99.767Y-71.946
X99.767Y-89.946
X99.767Y-107.946
X101.765Y-45.906
X101.765Y-63.906
X101.765Y-81.906
X101.765Y-99.906
X101.765Y-117.906
X102.725Y-35.93
X102.725Y-53.93
X102.725Y-71.93
X102.725Y-89.93
X102.725Y-107.93
X102.781Y-44.128
X102.781Y-62.128
X102.781Y-80.128
X102.781Y-98.128
X102.781Y-116.128
X107.525Y-37.529
X107.525Y-55.529
X107.525Y-73.529
X107.525Y-91.529
X107.525Y-109.529
X109.274Y-40.008
X109.274Y-58.008
X109.274Y-76.008
X109.274Y-94.008
X109.274Y-112.008
X110.299Y-39.43
X110.299Y-57.43
X110.299Y-75.43
X110.299Y-93.43
X110.299Y-111.43
X110.396Y-35.33
X110.396Y-53.33
X110.396Y-71.33
X110.396Y-89.33
X110.396Y-107.33
X110.696Y-36.43
X110.696Y-54.43
X110.696Y-72.43
X110.696Y-90.43
X110.696Y-108.43
X110.796Y-37.63
X110.796Y-55.63
X110.796Y-73.63
X110.796Y-91.63
X110.796Y-109.63
X112.996Y-45.03
X112.996Y-63.03
X112.996Y-81.03
X112.996Y-99.03
X112.996Y-117.03
X115.096Y-38.13
X115.096Y-56.13
X115.096Y-74.13
X115.096Y-92.13
X115.096Y-110.13
X116.196Y-45.73
X116.196Y-63.73
X116.196Y-81.73
X116.196Y-99.73
X116.196Y-117.73
X116.328Y-35.77
X116.328Y-53.77
X116.328Y-71.77
X116.328Y-89.77
X116.328Y-107.77
X116.396Y-37.382
X116.396Y-55.382
X116.396Y-73.382
X116.396Y-91.382
X116.396Y-109.382
X117.896Y-45.33
X117.896Y-63.33
X117.896Y-81.33
X117.896Y-99.33
X117.896Y-117.33
X118.678Y-37.143
X118.678Y-55.143
X118.678Y-73.143
X118.678Y-91.143
X118.678Y-109.143
X119.697Y-39.15
X119.697Y-57.15
X119.697Y-75.15
X119.697Y-93.15
X119.697Y-111.15
X120.089Y-44.784
X120.089Y-62.784
X120.089Y-80.784
X120.089Y-98.784
X120.089Y-116.784
X120.996Y-39.43
X120.996Y-57.43
X120.996Y-75.43
X120.996Y-93.43
X120.996Y-111.43
X125.542Y-40.42
X125.542Y-58.42
X125.542Y-76.42
X125.542Y-94.42
X125.542Y-112.42
X127.523Y-45.906
X127.523Y-63.906
X127.523Y-81.906
X127.523Y-99.906
X127.523Y-117.906
X128.336Y-39.531
X128.336Y-42.325
X128.336Y-57.531
X128.336Y-60.325
X128.336Y-75.531
X128.336Y-78.325
X128.336Y-93.531
X128.336Y-96.325
X128.336Y-111.531
X128.336Y-114.325
X129.046Y-35.03
X129.046Y-53.03
X129.046Y-71.03
X129.046Y-89.03
X129.046Y-107.03
X129.809Y-37.321
X129.809Y-43.874
X129.809Y-55.321
X129.809Y-61.874
X129.809Y-73.321
X129.809Y-79.874
X129.809Y-91.321
X129.809Y-97.874
X129.809Y-109.321
X129.809Y-115.874
X132.4Y-45.5
X132.4Y-63.5
X132.4Y-81.5
X132.4Y-99.5
X132.4Y-117.5
X134.517Y-35.946
X134.517Y-53.946
X134.517Y-71.946
X134.517Y-89.946
X134.517Y-107.946
X136.515Y-45.906
X136.515Y-63.906
X136.515Y-81.906
X136.515Y-99.906
X136.515Y-117.906
X137.475Y-35.93
X137.475Y-53.93
X137.475Y-71.93
X137.475Y-89.93
X137.475Y-107.93
X137.531Y-44.128
X137.531Y-62.128
X137.531Y-80.128
X137.531Y-98.128
X137.531Y-116.128
X142.275Y-37.529
X142.275Y-55.529
X142.275Y-73.529
X142.275Y-91.529
X142.275Y-109.529
X144.024Y-40.008
X144.024Y-58.008
X144.024Y-76.008
X144.024Y-94.008
X144.024Y-112.008
X145.049Y-39.43
X145.049Y-57.43
X145.049Y-75.43
X145.049Y-93.43
X145.049Y-111.43
X145.146Y-35.33
X145.146Y-53.33
X145.146Y-71.33
X145.146Y-89.33
X145.146Y-107.33
X145.446Y-36.43
X145.446Y-54.43
X145.446Y-72.43
X145.446Y-90.43
X145.446Y-108.43
X145.546Y-37.63
X145.546Y-55.63
X145.546Y-73.63
X145.546Y-91.63
X145.546Y-109.63
X147.746Y-45.03
X147.746Y-63.03
X147.746Y-81.03
X147.746Y-99.03
X147.746Y-117.03
X149.846Y-38.13
X149.846Y-56.13
X149.846Y-74.13
X149.846Y-92.13
X149.846Y-110.13
X150.946Y-45.73
X150.946Y-63.73
X150.946Y-81.73
X150.946Y-99.73
X150.946Y-117.73
X151.078Y-35.77
X151.078Y-53.77
X151.078Y-71.77
X151.078Y-89.77
X151.078Y-107.77
X151.146Y-37.382
X151.146Y-55.382
X151.146Y-73.382
X151.146Y-91.382
X151.146Y-109.382
X152.646Y-45.33
X152.646Y-63.33
X152.646Y-81.33
X152.646Y-99.33
X152.646Y-117.33
X153.428Y-37.143
X153.428Y-55.143
X153.428Y-73.143
X153.428Y-91.143
X153.428Y-109.143
X154.447Y-39.15
X154.447Y-57.15
X154.447Y-75.15
X154.447Y-93.15
X154.447Y-111.15
X154.839Y-44.784
X154.839Y-62.784
X154.839Y-80.784
X154.839Y-98.784
X154.839Y-116.784
X155.746Y-39.43
X155.746Y-57.43
X155.746Y-75.43
X155.746Y-93.43
X155.746Y-111.43
T2
X103.873Y-38.547
X103.873Y-39.547
X103.873Y-40.547
X103.873Y-41.547
X103.873Y-42.547
X103.873Y-56.547
X103.873Y-57.547
X103.873Y-58.547
X103.873Y-59.547
X103.873Y-60.547
X103.873Y-74.547
X103.873Y-75.547
X103.873Y-76.547
X103.873Y-77.547
X103.873Y-78.547
X103.873Y-92.547
X103.873Y-93.547
X103.873Y-94.547
X103.873Y-95.547
X103.873Y-96.547
X103.873Y-110.547
X103.873Y-111.547
X103.873Y-112.547
X103.873Y-113.547
X103.873Y-114.547
X107.629Y-38.547
X107.629Y-39.547
X107.629Y-40.547
X107.629Y-41.547
X107.629Y-42.547
X107.629Y-56.547
X107.629Y-57.547
X107.629Y-58.547
X107.629Y-59.547
X107.629Y-60.547
X107.629Y-74.547
X107.629Y-75.547
X107.629Y-76.547
X107.629Y-77.547
X107.629Y-78.547
X107.629Y-92.547
X107.629Y-93.547
X107.629Y-94.547
X107.629Y-95.547
X107.629Y-96.547
X107.629Y-110.547
X107.629Y-111.547
X107.629Y-112.547
X107.629Y-113.547
X107.629Y-114.547
X138.623Y-38.547
X138.623Y-39.547
X138.623Y-40.547
X138.623Y-41.547
X138.623Y-42.547
X138.623Y-56.547
X138.623Y-57.547
X138.623Y-58.547
X138.623Y-59.547
X138.623Y-60.547
X138.623Y-74.547
X138.623Y-75.547
X138.623Y-76.547
X138.623Y-77.547
X138.623Y-78.547
X138.623Y-92.547
X138.623Y-93.547
X138.623Y-94.547
X138.623Y-95.547
X138.623Y-96.547
X138.623Y-110.547
X138.623Y-111.547
X138.623Y-112.547
X138.623Y-113.547
X138.623Y-114.547
X142.379Y-38.547
X142.379Y-39.547
X142.379Y-40.547
X142.379Y-41.547
X142.379Y-42.547
X142.379Y-56.547
X142.379Y-57.547
X142.379Y-58.547
X142.379Y-59.547
X142.379Y-60.547
X142.379Y-74.547
X142.379Y-75.547
X142.379Y-76.547
X142.379Y-77.547
X142.379Y-78.547
X142.379Y-92.547
X142.379Y-93.547
X142.379Y-94.547
X142.379Y-95.547
X142.379Y-96.547
X142.379Y-110.547
X142.379Y-111.547
X142.379Y-112.547
X142.379Y-113.547
X142.379Y-114.547
T3
X92.796Y-33.73
X92.796Y-51.73
X92.796Y-69.73
X92.796Y-87.73
X92.796Y-105.73
X94.996Y-32.73
X94.996Y-50.73
X94.996Y-68.73
X94.996Y-86.73
X94.996Y-104.73
X97.396Y-32.43
X97.396Y-50.43
X97.396Y-68.43
X97.396Y-86.43
X97.396Y-104.43
X99.796Y-32.83
X99.796Y-50.83
X99.796Y-68.83
X99.796Y-86.83
X99.796Y-104.83
X101.996Y-33.83
X101.996Y-51.83
X101.996Y-69.83
X101.996Y-87.83
X101.996Y-105.83
X109.496Y-33.93
X109.496Y-51.93
X109.496Y-69.93
X109.496Y-87.93
X109.496Y-105.93
X111.696Y-32.73
X111.696Y-50.73
X111.696Y-68.73
X111.696Y-86.73
X111.696Y-104.73
X114.135Y-32.38
X114.135Y-50.38
X114.135Y-68.38
X114.135Y-86.38
X114.135Y-104.38
X116.596Y-32.83
X116.596Y-50.83
X116.596Y-68.83
X116.596Y-86.83
X116.596Y-104.83
X118.796Y-33.83
X118.796Y-51.83
X118.796Y-69.83
X118.796Y-87.83
X118.796Y-105.83
X127.546Y-33.73
X127.546Y-51.73
X127.546Y-69.73
X127.546Y-87.73
X127.546Y-105.73
X129.746Y-32.73
X129.746Y-50.73
X129.746Y-68.73
X129.746Y-86.73
X129.746Y-104.73
X132.146Y-32.43
X132.146Y-50.43
X132.146Y-68.43
X132.146Y-86.43
X132.146Y-104.43
X134.546Y-32.83
X134.546Y-50.83
X134.546Y-68.83
X134.546Y-86.83
X134.546Y-104.83
X136.746Y-33.83
X136.746Y-51.83
X136.746Y-69.83
X136.746Y-87.83
X136.746Y-105.83
X144.246Y-33.93
X144.246Y-51.93
X144.246Y-69.93
X144.246Y-87.93
X144.246Y-105.93
X146.446Y-32.73
X146.446Y-50.73
X146.446Y-68.73
X146.446Y-86.73
X146.446Y-104.73
X148.885Y-32.38
X148.885Y-50.38
X148.885Y-68.38
X148.885Y-86.38
X148.885Y-104.38
X151.346Y-32.83
X151.346Y-50.83
X151.346Y-68.83
X151.346Y-86.83
X151.346Y-104.83
X153.546Y-33.83
X153.546Y-51.83
X153.546Y-69.83
X153.546Y-87.83
X153.546Y-105.83
M30
