%TF.GenerationSoftware,KiCad,Pcbnew,10.0.0*%
%TF.CreationDate,2026-03-28T00:54:06-07:00*%
%TF.ProjectId,Droplet,44726f70-6c65-4742-9e6b-696361645f70,rev?*%
%TF.SameCoordinates,Original*%
%TF.FileFunction,Soldermask,Bot*%
%TF.FilePolarity,Negative*%
%FSLAX46Y46*%
G04 Gerber Fmt 4.6, Leading zero omitted, Abs format (unit mm)*
G04 Created by KiCad (PCBNEW 10.0.0) date 2026-03-28 00:54:06*
%MOMM*%
%LPD*%
G01*
G04 APERTURE LIST*
%ADD10C,0.200000*%
%ADD11C,0.500000*%
%ADD12C,1.879600*%
%ADD13R,0.850000X0.850000*%
%ADD14C,0.850000*%
%ADD15C,1.500000*%
%ADD16C,4.000000*%
G04 APERTURE END LIST*
D10*
X111546000Y-36680000D02*
X116646000Y-36680000D01*
X116646000Y-44380000D01*
X111546000Y-44380000D01*
X111546000Y-36680000D01*
G36*
X111546000Y-36680000D02*
G01*
X116646000Y-36680000D01*
X116646000Y-44380000D01*
X111546000Y-44380000D01*
X111546000Y-36680000D01*
G37*
X111546000Y-54680000D02*
X116646000Y-54680000D01*
X116646000Y-62380000D01*
X111546000Y-62380000D01*
X111546000Y-54680000D01*
G36*
X111546000Y-54680000D02*
G01*
X116646000Y-54680000D01*
X116646000Y-62380000D01*
X111546000Y-62380000D01*
X111546000Y-54680000D01*
G37*
X111546000Y-72680000D02*
X116646000Y-72680000D01*
X116646000Y-80380000D01*
X111546000Y-80380000D01*
X111546000Y-72680000D01*
G36*
X111546000Y-72680000D02*
G01*
X116646000Y-72680000D01*
X116646000Y-80380000D01*
X111546000Y-80380000D01*
X111546000Y-72680000D01*
G37*
X111546000Y-90680000D02*
X116646000Y-90680000D01*
X116646000Y-98380000D01*
X111546000Y-98380000D01*
X111546000Y-90680000D01*
G36*
X111546000Y-90680000D02*
G01*
X116646000Y-90680000D01*
X116646000Y-98380000D01*
X111546000Y-98380000D01*
X111546000Y-90680000D01*
G37*
X111546000Y-108680000D02*
X116646000Y-108680000D01*
X116646000Y-116380000D01*
X111546000Y-116380000D01*
X111546000Y-108680000D01*
G36*
X111546000Y-108680000D02*
G01*
X116646000Y-108680000D01*
X116646000Y-116380000D01*
X111546000Y-116380000D01*
X111546000Y-108680000D01*
G37*
X146296000Y-36680000D02*
X151396000Y-36680000D01*
X151396000Y-44380000D01*
X146296000Y-44380000D01*
X146296000Y-36680000D01*
G36*
X146296000Y-36680000D02*
G01*
X151396000Y-36680000D01*
X151396000Y-44380000D01*
X146296000Y-44380000D01*
X146296000Y-36680000D01*
G37*
X146296000Y-54680000D02*
X151396000Y-54680000D01*
X151396000Y-62380000D01*
X146296000Y-62380000D01*
X146296000Y-54680000D01*
G36*
X146296000Y-54680000D02*
G01*
X151396000Y-54680000D01*
X151396000Y-62380000D01*
X146296000Y-62380000D01*
X146296000Y-54680000D01*
G37*
X146296000Y-72680000D02*
X151396000Y-72680000D01*
X151396000Y-80380000D01*
X146296000Y-80380000D01*
X146296000Y-72680000D01*
G36*
X146296000Y-72680000D02*
G01*
X151396000Y-72680000D01*
X151396000Y-80380000D01*
X146296000Y-80380000D01*
X146296000Y-72680000D01*
G37*
X146296000Y-90680000D02*
X151396000Y-90680000D01*
X151396000Y-98380000D01*
X146296000Y-98380000D01*
X146296000Y-90680000D01*
G36*
X146296000Y-90680000D02*
G01*
X151396000Y-90680000D01*
X151396000Y-98380000D01*
X146296000Y-98380000D01*
X146296000Y-90680000D01*
G37*
X146296000Y-108680000D02*
X151396000Y-108680000D01*
X151396000Y-116380000D01*
X146296000Y-116380000D01*
X146296000Y-108680000D01*
G36*
X146296000Y-108680000D02*
G01*
X151396000Y-108680000D01*
X151396000Y-116380000D01*
X146296000Y-116380000D01*
X146296000Y-108680000D01*
G37*
D11*
%TO.C,REF\u002A\u002A*%
X104989825Y-79097000D03*
X106489825Y-79097000D03*
X104989825Y-78247000D03*
X106489825Y-78247000D03*
X104989825Y-76547000D03*
X106489825Y-76547000D03*
X104989825Y-74847000D03*
X106489825Y-74847000D03*
X104989825Y-73997000D03*
X106489825Y-73997000D03*
%TD*%
D12*
%TO.C,J4*%
X146446000Y-50730000D03*
%TD*%
D11*
%TO.C,REF\u002A\u002A*%
X123836825Y-77397000D03*
X123836825Y-76547000D03*
X123836825Y-75697000D03*
%TD*%
D12*
%TO.C,J10*%
X134546000Y-50830000D03*
%TD*%
%TO.C,J5*%
X109496000Y-87930000D03*
%TD*%
%TO.C,J11*%
X97396000Y-68430000D03*
%TD*%
%TO.C,J8*%
X94996000Y-86730000D03*
%TD*%
%TO.C,J7*%
X153546000Y-33830000D03*
%TD*%
%TO.C,J9*%
X101996000Y-105830000D03*
%TD*%
%TO.C,J9*%
X101996000Y-69830000D03*
%TD*%
D11*
%TO.C,REF\u002A\u002A*%
X122229825Y-93697000D03*
X122229825Y-94547000D03*
X122229825Y-95397000D03*
%TD*%
D12*
%TO.C,J10*%
X99796000Y-104830000D03*
%TD*%
%TO.C,J7*%
X118796000Y-51830000D03*
%TD*%
%TO.C,J4*%
X111696000Y-50730000D03*
%TD*%
%TO.C,J7*%
X153546000Y-69830000D03*
%TD*%
D13*
%TO.C,J2*%
X142378825Y-114547001D03*
D14*
X142378825Y-113547001D03*
X142378825Y-112547001D03*
X142378825Y-111547001D03*
X142378825Y-110547001D03*
%TD*%
D12*
%TO.C,J8*%
X129746000Y-50730000D03*
%TD*%
D13*
%TO.C,J2*%
X107628825Y-42547001D03*
D14*
X107628825Y-41547001D03*
X107628825Y-40547001D03*
X107628825Y-39547001D03*
X107628825Y-38547001D03*
%TD*%
D12*
%TO.C,J7*%
X118796000Y-105830000D03*
%TD*%
%TO.C,J8*%
X129746000Y-68730000D03*
%TD*%
%TO.C,J9*%
X136746000Y-51830000D03*
%TD*%
D13*
%TO.C,J2*%
X107628825Y-78547001D03*
D14*
X107628825Y-77547001D03*
X107628825Y-76547001D03*
X107628825Y-75547001D03*
X107628825Y-74547001D03*
%TD*%
D12*
%TO.C,J4*%
X111696000Y-68730000D03*
%TD*%
%TO.C,J3*%
X114134600Y-86380000D03*
%TD*%
%TO.C,J3*%
X114134600Y-68380000D03*
%TD*%
D13*
%TO.C,J2*%
X142378825Y-60547001D03*
D14*
X142378825Y-59547001D03*
X142378825Y-58547001D03*
X142378825Y-57547001D03*
X142378825Y-56547001D03*
%TD*%
D13*
%TO.C,J2*%
X107628825Y-96547001D03*
D14*
X107628825Y-95547001D03*
X107628825Y-94547001D03*
X107628825Y-93547001D03*
X107628825Y-92547001D03*
%TD*%
D12*
%TO.C,J8*%
X129746000Y-104730000D03*
%TD*%
%TO.C,J12*%
X92796000Y-105730000D03*
%TD*%
%TO.C,J10*%
X134546000Y-32830000D03*
%TD*%
%TO.C,J11*%
X97396000Y-104430000D03*
%TD*%
%TO.C,J3*%
X148884600Y-86380000D03*
%TD*%
D11*
%TO.C,REF\u002A\u002A*%
X104989825Y-61097000D03*
X106489825Y-61097000D03*
X104989825Y-60247000D03*
X106489825Y-60247000D03*
X104989825Y-58547000D03*
X106489825Y-58547000D03*
X104989825Y-56847000D03*
X106489825Y-56847000D03*
X104989825Y-55997000D03*
X106489825Y-55997000D03*
%TD*%
D12*
%TO.C,J5*%
X144246000Y-51930000D03*
%TD*%
D11*
%TO.C,REF\u002A\u002A*%
X104989825Y-115097000D03*
X106489825Y-115097000D03*
X104989825Y-114247000D03*
X106489825Y-114247000D03*
X104989825Y-112547000D03*
X106489825Y-112547000D03*
X104989825Y-110847000D03*
X106489825Y-110847000D03*
X104989825Y-109997000D03*
X106489825Y-109997000D03*
%TD*%
D12*
%TO.C,J5*%
X109496000Y-105930000D03*
%TD*%
%TO.C,J4*%
X146446000Y-68730000D03*
%TD*%
%TO.C,J7*%
X118796000Y-33830000D03*
%TD*%
D11*
%TO.C,REF\u002A\u002A*%
X104989825Y-43097000D03*
X106489825Y-43097000D03*
X104989825Y-42247000D03*
X106489825Y-42247000D03*
X104989825Y-40547000D03*
X106489825Y-40547000D03*
X104989825Y-38847000D03*
X106489825Y-38847000D03*
X104989825Y-37997000D03*
X106489825Y-37997000D03*
%TD*%
%TO.C,REF\u002A\u002A*%
X156979825Y-39697000D03*
X156979825Y-40547000D03*
X156979825Y-41397000D03*
%TD*%
D12*
%TO.C,J5*%
X144246000Y-69930000D03*
%TD*%
%TO.C,J12*%
X92796000Y-87730000D03*
%TD*%
D11*
%TO.C,REF\u002A\u002A*%
X89086825Y-77397000D03*
X89086825Y-76547000D03*
X89086825Y-75697000D03*
%TD*%
%TO.C,REF\u002A\u002A*%
X156979825Y-57697000D03*
X156979825Y-58547000D03*
X156979825Y-59397000D03*
%TD*%
D12*
%TO.C,J6*%
X116596000Y-32830000D03*
%TD*%
%TO.C,J10*%
X134546000Y-68830000D03*
%TD*%
%TO.C,J11*%
X132146000Y-68430000D03*
%TD*%
D11*
%TO.C,REF\u002A\u002A*%
X156979825Y-111697000D03*
X156979825Y-112547000D03*
X156979825Y-113397000D03*
%TD*%
D12*
%TO.C,J4*%
X146446000Y-86730000D03*
%TD*%
%TO.C,J12*%
X127546000Y-51730000D03*
%TD*%
%TO.C,J8*%
X94996000Y-50730000D03*
%TD*%
%TO.C,J5*%
X144246000Y-87930000D03*
%TD*%
D11*
%TO.C,REF\u002A\u002A*%
X123836825Y-59397000D03*
X123836825Y-58547000D03*
X123836825Y-57697000D03*
%TD*%
D12*
%TO.C,J10*%
X99796000Y-32830000D03*
%TD*%
%TO.C,J11*%
X97396000Y-50430000D03*
%TD*%
D11*
%TO.C,REF\u002A\u002A*%
X139739825Y-61097000D03*
X141239825Y-61097000D03*
X139739825Y-60247000D03*
X141239825Y-60247000D03*
X139739825Y-58547000D03*
X141239825Y-58547000D03*
X139739825Y-56847000D03*
X141239825Y-56847000D03*
X139739825Y-55997000D03*
X141239825Y-55997000D03*
%TD*%
D12*
%TO.C,J12*%
X127546000Y-87730000D03*
%TD*%
D11*
%TO.C,REF\u002A\u002A*%
X139739825Y-79097000D03*
X141239825Y-79097000D03*
X139739825Y-78247000D03*
X141239825Y-78247000D03*
X139739825Y-76547000D03*
X141239825Y-76547000D03*
X139739825Y-74847000D03*
X141239825Y-74847000D03*
X139739825Y-73997000D03*
X141239825Y-73997000D03*
%TD*%
D12*
%TO.C,J10*%
X134546000Y-104830000D03*
%TD*%
D11*
%TO.C,REF\u002A\u002A*%
X156979825Y-93697000D03*
X156979825Y-94547000D03*
X156979825Y-95397000D03*
%TD*%
D12*
%TO.C,J6*%
X151346000Y-86830000D03*
%TD*%
%TO.C,J8*%
X94996000Y-104730000D03*
%TD*%
D13*
%TO.C,J2*%
X142378825Y-42547001D03*
D14*
X142378825Y-41547001D03*
X142378825Y-40547001D03*
X142378825Y-39547001D03*
X142378825Y-38547001D03*
%TD*%
D11*
%TO.C,REF\u002A\u002A*%
X139739825Y-115097000D03*
X141239825Y-115097000D03*
X139739825Y-114247000D03*
X141239825Y-114247000D03*
X139739825Y-112547000D03*
X141239825Y-112547000D03*
X139739825Y-110847000D03*
X141239825Y-110847000D03*
X139739825Y-109997000D03*
X141239825Y-109997000D03*
%TD*%
D12*
%TO.C,J12*%
X92796000Y-69730000D03*
%TD*%
%TO.C,J12*%
X127546000Y-105730000D03*
%TD*%
%TO.C,J8*%
X94996000Y-32730000D03*
%TD*%
%TO.C,J11*%
X132146000Y-104430000D03*
%TD*%
D11*
%TO.C,REF\u002A\u002A*%
X122229825Y-57697000D03*
X122229825Y-58547000D03*
X122229825Y-59397000D03*
%TD*%
D12*
%TO.C,J4*%
X111696000Y-104730000D03*
%TD*%
%TO.C,J10*%
X99796000Y-50830000D03*
%TD*%
%TO.C,J5*%
X109496000Y-51930000D03*
%TD*%
%TO.C,J8*%
X94996000Y-68730000D03*
%TD*%
%TO.C,J11*%
X97396000Y-86430000D03*
%TD*%
%TO.C,J12*%
X127546000Y-69730000D03*
%TD*%
%TO.C,J11*%
X132146000Y-50430000D03*
%TD*%
D13*
%TO.C,J2*%
X142378825Y-96547001D03*
D14*
X142378825Y-95547001D03*
X142378825Y-94547001D03*
X142378825Y-93547001D03*
X142378825Y-92547001D03*
%TD*%
D11*
%TO.C,REF\u002A\u002A*%
X122229825Y-39697000D03*
X122229825Y-40547000D03*
X122229825Y-41397000D03*
%TD*%
D12*
%TO.C,J3*%
X148884600Y-32380000D03*
%TD*%
%TO.C,J6*%
X116596000Y-68830000D03*
%TD*%
%TO.C,J10*%
X99796000Y-68830000D03*
%TD*%
%TO.C,J11*%
X132146000Y-86430000D03*
%TD*%
D11*
%TO.C,REF\u002A\u002A*%
X89086825Y-59397000D03*
X89086825Y-58547000D03*
X89086825Y-57697000D03*
%TD*%
D12*
%TO.C,J12*%
X92796000Y-33730000D03*
%TD*%
%TO.C,J3*%
X114134600Y-50380000D03*
%TD*%
%TO.C,J4*%
X146446000Y-104730000D03*
%TD*%
D11*
%TO.C,REF\u002A\u002A*%
X89086825Y-95397000D03*
X89086825Y-94547000D03*
X89086825Y-93697000D03*
%TD*%
D12*
%TO.C,J10*%
X134546000Y-86830000D03*
%TD*%
%TO.C,J7*%
X153546000Y-51830000D03*
%TD*%
%TO.C,J11*%
X132146000Y-32430000D03*
%TD*%
D11*
%TO.C,REF\u002A\u002A*%
X123836825Y-41397000D03*
X123836825Y-40547000D03*
X123836825Y-39697000D03*
%TD*%
D12*
%TO.C,J6*%
X116596000Y-86830000D03*
%TD*%
%TO.C,J5*%
X144246000Y-105930000D03*
%TD*%
%TO.C,J6*%
X151346000Y-50830000D03*
%TD*%
%TO.C,J9*%
X101996000Y-87830000D03*
%TD*%
%TO.C,J7*%
X118796000Y-69830000D03*
%TD*%
%TO.C,J6*%
X151346000Y-104830000D03*
%TD*%
D11*
%TO.C,REF\u002A\u002A*%
X89086825Y-41397000D03*
X89086825Y-40547000D03*
X89086825Y-39697000D03*
%TD*%
D13*
%TO.C,J2*%
X107628825Y-60547001D03*
D14*
X107628825Y-59547001D03*
X107628825Y-58547001D03*
X107628825Y-57547001D03*
X107628825Y-56547001D03*
%TD*%
D11*
%TO.C,REF\u002A\u002A*%
X123836825Y-113397000D03*
X123836825Y-112547000D03*
X123836825Y-111697000D03*
%TD*%
D12*
%TO.C,J9*%
X136746000Y-33830000D03*
%TD*%
%TO.C,J3*%
X114134600Y-32380000D03*
%TD*%
%TO.C,J3*%
X148884600Y-50380000D03*
%TD*%
D13*
%TO.C,J2*%
X107628825Y-114547001D03*
D14*
X107628825Y-113547001D03*
X107628825Y-112547001D03*
X107628825Y-111547001D03*
X107628825Y-110547001D03*
%TD*%
D11*
%TO.C,REF\u002A\u002A*%
X156979825Y-75697000D03*
X156979825Y-76547000D03*
X156979825Y-77397000D03*
%TD*%
D12*
%TO.C,J12*%
X127546000Y-33730000D03*
%TD*%
%TO.C,J7*%
X153546000Y-87830000D03*
%TD*%
%TO.C,J5*%
X109496000Y-69930000D03*
%TD*%
%TO.C,J7*%
X153546000Y-105830000D03*
%TD*%
%TO.C,J9*%
X101996000Y-51830000D03*
%TD*%
%TO.C,J3*%
X148884600Y-68380000D03*
%TD*%
D13*
%TO.C,J2*%
X142378825Y-78547001D03*
D14*
X142378825Y-77547001D03*
X142378825Y-76547001D03*
X142378825Y-75547001D03*
X142378825Y-74547001D03*
%TD*%
D12*
%TO.C,J9*%
X136746000Y-69830000D03*
%TD*%
%TO.C,J5*%
X144246000Y-33930000D03*
%TD*%
%TO.C,J12*%
X92796000Y-51730000D03*
%TD*%
%TO.C,J3*%
X114134600Y-104380000D03*
%TD*%
%TO.C,J7*%
X118796000Y-87830000D03*
%TD*%
D11*
%TO.C,REF\u002A\u002A*%
X123836825Y-95397000D03*
X123836825Y-94547000D03*
X123836825Y-93697000D03*
%TD*%
D12*
%TO.C,J8*%
X129746000Y-32730000D03*
%TD*%
D11*
%TO.C,REF\u002A\u002A*%
X122229825Y-75697000D03*
X122229825Y-76547000D03*
X122229825Y-77397000D03*
%TD*%
D12*
%TO.C,J5*%
X109496000Y-33930000D03*
%TD*%
D11*
%TO.C,REF\u002A\u002A*%
X104989825Y-97097000D03*
X106489825Y-97097000D03*
X104989825Y-96247000D03*
X106489825Y-96247000D03*
X104989825Y-94547000D03*
X106489825Y-94547000D03*
X104989825Y-92847000D03*
X106489825Y-92847000D03*
X104989825Y-91997000D03*
X106489825Y-91997000D03*
%TD*%
%TO.C,REF\u002A\u002A*%
X139739825Y-43097000D03*
X141239825Y-43097000D03*
X139739825Y-42247000D03*
X141239825Y-42247000D03*
X139739825Y-40547000D03*
X141239825Y-40547000D03*
X139739825Y-38847000D03*
X141239825Y-38847000D03*
X139739825Y-37997000D03*
X141239825Y-37997000D03*
%TD*%
D12*
%TO.C,J4*%
X146446000Y-32730000D03*
%TD*%
%TO.C,J4*%
X111696000Y-32730000D03*
%TD*%
%TO.C,J6*%
X151346000Y-68830000D03*
%TD*%
%TO.C,J9*%
X136746000Y-105830000D03*
%TD*%
%TO.C,J9*%
X101996000Y-33830000D03*
%TD*%
D11*
%TO.C,REF\u002A\u002A*%
X122229825Y-111697000D03*
X122229825Y-112547000D03*
X122229825Y-113397000D03*
%TD*%
D12*
%TO.C,J6*%
X116596000Y-50830000D03*
%TD*%
%TO.C,J6*%
X116596000Y-104830000D03*
%TD*%
%TO.C,J4*%
X111696000Y-86730000D03*
%TD*%
D11*
%TO.C,REF\u002A\u002A*%
X139739825Y-97097000D03*
X141239825Y-97097000D03*
X139739825Y-96247000D03*
X141239825Y-96247000D03*
X139739825Y-94547000D03*
X141239825Y-94547000D03*
X139739825Y-92847000D03*
X141239825Y-92847000D03*
X139739825Y-91997000D03*
X141239825Y-91997000D03*
%TD*%
%TO.C,REF\u002A\u002A*%
X89086825Y-113397000D03*
X89086825Y-112547000D03*
X89086825Y-111697000D03*
%TD*%
D12*
%TO.C,J10*%
X99796000Y-86830000D03*
%TD*%
%TO.C,J11*%
X97396000Y-32430000D03*
%TD*%
%TO.C,J6*%
X151346000Y-32830000D03*
%TD*%
%TO.C,J9*%
X136746000Y-87830000D03*
%TD*%
%TO.C,J8*%
X129746000Y-86730000D03*
%TD*%
%TO.C,J3*%
X148884600Y-104380000D03*
%TD*%
D13*
%TO.C,J1*%
X103873000Y-78547000D03*
D14*
X103873000Y-77547000D03*
X103873000Y-76547000D03*
X103873000Y-75547000D03*
X103873000Y-74547000D03*
%TD*%
D15*
%TO.C,TP4*%
X120408400Y-94547000D03*
%TD*%
%TO.C,TP4*%
X120408400Y-40547000D03*
%TD*%
D16*
%TO.C,TP1*%
X97345200Y-112547000D03*
%TD*%
D15*
%TO.C,TP5*%
X155158400Y-43112400D03*
%TD*%
D13*
%TO.C,J1*%
X138623000Y-114547000D03*
D14*
X138623000Y-113547000D03*
X138623000Y-112547000D03*
X138623000Y-111547000D03*
X138623000Y-110547000D03*
%TD*%
D15*
%TO.C,TP5*%
X120408400Y-115112400D03*
%TD*%
D16*
%TO.C,TP1*%
X132095200Y-112547000D03*
%TD*%
%TO.C,TP2*%
X114096000Y-94530000D03*
%TD*%
D15*
%TO.C,TP5*%
X120408400Y-97112400D03*
%TD*%
D16*
%TO.C,TP2*%
X148846000Y-94530000D03*
%TD*%
D15*
%TO.C,TP5*%
X120408400Y-61112400D03*
%TD*%
%TO.C,TP5*%
X120408400Y-79112400D03*
%TD*%
%TO.C,TP4*%
X155158400Y-40547000D03*
%TD*%
%TO.C,TP3*%
X120459200Y-74032400D03*
%TD*%
D16*
%TO.C,TP1*%
X97345200Y-94547000D03*
%TD*%
D13*
%TO.C,J1*%
X103873000Y-96547000D03*
D14*
X103873000Y-95547000D03*
X103873000Y-94547000D03*
X103873000Y-93547000D03*
X103873000Y-92547000D03*
%TD*%
D16*
%TO.C,TP1*%
X132095200Y-40547000D03*
%TD*%
D13*
%TO.C,J1*%
X138623000Y-42547000D03*
D14*
X138623000Y-41547000D03*
X138623000Y-40547000D03*
X138623000Y-39547000D03*
X138623000Y-38547000D03*
%TD*%
D16*
%TO.C,TP1*%
X97345200Y-76547000D03*
%TD*%
%TO.C,TP2*%
X114096000Y-58530000D03*
%TD*%
%TO.C,TP2*%
X114096000Y-76530000D03*
%TD*%
D15*
%TO.C,TP3*%
X120459200Y-56032400D03*
%TD*%
%TO.C,TP4*%
X120408400Y-76547000D03*
%TD*%
D16*
%TO.C,TP2*%
X114096000Y-40530000D03*
%TD*%
D15*
%TO.C,TP4*%
X120408400Y-58547000D03*
%TD*%
D16*
%TO.C,TP1*%
X132095200Y-76547000D03*
%TD*%
D15*
%TO.C,TP5*%
X155158400Y-79112400D03*
%TD*%
%TO.C,TP4*%
X155158400Y-112547000D03*
%TD*%
D16*
%TO.C,TP1*%
X132095200Y-58547000D03*
%TD*%
D13*
%TO.C,J1*%
X103873000Y-60547000D03*
D14*
X103873000Y-59547000D03*
X103873000Y-58547000D03*
X103873000Y-57547000D03*
X103873000Y-56547000D03*
%TD*%
D15*
%TO.C,TP3*%
X155209200Y-38032400D03*
%TD*%
D16*
%TO.C,TP1*%
X97345200Y-40547000D03*
%TD*%
D15*
%TO.C,TP3*%
X155209200Y-74032400D03*
%TD*%
%TO.C,TP5*%
X155158400Y-115112400D03*
%TD*%
%TO.C,TP3*%
X155209200Y-92032400D03*
%TD*%
%TO.C,TP4*%
X155158400Y-58547000D03*
%TD*%
D16*
%TO.C,TP2*%
X148846000Y-58530000D03*
%TD*%
D15*
%TO.C,TP4*%
X120408400Y-112547000D03*
%TD*%
D13*
%TO.C,J1*%
X138623000Y-60547000D03*
D14*
X138623000Y-59547000D03*
X138623000Y-58547000D03*
X138623000Y-57547000D03*
X138623000Y-56547000D03*
%TD*%
D15*
%TO.C,TP3*%
X155209200Y-110032400D03*
%TD*%
D16*
%TO.C,TP2*%
X148846000Y-112530000D03*
%TD*%
D13*
%TO.C,J1*%
X138623000Y-96547000D03*
D14*
X138623000Y-95547000D03*
X138623000Y-94547000D03*
X138623000Y-93547000D03*
X138623000Y-92547000D03*
%TD*%
D16*
%TO.C,TP1*%
X132095200Y-94547000D03*
%TD*%
D15*
%TO.C,TP5*%
X155158400Y-97112400D03*
%TD*%
D16*
%TO.C,TP2*%
X114096000Y-112530000D03*
%TD*%
%TO.C,TP2*%
X148846000Y-76530000D03*
%TD*%
D15*
%TO.C,TP3*%
X155209200Y-56032400D03*
%TD*%
%TO.C,TP3*%
X120459200Y-92032400D03*
%TD*%
%TO.C,TP5*%
X120408400Y-43112400D03*
%TD*%
%TO.C,TP4*%
X155158400Y-76547000D03*
%TD*%
%TO.C,TP5*%
X155158400Y-61112400D03*
%TD*%
D13*
%TO.C,J1*%
X103873000Y-114547000D03*
D14*
X103873000Y-113547000D03*
X103873000Y-112547000D03*
X103873000Y-111547000D03*
X103873000Y-110547000D03*
%TD*%
D13*
%TO.C,J1*%
X103873000Y-42547000D03*
D14*
X103873000Y-41547000D03*
X103873000Y-40547000D03*
X103873000Y-39547000D03*
X103873000Y-38547000D03*
%TD*%
D13*
%TO.C,J1*%
X138623000Y-78547000D03*
D14*
X138623000Y-77547000D03*
X138623000Y-76547000D03*
X138623000Y-75547000D03*
X138623000Y-74547000D03*
%TD*%
D15*
%TO.C,TP4*%
X155158400Y-94547000D03*
%TD*%
D16*
%TO.C,TP1*%
X97345200Y-58547000D03*
%TD*%
%TO.C,TP2*%
X148846000Y-40530000D03*
%TD*%
D15*
%TO.C,TP3*%
X120459200Y-38032400D03*
%TD*%
%TO.C,TP3*%
X120459200Y-110032400D03*
%TD*%
M02*
