M48
; DRILL file KiCad 10.0.0 date 2026-03-28T00:54:03
; FORMAT={-:-/ absolute / metric / decimal}
; #@! TF.CreationDate,2026-03-28T00:54:03-07:00
; #@! TF.GenerationSoftware,Kicad,Pcbnew,10.0.0
; #@! TF.FileFunction,NonPlated,1,2,NPTH
FMAT,2
METRIC
; #@! TA.AperFunction,NonPlated,NPTH,ComponentDrill
T1C0.500
%
G90
G05
T1
X89.087Y-39.697
X89.087Y-40.547
X89.087Y-41.397
X89.087Y-57.697
X89.087Y-58.547
X89.087Y-59.397
X89.087Y-75.697
X89.087Y-76.547
X89.087Y-77.397
X89.087Y-93.697
X89.087Y-94.547
X89.087Y-95.397
X89.087Y-111.697
X89.087Y-112.547
X89.087Y-113.397
X104.99Y-37.997
X104.99Y-38.847
X104.99Y-40.547
X104.99Y-42.247
X104.99Y-43.097
X104.99Y-55.997
X104.99Y-56.847
X104.99Y-58.547
X104.99Y-60.247
X104.99Y-61.097
X104.99Y-73.997
X104.99Y-74.847
X104.99Y-76.547
X104.99Y-78.247
X104.99Y-79.097
X104.99Y-91.997
X104.99Y-92.847
X104.99Y-94.547
X104.99Y-96.247
X104.99Y-97.097
X104.99Y-109.997
X104.99Y-110.847
X104.99Y-112.547
X104.99Y-114.247
X104.99Y-115.097
X106.49Y-37.997
X106.49Y-38.847
X106.49Y-40.547
X106.49Y-42.247
X106.49Y-43.097
X106.49Y-55.997
X106.49Y-56.847
X106.49Y-58.547
X106.49Y-60.247
X106.49Y-61.097
X106.49Y-73.997
X106.49Y-74.847
X106.49Y-76.547
X106.49Y-78.247
X106.49Y-79.097
X106.49Y-91.997
X106.49Y-92.847
X106.49Y-94.547
X106.49Y-96.247
X106.49Y-97.097
X106.49Y-109.997
X106.49Y-110.847
X106.49Y-112.547
X106.49Y-114.247
X106.49Y-115.097
X122.23Y-39.697
X122.23Y-40.547
X122.23Y-41.397
X122.23Y-57.697
X122.23Y-58.547
X122.23Y-59.397
X122.23Y-75.697
X122.23Y-76.547
X122.23Y-77.397
X122.23Y-93.697
X122.23Y-94.547
X122.23Y-95.397
X122.23Y-111.697
X122.23Y-112.547
X122.23Y-113.397
X123.837Y-39.697
X123.837Y-40.547
X123.837Y-41.397
X123.837Y-57.697
X123.837Y-58.547
X123.837Y-59.397
X123.837Y-75.697
X123.837Y-76.547
X123.837Y-77.397
X123.837Y-93.697
X123.837Y-94.547
X123.837Y-95.397
X123.837Y-111.697
X123.837Y-112.547
X123.837Y-113.397
X139.74Y-37.997
X139.74Y-38.847
X139.74Y-40.547
X139.74Y-42.247
X139.74Y-43.097
X139.74Y-55.997
X139.74Y-56.847
X139.74Y-58.547
X139.74Y-60.247
X139.74Y-61.097
X139.74Y-73.997
X139.74Y-74.847
X139.74Y-76.547
X139.74Y-78.247
X139.74Y-79.097
X139.74Y-91.997
X139.74Y-92.847
X139.74Y-94.547
X139.74Y-96.247
X139.74Y-97.097
X139.74Y-109.997
X139.74Y-110.847
X139.74Y-112.547
X139.74Y-114.247
X139.74Y-115.097
X141.24Y-37.997
X141.24Y-38.847
X141.24Y-40.547
X141.24Y-42.247
X141.24Y-43.097
X141.24Y-55.997
X141.24Y-56.847
X141.24Y-58.547
X141.24Y-60.247
X141.24Y-61.097
X141.24Y-73.997
X141.24Y-74.847
X141.24Y-76.547
X141.24Y-78.247
X141.24Y-79.097
X141.24Y-91.997
X141.24Y-92.847
X141.24Y-94.547
X141.24Y-96.247
X141.24Y-97.097
X141.24Y-109.997
X141.24Y-110.847
X141.24Y-112.547
X141.24Y-114.247
X141.24Y-115.097
X156.98Y-39.697
X156.98Y-40.547
X156.98Y-41.397
X156.98Y-57.697
X156.98Y-58.547
X156.98Y-59.397
X156.98Y-75.697
X156.98Y-76.547
X156.98Y-77.397
X156.98Y-93.697
X156.98Y-94.547
X156.98Y-95.397
X156.98Y-111.697
X156.98Y-112.547
X156.98Y-113.397
M30
