%TF.GenerationSoftware,KiCad,Pcbnew,10.0.0*%
%TF.CreationDate,2026-03-28T00:54:06-07:00*%
%TF.ProjectId,Droplet,44726f70-6c65-4742-9e6b-696361645f70,rev?*%
%TF.SameCoordinates,Original*%
%TF.FileFunction,Paste,Top*%
%TF.FilePolarity,Positive*%
%FSLAX46Y46*%
G04 Gerber Fmt 4.6, Leading zero omitted, Abs format (unit mm)*
G04 Created by KiCad (PCBNEW 10.0.0) date 2026-03-28 00:54:06*
%MOMM*%
%LPD*%
G01*
G04 APERTURE LIST*
G04 Aperture macros list*
%AMRoundRect*
0 Rectangle with rounded corners*
0 $1 Rounding radius*
0 $2 $3 $4 $5 $6 $7 $8 $9 X,Y pos of 4 corners*
0 Add a 4 corners polygon primitive as box body*
4,1,4,$2,$3,$4,$5,$6,$7,$8,$9,$2,$3,0*
0 Add four circle primitives for the rounded corners*
1,1,$1+$1,$2,$3*
1,1,$1+$1,$4,$5*
1,1,$1+$1,$6,$7*
1,1,$1+$1,$8,$9*
0 Add four rect primitives between the rounded corners*
20,1,$1+$1,$2,$3,$4,$5,0*
20,1,$1+$1,$4,$5,$6,$7,0*
20,1,$1+$1,$6,$7,$8,$9,0*
20,1,$1+$1,$8,$9,$2,$3,0*%
G04 Aperture macros list end*
%ADD10RoundRect,0.275000X-0.275000X0.475000X-0.275000X-0.475000X0.275000X-0.475000X0.275000X0.475000X0*%
%ADD11RoundRect,0.135000X0.135000X0.185000X-0.135000X0.185000X-0.135000X-0.185000X0.135000X-0.185000X0*%
%ADD12RoundRect,0.135000X-0.185000X0.135000X-0.185000X-0.135000X0.185000X-0.135000X0.185000X0.135000X0*%
%ADD13RoundRect,0.140000X0.140000X0.170000X-0.140000X0.170000X-0.140000X-0.170000X0.140000X-0.170000X0*%
%ADD14RoundRect,0.135000X0.185000X-0.135000X0.185000X0.135000X-0.185000X0.135000X-0.185000X-0.135000X0*%
%ADD15RoundRect,0.135000X-0.135000X-0.185000X0.135000X-0.185000X0.135000X0.185000X-0.135000X0.185000X0*%
%ADD16RoundRect,0.140000X-0.219203X-0.021213X-0.021213X-0.219203X0.219203X0.021213X0.021213X0.219203X0*%
%ADD17R,1.100000X0.540000*%
%ADD18RoundRect,0.150000X-0.150000X0.825000X-0.150000X-0.825000X0.150000X-0.825000X0.150000X0.825000X0*%
G04 APERTURE END LIST*
D10*
%TO.C,U2*%
X120201824Y-73382498D03*
X117661824Y-73382498D03*
X117661824Y-79682498D03*
X120201824Y-79682498D03*
%TD*%
%TO.C,U2*%
X154951824Y-73382498D03*
X152411824Y-73382498D03*
X152411824Y-79682498D03*
X154951824Y-79682498D03*
%TD*%
D11*
%TO.C,R4*%
X147337200Y-101176400D03*
X146317200Y-101176400D03*
%TD*%
D12*
%TO.C,R3*%
X108826000Y-62024800D03*
X108826000Y-63044800D03*
%TD*%
%TO.C,R2*%
X144046000Y-78020000D03*
X144046000Y-79040000D03*
%TD*%
D13*
%TO.C,C2*%
X119576000Y-117230000D03*
X118616000Y-117230000D03*
%TD*%
D11*
%TO.C,R4*%
X112587200Y-83176400D03*
X111567200Y-83176400D03*
%TD*%
D14*
%TO.C,R1*%
X110196000Y-59040000D03*
X110196000Y-58020000D03*
%TD*%
D15*
%TO.C,R8*%
X101015460Y-74743600D03*
X102035460Y-74743600D03*
%TD*%
D13*
%TO.C,C2*%
X119576000Y-63230000D03*
X118616000Y-63230000D03*
%TD*%
D16*
%TO.C,C1*%
X116792389Y-53025989D03*
X117471211Y-53704811D03*
%TD*%
D17*
%TO.C,D2*%
X95085200Y-42347000D03*
X99605200Y-42347000D03*
X95085200Y-41147000D03*
X99605200Y-41147000D03*
X95085200Y-39947000D03*
X99605200Y-39947000D03*
X95085200Y-38747000D03*
X99605200Y-38747000D03*
%TD*%
%TO.C,D1*%
X149718824Y-78161498D03*
X145198824Y-78161498D03*
X149718824Y-79361498D03*
X145198824Y-79361498D03*
X149718824Y-80561498D03*
X145198824Y-80561498D03*
X149718824Y-81761498D03*
X145198824Y-81761498D03*
%TD*%
D14*
%TO.C,R1*%
X110196000Y-41040000D03*
X110196000Y-40020000D03*
%TD*%
%TO.C,R1*%
X144946000Y-95040000D03*
X144946000Y-94020000D03*
%TD*%
D15*
%TO.C,R7*%
X135759817Y-39952241D03*
X136779817Y-39952241D03*
%TD*%
%TO.C,R7*%
X135759817Y-111952241D03*
X136779817Y-111952241D03*
%TD*%
%TO.C,R7*%
X101009817Y-75952241D03*
X102029817Y-75952241D03*
%TD*%
D13*
%TO.C,C2*%
X119576000Y-99230000D03*
X118616000Y-99230000D03*
%TD*%
D15*
%TO.C,R8*%
X135765460Y-38743600D03*
X136785460Y-38743600D03*
%TD*%
%TO.C,R6*%
X135754284Y-77147318D03*
X136774284Y-77147318D03*
%TD*%
D17*
%TO.C,D1*%
X114968824Y-96161498D03*
X110448824Y-96161498D03*
X114968824Y-97361498D03*
X110448824Y-97361498D03*
X114968824Y-98561498D03*
X110448824Y-98561498D03*
X114968824Y-99761498D03*
X110448824Y-99761498D03*
%TD*%
D18*
%TO.C,U1*%
X115375825Y-106897000D03*
X114105825Y-106897000D03*
X112835825Y-106897000D03*
X111565825Y-106897000D03*
X111565825Y-111847000D03*
X112835825Y-111847000D03*
X114105825Y-111847000D03*
X115375825Y-111847000D03*
%TD*%
D12*
%TO.C,R3*%
X108826000Y-98024800D03*
X108826000Y-99044800D03*
%TD*%
D15*
%TO.C,R6*%
X101004284Y-113147318D03*
X102024284Y-113147318D03*
%TD*%
D16*
%TO.C,C1*%
X151542389Y-71025989D03*
X152221211Y-71704811D03*
%TD*%
D17*
%TO.C,D2*%
X129835200Y-42347000D03*
X134355200Y-42347000D03*
X129835200Y-41147000D03*
X134355200Y-41147000D03*
X129835200Y-39947000D03*
X134355200Y-39947000D03*
X129835200Y-38747000D03*
X134355200Y-38747000D03*
%TD*%
D18*
%TO.C,U1*%
X150125825Y-70897000D03*
X148855825Y-70897000D03*
X147585825Y-70897000D03*
X146315825Y-70897000D03*
X146315825Y-75847000D03*
X147585825Y-75847000D03*
X148855825Y-75847000D03*
X150125825Y-75847000D03*
%TD*%
D11*
%TO.C,R4*%
X147337200Y-83176400D03*
X146317200Y-83176400D03*
%TD*%
D10*
%TO.C,U2*%
X120201824Y-91382498D03*
X117661824Y-91382498D03*
X117661824Y-97682498D03*
X120201824Y-97682498D03*
%TD*%
D14*
%TO.C,R1*%
X110196000Y-95040000D03*
X110196000Y-94020000D03*
%TD*%
%TO.C,R1*%
X110196000Y-113040000D03*
X110196000Y-112020000D03*
%TD*%
D12*
%TO.C,R2*%
X109296000Y-96020000D03*
X109296000Y-97040000D03*
%TD*%
D10*
%TO.C,U2*%
X120201824Y-37382498D03*
X117661824Y-37382498D03*
X117661824Y-43682498D03*
X120201824Y-43682498D03*
%TD*%
D17*
%TO.C,D2*%
X129835200Y-60347000D03*
X134355200Y-60347000D03*
X129835200Y-59147000D03*
X134355200Y-59147000D03*
X129835200Y-57947000D03*
X134355200Y-57947000D03*
X129835200Y-56747000D03*
X134355200Y-56747000D03*
%TD*%
D18*
%TO.C,U1*%
X150125825Y-88897000D03*
X148855825Y-88897000D03*
X147585825Y-88897000D03*
X146315825Y-88897000D03*
X146315825Y-93847000D03*
X147585825Y-93847000D03*
X148855825Y-93847000D03*
X150125825Y-93847000D03*
%TD*%
D12*
%TO.C,R3*%
X143576000Y-62024800D03*
X143576000Y-63044800D03*
%TD*%
D17*
%TO.C,D2*%
X95085200Y-96347000D03*
X99605200Y-96347000D03*
X95085200Y-95147000D03*
X99605200Y-95147000D03*
X95085200Y-93947000D03*
X99605200Y-93947000D03*
X95085200Y-92747000D03*
X99605200Y-92747000D03*
%TD*%
D12*
%TO.C,R3*%
X108826000Y-116024800D03*
X108826000Y-117044800D03*
%TD*%
D11*
%TO.C,R4*%
X112587200Y-65176400D03*
X111567200Y-65176400D03*
%TD*%
D13*
%TO.C,C2*%
X154326000Y-45230000D03*
X153366000Y-45230000D03*
%TD*%
D11*
%TO.C,R5*%
X102022799Y-78350400D03*
X101002799Y-78350400D03*
%TD*%
D15*
%TO.C,R7*%
X101009817Y-93952241D03*
X102029817Y-93952241D03*
%TD*%
D12*
%TO.C,R3*%
X143576000Y-98024800D03*
X143576000Y-99044800D03*
%TD*%
D15*
%TO.C,R6*%
X101004284Y-59147318D03*
X102024284Y-59147318D03*
%TD*%
D18*
%TO.C,U1*%
X115375825Y-88897000D03*
X114105825Y-88897000D03*
X112835825Y-88897000D03*
X111565825Y-88897000D03*
X111565825Y-93847000D03*
X112835825Y-93847000D03*
X114105825Y-93847000D03*
X115375825Y-93847000D03*
%TD*%
D17*
%TO.C,D1*%
X149718824Y-60161498D03*
X145198824Y-60161498D03*
X149718824Y-61361498D03*
X145198824Y-61361498D03*
X149718824Y-62561498D03*
X145198824Y-62561498D03*
X149718824Y-63761498D03*
X145198824Y-63761498D03*
%TD*%
D12*
%TO.C,R2*%
X109296000Y-114020000D03*
X109296000Y-115040000D03*
%TD*%
D16*
%TO.C,C1*%
X116792389Y-89025989D03*
X117471211Y-89704811D03*
%TD*%
D18*
%TO.C,U1*%
X150125825Y-106897000D03*
X148855825Y-106897000D03*
X147585825Y-106897000D03*
X146315825Y-106897000D03*
X146315825Y-111847000D03*
X147585825Y-111847000D03*
X148855825Y-111847000D03*
X150125825Y-111847000D03*
%TD*%
D15*
%TO.C,R7*%
X101009817Y-39952241D03*
X102029817Y-39952241D03*
%TD*%
D11*
%TO.C,R4*%
X112587200Y-47176400D03*
X111567200Y-47176400D03*
%TD*%
D17*
%TO.C,D1*%
X149718824Y-42161498D03*
X145198824Y-42161498D03*
X149718824Y-43361498D03*
X145198824Y-43361498D03*
X149718824Y-44561498D03*
X145198824Y-44561498D03*
X149718824Y-45761498D03*
X145198824Y-45761498D03*
%TD*%
%TO.C,D2*%
X95085200Y-114347000D03*
X99605200Y-114347000D03*
X95085200Y-113147000D03*
X99605200Y-113147000D03*
X95085200Y-111947000D03*
X99605200Y-111947000D03*
X95085200Y-110747000D03*
X99605200Y-110747000D03*
%TD*%
%TO.C,D2*%
X95085200Y-60347000D03*
X99605200Y-60347000D03*
X95085200Y-59147000D03*
X99605200Y-59147000D03*
X95085200Y-57947000D03*
X99605200Y-57947000D03*
X95085200Y-56747000D03*
X99605200Y-56747000D03*
%TD*%
D15*
%TO.C,R6*%
X101004284Y-41147318D03*
X102024284Y-41147318D03*
%TD*%
D10*
%TO.C,U2*%
X120201824Y-55382498D03*
X117661824Y-55382498D03*
X117661824Y-61682498D03*
X120201824Y-61682498D03*
%TD*%
D14*
%TO.C,R1*%
X144946000Y-59040000D03*
X144946000Y-58020000D03*
%TD*%
D11*
%TO.C,R5*%
X136772799Y-78350400D03*
X135752799Y-78350400D03*
%TD*%
D18*
%TO.C,U1*%
X115375825Y-52897000D03*
X114105825Y-52897000D03*
X112835825Y-52897000D03*
X111565825Y-52897000D03*
X111565825Y-57847000D03*
X112835825Y-57847000D03*
X114105825Y-57847000D03*
X115375825Y-57847000D03*
%TD*%
D12*
%TO.C,R2*%
X144046000Y-96020000D03*
X144046000Y-97040000D03*
%TD*%
D16*
%TO.C,C1*%
X151542389Y-53025989D03*
X152221211Y-53704811D03*
%TD*%
D12*
%TO.C,R3*%
X143576000Y-80024800D03*
X143576000Y-81044800D03*
%TD*%
D17*
%TO.C,D2*%
X129835200Y-96347000D03*
X134355200Y-96347000D03*
X129835200Y-95147000D03*
X134355200Y-95147000D03*
X129835200Y-93947000D03*
X134355200Y-93947000D03*
X129835200Y-92747000D03*
X134355200Y-92747000D03*
%TD*%
D15*
%TO.C,R7*%
X135759817Y-93952241D03*
X136779817Y-93952241D03*
%TD*%
%TO.C,R8*%
X101015460Y-38743600D03*
X102035460Y-38743600D03*
%TD*%
D18*
%TO.C,U1*%
X115375825Y-70897000D03*
X114105825Y-70897000D03*
X112835825Y-70897000D03*
X111565825Y-70897000D03*
X111565825Y-75847000D03*
X112835825Y-75847000D03*
X114105825Y-75847000D03*
X115375825Y-75847000D03*
%TD*%
%TO.C,U1*%
X150125825Y-34897000D03*
X148855825Y-34897000D03*
X147585825Y-34897000D03*
X146315825Y-34897000D03*
X146315825Y-39847000D03*
X147585825Y-39847000D03*
X148855825Y-39847000D03*
X150125825Y-39847000D03*
%TD*%
D17*
%TO.C,D1*%
X149718824Y-114161498D03*
X145198824Y-114161498D03*
X149718824Y-115361498D03*
X145198824Y-115361498D03*
X149718824Y-116561498D03*
X145198824Y-116561498D03*
X149718824Y-117761498D03*
X145198824Y-117761498D03*
%TD*%
D16*
%TO.C,C1*%
X116792389Y-107025989D03*
X117471211Y-107704811D03*
%TD*%
D12*
%TO.C,R2*%
X144046000Y-60020000D03*
X144046000Y-61040000D03*
%TD*%
D11*
%TO.C,R4*%
X112587200Y-119176400D03*
X111567200Y-119176400D03*
%TD*%
D17*
%TO.C,D1*%
X114968824Y-114161498D03*
X110448824Y-114161498D03*
X114968824Y-115361498D03*
X110448824Y-115361498D03*
X114968824Y-116561498D03*
X110448824Y-116561498D03*
X114968824Y-117761498D03*
X110448824Y-117761498D03*
%TD*%
D15*
%TO.C,R6*%
X135754284Y-59147318D03*
X136774284Y-59147318D03*
%TD*%
D10*
%TO.C,U2*%
X154951824Y-91382498D03*
X152411824Y-91382498D03*
X152411824Y-97682498D03*
X154951824Y-97682498D03*
%TD*%
D11*
%TO.C,R5*%
X102022799Y-96350400D03*
X101002799Y-96350400D03*
%TD*%
D12*
%TO.C,R2*%
X109296000Y-78020000D03*
X109296000Y-79040000D03*
%TD*%
D15*
%TO.C,R8*%
X135765460Y-92743600D03*
X136785460Y-92743600D03*
%TD*%
D12*
%TO.C,R3*%
X108826000Y-80024800D03*
X108826000Y-81044800D03*
%TD*%
D17*
%TO.C,D2*%
X129835200Y-78347000D03*
X134355200Y-78347000D03*
X129835200Y-77147000D03*
X134355200Y-77147000D03*
X129835200Y-75947000D03*
X134355200Y-75947000D03*
X129835200Y-74747000D03*
X134355200Y-74747000D03*
%TD*%
D12*
%TO.C,R2*%
X144046000Y-114020000D03*
X144046000Y-115040000D03*
%TD*%
D11*
%TO.C,R5*%
X136772799Y-60350400D03*
X135752799Y-60350400D03*
%TD*%
D16*
%TO.C,C1*%
X116792389Y-71025989D03*
X117471211Y-71704811D03*
%TD*%
D15*
%TO.C,R6*%
X135754284Y-113147318D03*
X136774284Y-113147318D03*
%TD*%
%TO.C,R6*%
X101004284Y-77147318D03*
X102024284Y-77147318D03*
%TD*%
%TO.C,R8*%
X135765460Y-74743600D03*
X136785460Y-74743600D03*
%TD*%
%TO.C,R8*%
X101015460Y-92743600D03*
X102035460Y-92743600D03*
%TD*%
D10*
%TO.C,U2*%
X154951824Y-37382498D03*
X152411824Y-37382498D03*
X152411824Y-43682498D03*
X154951824Y-43682498D03*
%TD*%
D13*
%TO.C,C2*%
X154326000Y-63230000D03*
X153366000Y-63230000D03*
%TD*%
D12*
%TO.C,R2*%
X144046000Y-42020000D03*
X144046000Y-43040000D03*
%TD*%
D15*
%TO.C,R8*%
X135765460Y-110743600D03*
X136785460Y-110743600D03*
%TD*%
D12*
%TO.C,R3*%
X143576000Y-116024800D03*
X143576000Y-117044800D03*
%TD*%
D18*
%TO.C,U1*%
X150125825Y-52897000D03*
X148855825Y-52897000D03*
X147585825Y-52897000D03*
X146315825Y-52897000D03*
X146315825Y-57847000D03*
X147585825Y-57847000D03*
X148855825Y-57847000D03*
X150125825Y-57847000D03*
%TD*%
D16*
%TO.C,C1*%
X116792389Y-35025989D03*
X117471211Y-35704811D03*
%TD*%
D17*
%TO.C,D1*%
X114968824Y-42161498D03*
X110448824Y-42161498D03*
X114968824Y-43361498D03*
X110448824Y-43361498D03*
X114968824Y-44561498D03*
X110448824Y-44561498D03*
X114968824Y-45761498D03*
X110448824Y-45761498D03*
%TD*%
D11*
%TO.C,R4*%
X112587200Y-101176400D03*
X111567200Y-101176400D03*
%TD*%
D10*
%TO.C,U2*%
X154951824Y-109382498D03*
X152411824Y-109382498D03*
X152411824Y-115682498D03*
X154951824Y-115682498D03*
%TD*%
D13*
%TO.C,C2*%
X119576000Y-81230000D03*
X118616000Y-81230000D03*
%TD*%
D15*
%TO.C,R7*%
X135759817Y-75952241D03*
X136779817Y-75952241D03*
%TD*%
D17*
%TO.C,D2*%
X95085200Y-78347000D03*
X99605200Y-78347000D03*
X95085200Y-77147000D03*
X99605200Y-77147000D03*
X95085200Y-75947000D03*
X99605200Y-75947000D03*
X95085200Y-74747000D03*
X99605200Y-74747000D03*
%TD*%
D11*
%TO.C,R5*%
X136772799Y-42350400D03*
X135752799Y-42350400D03*
%TD*%
D13*
%TO.C,C2*%
X154326000Y-99230000D03*
X153366000Y-99230000D03*
%TD*%
D18*
%TO.C,U1*%
X115375825Y-34897000D03*
X114105825Y-34897000D03*
X112835825Y-34897000D03*
X111565825Y-34897000D03*
X111565825Y-39847000D03*
X112835825Y-39847000D03*
X114105825Y-39847000D03*
X115375825Y-39847000D03*
%TD*%
D11*
%TO.C,R5*%
X136772799Y-114350400D03*
X135752799Y-114350400D03*
%TD*%
%TO.C,R5*%
X102022799Y-42350400D03*
X101002799Y-42350400D03*
%TD*%
D15*
%TO.C,R6*%
X101004284Y-95147318D03*
X102024284Y-95147318D03*
%TD*%
D14*
%TO.C,R1*%
X110196000Y-77040000D03*
X110196000Y-76020000D03*
%TD*%
D15*
%TO.C,R8*%
X135765460Y-56743600D03*
X136785460Y-56743600D03*
%TD*%
D12*
%TO.C,R2*%
X109296000Y-42020000D03*
X109296000Y-43040000D03*
%TD*%
D13*
%TO.C,C2*%
X154326000Y-81230000D03*
X153366000Y-81230000D03*
%TD*%
D16*
%TO.C,C1*%
X151542389Y-89025989D03*
X152221211Y-89704811D03*
%TD*%
D17*
%TO.C,D1*%
X149718824Y-96161498D03*
X145198824Y-96161498D03*
X149718824Y-97361498D03*
X145198824Y-97361498D03*
X149718824Y-98561498D03*
X145198824Y-98561498D03*
X149718824Y-99761498D03*
X145198824Y-99761498D03*
%TD*%
D10*
%TO.C,U2*%
X120201824Y-109382498D03*
X117661824Y-109382498D03*
X117661824Y-115682498D03*
X120201824Y-115682498D03*
%TD*%
D11*
%TO.C,R5*%
X102022799Y-114350400D03*
X101002799Y-114350400D03*
%TD*%
D12*
%TO.C,R3*%
X108826000Y-44024800D03*
X108826000Y-45044800D03*
%TD*%
D11*
%TO.C,R4*%
X147337200Y-65176400D03*
X146317200Y-65176400D03*
%TD*%
D16*
%TO.C,C1*%
X151542389Y-107025989D03*
X152221211Y-107704811D03*
%TD*%
D13*
%TO.C,C2*%
X119576000Y-45230000D03*
X118616000Y-45230000D03*
%TD*%
D12*
%TO.C,R2*%
X109296000Y-60020000D03*
X109296000Y-61040000D03*
%TD*%
D11*
%TO.C,R5*%
X136772799Y-96350400D03*
X135752799Y-96350400D03*
%TD*%
D17*
%TO.C,D2*%
X129835200Y-114347000D03*
X134355200Y-114347000D03*
X129835200Y-113147000D03*
X134355200Y-113147000D03*
X129835200Y-111947000D03*
X134355200Y-111947000D03*
X129835200Y-110747000D03*
X134355200Y-110747000D03*
%TD*%
D15*
%TO.C,R6*%
X135754284Y-41147318D03*
X136774284Y-41147318D03*
%TD*%
D10*
%TO.C,U2*%
X154951824Y-55382498D03*
X152411824Y-55382498D03*
X152411824Y-61682498D03*
X154951824Y-61682498D03*
%TD*%
D15*
%TO.C,R8*%
X101015460Y-110743600D03*
X102035460Y-110743600D03*
%TD*%
D14*
%TO.C,R1*%
X144946000Y-41040000D03*
X144946000Y-40020000D03*
%TD*%
%TO.C,R1*%
X144946000Y-113040000D03*
X144946000Y-112020000D03*
%TD*%
D15*
%TO.C,R6*%
X135754284Y-95147318D03*
X136774284Y-95147318D03*
%TD*%
D11*
%TO.C,R5*%
X102022799Y-60350400D03*
X101002799Y-60350400D03*
%TD*%
D16*
%TO.C,C1*%
X151542389Y-35025989D03*
X152221211Y-35704811D03*
%TD*%
D17*
%TO.C,D1*%
X114968824Y-78161498D03*
X110448824Y-78161498D03*
X114968824Y-79361498D03*
X110448824Y-79361498D03*
X114968824Y-80561498D03*
X110448824Y-80561498D03*
X114968824Y-81761498D03*
X110448824Y-81761498D03*
%TD*%
D11*
%TO.C,R4*%
X147337200Y-47176400D03*
X146317200Y-47176400D03*
%TD*%
D17*
%TO.C,D1*%
X114968824Y-60161498D03*
X110448824Y-60161498D03*
X114968824Y-61361498D03*
X110448824Y-61361498D03*
X114968824Y-62561498D03*
X110448824Y-62561498D03*
X114968824Y-63761498D03*
X110448824Y-63761498D03*
%TD*%
D13*
%TO.C,C2*%
X154326000Y-117230000D03*
X153366000Y-117230000D03*
%TD*%
D12*
%TO.C,R3*%
X143576000Y-44024800D03*
X143576000Y-45044800D03*
%TD*%
D15*
%TO.C,R7*%
X101009817Y-57952241D03*
X102029817Y-57952241D03*
%TD*%
D11*
%TO.C,R4*%
X147337200Y-119176400D03*
X146317200Y-119176400D03*
%TD*%
D15*
%TO.C,R8*%
X101015460Y-56743600D03*
X102035460Y-56743600D03*
%TD*%
%TO.C,R7*%
X135759817Y-57952241D03*
X136779817Y-57952241D03*
%TD*%
%TO.C,R7*%
X101009817Y-111952241D03*
X102029817Y-111952241D03*
%TD*%
D14*
%TO.C,R1*%
X144946000Y-77040000D03*
X144946000Y-76020000D03*
%TD*%
M02*
