%TF.GenerationSoftware,KiCad,Pcbnew,10.0.0*%
%TF.CreationDate,2026-03-28T00:54:06-07:00*%
%TF.ProjectId,Droplet,44726f70-6c65-4742-9e6b-696361645f70,rev?*%
%TF.SameCoordinates,Original*%
%TF.FileFunction,Legend,Bot*%
%TF.FilePolarity,Positive*%
%FSLAX46Y46*%
G04 Gerber Fmt 4.6, Leading zero omitted, Abs format (unit mm)*
G04 Created by KiCad (PCBNEW 10.0.0) date 2026-03-28 00:54:06*
%MOMM*%
%LPD*%
G01*
G04 APERTURE LIST*
%ADD10C,0.100000*%
%ADD11C,0.300000*%
%ADD12C,0.800000*%
%ADD13C,0.120000*%
G04 APERTURE END LIST*
D10*
X93468306Y-35702419D02*
X94039734Y-35702419D01*
X93754020Y-35702419D02*
X93754020Y-34702419D01*
X93754020Y-34702419D02*
X93849258Y-34845276D01*
X93849258Y-34845276D02*
X93944496Y-34940514D01*
X93944496Y-34940514D02*
X94039734Y-34988133D01*
X93468306Y-53702419D02*
X94039734Y-53702419D01*
X93754020Y-53702419D02*
X93754020Y-52702419D01*
X93754020Y-52702419D02*
X93849258Y-52845276D01*
X93849258Y-52845276D02*
X93944496Y-52940514D01*
X93944496Y-52940514D02*
X94039734Y-52988133D01*
X93468306Y-71702419D02*
X94039734Y-71702419D01*
X93754020Y-71702419D02*
X93754020Y-70702419D01*
X93754020Y-70702419D02*
X93849258Y-70845276D01*
X93849258Y-70845276D02*
X93944496Y-70940514D01*
X93944496Y-70940514D02*
X94039734Y-70988133D01*
X93468306Y-89702419D02*
X94039734Y-89702419D01*
X93754020Y-89702419D02*
X93754020Y-88702419D01*
X93754020Y-88702419D02*
X93849258Y-88845276D01*
X93849258Y-88845276D02*
X93944496Y-88940514D01*
X93944496Y-88940514D02*
X94039734Y-88988133D01*
X93468306Y-107702419D02*
X94039734Y-107702419D01*
X93754020Y-107702419D02*
X93754020Y-106702419D01*
X93754020Y-106702419D02*
X93849258Y-106845276D01*
X93849258Y-106845276D02*
X93944496Y-106940514D01*
X93944496Y-106940514D02*
X94039734Y-106988133D01*
X95739734Y-34097657D02*
X95692115Y-34050038D01*
X95692115Y-34050038D02*
X95596877Y-34002419D01*
X95596877Y-34002419D02*
X95358782Y-34002419D01*
X95358782Y-34002419D02*
X95263544Y-34050038D01*
X95263544Y-34050038D02*
X95215925Y-34097657D01*
X95215925Y-34097657D02*
X95168306Y-34192895D01*
X95168306Y-34192895D02*
X95168306Y-34288133D01*
X95168306Y-34288133D02*
X95215925Y-34430990D01*
X95215925Y-34430990D02*
X95787353Y-35002419D01*
X95787353Y-35002419D02*
X95168306Y-35002419D01*
X95739734Y-52097657D02*
X95692115Y-52050038D01*
X95692115Y-52050038D02*
X95596877Y-52002419D01*
X95596877Y-52002419D02*
X95358782Y-52002419D01*
X95358782Y-52002419D02*
X95263544Y-52050038D01*
X95263544Y-52050038D02*
X95215925Y-52097657D01*
X95215925Y-52097657D02*
X95168306Y-52192895D01*
X95168306Y-52192895D02*
X95168306Y-52288133D01*
X95168306Y-52288133D02*
X95215925Y-52430990D01*
X95215925Y-52430990D02*
X95787353Y-53002419D01*
X95787353Y-53002419D02*
X95168306Y-53002419D01*
X95739734Y-70097657D02*
X95692115Y-70050038D01*
X95692115Y-70050038D02*
X95596877Y-70002419D01*
X95596877Y-70002419D02*
X95358782Y-70002419D01*
X95358782Y-70002419D02*
X95263544Y-70050038D01*
X95263544Y-70050038D02*
X95215925Y-70097657D01*
X95215925Y-70097657D02*
X95168306Y-70192895D01*
X95168306Y-70192895D02*
X95168306Y-70288133D01*
X95168306Y-70288133D02*
X95215925Y-70430990D01*
X95215925Y-70430990D02*
X95787353Y-71002419D01*
X95787353Y-71002419D02*
X95168306Y-71002419D01*
X95739734Y-88097657D02*
X95692115Y-88050038D01*
X95692115Y-88050038D02*
X95596877Y-88002419D01*
X95596877Y-88002419D02*
X95358782Y-88002419D01*
X95358782Y-88002419D02*
X95263544Y-88050038D01*
X95263544Y-88050038D02*
X95215925Y-88097657D01*
X95215925Y-88097657D02*
X95168306Y-88192895D01*
X95168306Y-88192895D02*
X95168306Y-88288133D01*
X95168306Y-88288133D02*
X95215925Y-88430990D01*
X95215925Y-88430990D02*
X95787353Y-89002419D01*
X95787353Y-89002419D02*
X95168306Y-89002419D01*
X95739734Y-106097657D02*
X95692115Y-106050038D01*
X95692115Y-106050038D02*
X95596877Y-106002419D01*
X95596877Y-106002419D02*
X95358782Y-106002419D01*
X95358782Y-106002419D02*
X95263544Y-106050038D01*
X95263544Y-106050038D02*
X95215925Y-106097657D01*
X95215925Y-106097657D02*
X95168306Y-106192895D01*
X95168306Y-106192895D02*
X95168306Y-106288133D01*
X95168306Y-106288133D02*
X95215925Y-106430990D01*
X95215925Y-106430990D02*
X95787353Y-107002419D01*
X95787353Y-107002419D02*
X95168306Y-107002419D01*
X97687353Y-33802419D02*
X97068306Y-33802419D01*
X97068306Y-33802419D02*
X97401639Y-34183371D01*
X97401639Y-34183371D02*
X97258782Y-34183371D01*
X97258782Y-34183371D02*
X97163544Y-34230990D01*
X97163544Y-34230990D02*
X97115925Y-34278609D01*
X97115925Y-34278609D02*
X97068306Y-34373847D01*
X97068306Y-34373847D02*
X97068306Y-34611942D01*
X97068306Y-34611942D02*
X97115925Y-34707180D01*
X97115925Y-34707180D02*
X97163544Y-34754800D01*
X97163544Y-34754800D02*
X97258782Y-34802419D01*
X97258782Y-34802419D02*
X97544496Y-34802419D01*
X97544496Y-34802419D02*
X97639734Y-34754800D01*
X97639734Y-34754800D02*
X97687353Y-34707180D01*
X97687353Y-51802419D02*
X97068306Y-51802419D01*
X97068306Y-51802419D02*
X97401639Y-52183371D01*
X97401639Y-52183371D02*
X97258782Y-52183371D01*
X97258782Y-52183371D02*
X97163544Y-52230990D01*
X97163544Y-52230990D02*
X97115925Y-52278609D01*
X97115925Y-52278609D02*
X97068306Y-52373847D01*
X97068306Y-52373847D02*
X97068306Y-52611942D01*
X97068306Y-52611942D02*
X97115925Y-52707180D01*
X97115925Y-52707180D02*
X97163544Y-52754800D01*
X97163544Y-52754800D02*
X97258782Y-52802419D01*
X97258782Y-52802419D02*
X97544496Y-52802419D01*
X97544496Y-52802419D02*
X97639734Y-52754800D01*
X97639734Y-52754800D02*
X97687353Y-52707180D01*
X97687353Y-69802419D02*
X97068306Y-69802419D01*
X97068306Y-69802419D02*
X97401639Y-70183371D01*
X97401639Y-70183371D02*
X97258782Y-70183371D01*
X97258782Y-70183371D02*
X97163544Y-70230990D01*
X97163544Y-70230990D02*
X97115925Y-70278609D01*
X97115925Y-70278609D02*
X97068306Y-70373847D01*
X97068306Y-70373847D02*
X97068306Y-70611942D01*
X97068306Y-70611942D02*
X97115925Y-70707180D01*
X97115925Y-70707180D02*
X97163544Y-70754800D01*
X97163544Y-70754800D02*
X97258782Y-70802419D01*
X97258782Y-70802419D02*
X97544496Y-70802419D01*
X97544496Y-70802419D02*
X97639734Y-70754800D01*
X97639734Y-70754800D02*
X97687353Y-70707180D01*
X97687353Y-87802419D02*
X97068306Y-87802419D01*
X97068306Y-87802419D02*
X97401639Y-88183371D01*
X97401639Y-88183371D02*
X97258782Y-88183371D01*
X97258782Y-88183371D02*
X97163544Y-88230990D01*
X97163544Y-88230990D02*
X97115925Y-88278609D01*
X97115925Y-88278609D02*
X97068306Y-88373847D01*
X97068306Y-88373847D02*
X97068306Y-88611942D01*
X97068306Y-88611942D02*
X97115925Y-88707180D01*
X97115925Y-88707180D02*
X97163544Y-88754800D01*
X97163544Y-88754800D02*
X97258782Y-88802419D01*
X97258782Y-88802419D02*
X97544496Y-88802419D01*
X97544496Y-88802419D02*
X97639734Y-88754800D01*
X97639734Y-88754800D02*
X97687353Y-88707180D01*
X97687353Y-105802419D02*
X97068306Y-105802419D01*
X97068306Y-105802419D02*
X97401639Y-106183371D01*
X97401639Y-106183371D02*
X97258782Y-106183371D01*
X97258782Y-106183371D02*
X97163544Y-106230990D01*
X97163544Y-106230990D02*
X97115925Y-106278609D01*
X97115925Y-106278609D02*
X97068306Y-106373847D01*
X97068306Y-106373847D02*
X97068306Y-106611942D01*
X97068306Y-106611942D02*
X97115925Y-106707180D01*
X97115925Y-106707180D02*
X97163544Y-106754800D01*
X97163544Y-106754800D02*
X97258782Y-106802419D01*
X97258782Y-106802419D02*
X97544496Y-106802419D01*
X97544496Y-106802419D02*
X97639734Y-106754800D01*
X97639734Y-106754800D02*
X97687353Y-106707180D01*
X98963544Y-34235752D02*
X98963544Y-34902419D01*
X99201639Y-33854800D02*
X99439734Y-34569085D01*
X99439734Y-34569085D02*
X98820687Y-34569085D01*
X98963544Y-52235752D02*
X98963544Y-52902419D01*
X99201639Y-51854800D02*
X99439734Y-52569085D01*
X99439734Y-52569085D02*
X98820687Y-52569085D01*
X98963544Y-70235752D02*
X98963544Y-70902419D01*
X99201639Y-69854800D02*
X99439734Y-70569085D01*
X99439734Y-70569085D02*
X98820687Y-70569085D01*
X98963544Y-88235752D02*
X98963544Y-88902419D01*
X99201639Y-87854800D02*
X99439734Y-88569085D01*
X99439734Y-88569085D02*
X98820687Y-88569085D01*
X98963544Y-106235752D02*
X98963544Y-106902419D01*
X99201639Y-105854800D02*
X99439734Y-106569085D01*
X99439734Y-106569085D02*
X98820687Y-106569085D01*
X100515925Y-34702419D02*
X100992115Y-34702419D01*
X100992115Y-34702419D02*
X101039734Y-35178609D01*
X101039734Y-35178609D02*
X100992115Y-35130990D01*
X100992115Y-35130990D02*
X100896877Y-35083371D01*
X100896877Y-35083371D02*
X100658782Y-35083371D01*
X100658782Y-35083371D02*
X100563544Y-35130990D01*
X100563544Y-35130990D02*
X100515925Y-35178609D01*
X100515925Y-35178609D02*
X100468306Y-35273847D01*
X100468306Y-35273847D02*
X100468306Y-35511942D01*
X100468306Y-35511942D02*
X100515925Y-35607180D01*
X100515925Y-35607180D02*
X100563544Y-35654800D01*
X100563544Y-35654800D02*
X100658782Y-35702419D01*
X100658782Y-35702419D02*
X100896877Y-35702419D01*
X100896877Y-35702419D02*
X100992115Y-35654800D01*
X100992115Y-35654800D02*
X101039734Y-35607180D01*
X100515925Y-52702419D02*
X100992115Y-52702419D01*
X100992115Y-52702419D02*
X101039734Y-53178609D01*
X101039734Y-53178609D02*
X100992115Y-53130990D01*
X100992115Y-53130990D02*
X100896877Y-53083371D01*
X100896877Y-53083371D02*
X100658782Y-53083371D01*
X100658782Y-53083371D02*
X100563544Y-53130990D01*
X100563544Y-53130990D02*
X100515925Y-53178609D01*
X100515925Y-53178609D02*
X100468306Y-53273847D01*
X100468306Y-53273847D02*
X100468306Y-53511942D01*
X100468306Y-53511942D02*
X100515925Y-53607180D01*
X100515925Y-53607180D02*
X100563544Y-53654800D01*
X100563544Y-53654800D02*
X100658782Y-53702419D01*
X100658782Y-53702419D02*
X100896877Y-53702419D01*
X100896877Y-53702419D02*
X100992115Y-53654800D01*
X100992115Y-53654800D02*
X101039734Y-53607180D01*
X100515925Y-70702419D02*
X100992115Y-70702419D01*
X100992115Y-70702419D02*
X101039734Y-71178609D01*
X101039734Y-71178609D02*
X100992115Y-71130990D01*
X100992115Y-71130990D02*
X100896877Y-71083371D01*
X100896877Y-71083371D02*
X100658782Y-71083371D01*
X100658782Y-71083371D02*
X100563544Y-71130990D01*
X100563544Y-71130990D02*
X100515925Y-71178609D01*
X100515925Y-71178609D02*
X100468306Y-71273847D01*
X100468306Y-71273847D02*
X100468306Y-71511942D01*
X100468306Y-71511942D02*
X100515925Y-71607180D01*
X100515925Y-71607180D02*
X100563544Y-71654800D01*
X100563544Y-71654800D02*
X100658782Y-71702419D01*
X100658782Y-71702419D02*
X100896877Y-71702419D01*
X100896877Y-71702419D02*
X100992115Y-71654800D01*
X100992115Y-71654800D02*
X101039734Y-71607180D01*
X100515925Y-88702419D02*
X100992115Y-88702419D01*
X100992115Y-88702419D02*
X101039734Y-89178609D01*
X101039734Y-89178609D02*
X100992115Y-89130990D01*
X100992115Y-89130990D02*
X100896877Y-89083371D01*
X100896877Y-89083371D02*
X100658782Y-89083371D01*
X100658782Y-89083371D02*
X100563544Y-89130990D01*
X100563544Y-89130990D02*
X100515925Y-89178609D01*
X100515925Y-89178609D02*
X100468306Y-89273847D01*
X100468306Y-89273847D02*
X100468306Y-89511942D01*
X100468306Y-89511942D02*
X100515925Y-89607180D01*
X100515925Y-89607180D02*
X100563544Y-89654800D01*
X100563544Y-89654800D02*
X100658782Y-89702419D01*
X100658782Y-89702419D02*
X100896877Y-89702419D01*
X100896877Y-89702419D02*
X100992115Y-89654800D01*
X100992115Y-89654800D02*
X101039734Y-89607180D01*
X100515925Y-106702419D02*
X100992115Y-106702419D01*
X100992115Y-106702419D02*
X101039734Y-107178609D01*
X101039734Y-107178609D02*
X100992115Y-107130990D01*
X100992115Y-107130990D02*
X100896877Y-107083371D01*
X100896877Y-107083371D02*
X100658782Y-107083371D01*
X100658782Y-107083371D02*
X100563544Y-107130990D01*
X100563544Y-107130990D02*
X100515925Y-107178609D01*
X100515925Y-107178609D02*
X100468306Y-107273847D01*
X100468306Y-107273847D02*
X100468306Y-107511942D01*
X100468306Y-107511942D02*
X100515925Y-107607180D01*
X100515925Y-107607180D02*
X100563544Y-107654800D01*
X100563544Y-107654800D02*
X100658782Y-107702419D01*
X100658782Y-107702419D02*
X100896877Y-107702419D01*
X100896877Y-107702419D02*
X100992115Y-107654800D01*
X100992115Y-107654800D02*
X101039734Y-107607180D01*
X110515925Y-34602419D02*
X110992115Y-34602419D01*
X110992115Y-34602419D02*
X111039734Y-35078609D01*
X111039734Y-35078609D02*
X110992115Y-35030990D01*
X110992115Y-35030990D02*
X110896877Y-34983371D01*
X110896877Y-34983371D02*
X110658782Y-34983371D01*
X110658782Y-34983371D02*
X110563544Y-35030990D01*
X110563544Y-35030990D02*
X110515925Y-35078609D01*
X110515925Y-35078609D02*
X110468306Y-35173847D01*
X110468306Y-35173847D02*
X110468306Y-35411942D01*
X110468306Y-35411942D02*
X110515925Y-35507180D01*
X110515925Y-35507180D02*
X110563544Y-35554800D01*
X110563544Y-35554800D02*
X110658782Y-35602419D01*
X110658782Y-35602419D02*
X110896877Y-35602419D01*
X110896877Y-35602419D02*
X110992115Y-35554800D01*
X110992115Y-35554800D02*
X111039734Y-35507180D01*
X110515925Y-52602419D02*
X110992115Y-52602419D01*
X110992115Y-52602419D02*
X111039734Y-53078609D01*
X111039734Y-53078609D02*
X110992115Y-53030990D01*
X110992115Y-53030990D02*
X110896877Y-52983371D01*
X110896877Y-52983371D02*
X110658782Y-52983371D01*
X110658782Y-52983371D02*
X110563544Y-53030990D01*
X110563544Y-53030990D02*
X110515925Y-53078609D01*
X110515925Y-53078609D02*
X110468306Y-53173847D01*
X110468306Y-53173847D02*
X110468306Y-53411942D01*
X110468306Y-53411942D02*
X110515925Y-53507180D01*
X110515925Y-53507180D02*
X110563544Y-53554800D01*
X110563544Y-53554800D02*
X110658782Y-53602419D01*
X110658782Y-53602419D02*
X110896877Y-53602419D01*
X110896877Y-53602419D02*
X110992115Y-53554800D01*
X110992115Y-53554800D02*
X111039734Y-53507180D01*
X110515925Y-70602419D02*
X110992115Y-70602419D01*
X110992115Y-70602419D02*
X111039734Y-71078609D01*
X111039734Y-71078609D02*
X110992115Y-71030990D01*
X110992115Y-71030990D02*
X110896877Y-70983371D01*
X110896877Y-70983371D02*
X110658782Y-70983371D01*
X110658782Y-70983371D02*
X110563544Y-71030990D01*
X110563544Y-71030990D02*
X110515925Y-71078609D01*
X110515925Y-71078609D02*
X110468306Y-71173847D01*
X110468306Y-71173847D02*
X110468306Y-71411942D01*
X110468306Y-71411942D02*
X110515925Y-71507180D01*
X110515925Y-71507180D02*
X110563544Y-71554800D01*
X110563544Y-71554800D02*
X110658782Y-71602419D01*
X110658782Y-71602419D02*
X110896877Y-71602419D01*
X110896877Y-71602419D02*
X110992115Y-71554800D01*
X110992115Y-71554800D02*
X111039734Y-71507180D01*
X110515925Y-88602419D02*
X110992115Y-88602419D01*
X110992115Y-88602419D02*
X111039734Y-89078609D01*
X111039734Y-89078609D02*
X110992115Y-89030990D01*
X110992115Y-89030990D02*
X110896877Y-88983371D01*
X110896877Y-88983371D02*
X110658782Y-88983371D01*
X110658782Y-88983371D02*
X110563544Y-89030990D01*
X110563544Y-89030990D02*
X110515925Y-89078609D01*
X110515925Y-89078609D02*
X110468306Y-89173847D01*
X110468306Y-89173847D02*
X110468306Y-89411942D01*
X110468306Y-89411942D02*
X110515925Y-89507180D01*
X110515925Y-89507180D02*
X110563544Y-89554800D01*
X110563544Y-89554800D02*
X110658782Y-89602419D01*
X110658782Y-89602419D02*
X110896877Y-89602419D01*
X110896877Y-89602419D02*
X110992115Y-89554800D01*
X110992115Y-89554800D02*
X111039734Y-89507180D01*
X110515925Y-106602419D02*
X110992115Y-106602419D01*
X110992115Y-106602419D02*
X111039734Y-107078609D01*
X111039734Y-107078609D02*
X110992115Y-107030990D01*
X110992115Y-107030990D02*
X110896877Y-106983371D01*
X110896877Y-106983371D02*
X110658782Y-106983371D01*
X110658782Y-106983371D02*
X110563544Y-107030990D01*
X110563544Y-107030990D02*
X110515925Y-107078609D01*
X110515925Y-107078609D02*
X110468306Y-107173847D01*
X110468306Y-107173847D02*
X110468306Y-107411942D01*
X110468306Y-107411942D02*
X110515925Y-107507180D01*
X110515925Y-107507180D02*
X110563544Y-107554800D01*
X110563544Y-107554800D02*
X110658782Y-107602419D01*
X110658782Y-107602419D02*
X110896877Y-107602419D01*
X110896877Y-107602419D02*
X110992115Y-107554800D01*
X110992115Y-107554800D02*
X111039734Y-107507180D01*
X112263544Y-34135752D02*
X112263544Y-34802419D01*
X112501639Y-33754800D02*
X112739734Y-34469085D01*
X112739734Y-34469085D02*
X112120687Y-34469085D01*
X112263544Y-52135752D02*
X112263544Y-52802419D01*
X112501639Y-51754800D02*
X112739734Y-52469085D01*
X112739734Y-52469085D02*
X112120687Y-52469085D01*
X112263544Y-70135752D02*
X112263544Y-70802419D01*
X112501639Y-69754800D02*
X112739734Y-70469085D01*
X112739734Y-70469085D02*
X112120687Y-70469085D01*
X112263544Y-88135752D02*
X112263544Y-88802419D01*
X112501639Y-87754800D02*
X112739734Y-88469085D01*
X112739734Y-88469085D02*
X112120687Y-88469085D01*
X112263544Y-106135752D02*
X112263544Y-106802419D01*
X112501639Y-105754800D02*
X112739734Y-106469085D01*
X112739734Y-106469085D02*
X112120687Y-106469085D01*
X114387353Y-33502419D02*
X113768306Y-33502419D01*
X113768306Y-33502419D02*
X114101639Y-33883371D01*
X114101639Y-33883371D02*
X113958782Y-33883371D01*
X113958782Y-33883371D02*
X113863544Y-33930990D01*
X113863544Y-33930990D02*
X113815925Y-33978609D01*
X113815925Y-33978609D02*
X113768306Y-34073847D01*
X113768306Y-34073847D02*
X113768306Y-34311942D01*
X113768306Y-34311942D02*
X113815925Y-34407180D01*
X113815925Y-34407180D02*
X113863544Y-34454800D01*
X113863544Y-34454800D02*
X113958782Y-34502419D01*
X113958782Y-34502419D02*
X114244496Y-34502419D01*
X114244496Y-34502419D02*
X114339734Y-34454800D01*
X114339734Y-34454800D02*
X114387353Y-34407180D01*
X114387353Y-51502419D02*
X113768306Y-51502419D01*
X113768306Y-51502419D02*
X114101639Y-51883371D01*
X114101639Y-51883371D02*
X113958782Y-51883371D01*
X113958782Y-51883371D02*
X113863544Y-51930990D01*
X113863544Y-51930990D02*
X113815925Y-51978609D01*
X113815925Y-51978609D02*
X113768306Y-52073847D01*
X113768306Y-52073847D02*
X113768306Y-52311942D01*
X113768306Y-52311942D02*
X113815925Y-52407180D01*
X113815925Y-52407180D02*
X113863544Y-52454800D01*
X113863544Y-52454800D02*
X113958782Y-52502419D01*
X113958782Y-52502419D02*
X114244496Y-52502419D01*
X114244496Y-52502419D02*
X114339734Y-52454800D01*
X114339734Y-52454800D02*
X114387353Y-52407180D01*
X114387353Y-69502419D02*
X113768306Y-69502419D01*
X113768306Y-69502419D02*
X114101639Y-69883371D01*
X114101639Y-69883371D02*
X113958782Y-69883371D01*
X113958782Y-69883371D02*
X113863544Y-69930990D01*
X113863544Y-69930990D02*
X113815925Y-69978609D01*
X113815925Y-69978609D02*
X113768306Y-70073847D01*
X113768306Y-70073847D02*
X113768306Y-70311942D01*
X113768306Y-70311942D02*
X113815925Y-70407180D01*
X113815925Y-70407180D02*
X113863544Y-70454800D01*
X113863544Y-70454800D02*
X113958782Y-70502419D01*
X113958782Y-70502419D02*
X114244496Y-70502419D01*
X114244496Y-70502419D02*
X114339734Y-70454800D01*
X114339734Y-70454800D02*
X114387353Y-70407180D01*
X114387353Y-87502419D02*
X113768306Y-87502419D01*
X113768306Y-87502419D02*
X114101639Y-87883371D01*
X114101639Y-87883371D02*
X113958782Y-87883371D01*
X113958782Y-87883371D02*
X113863544Y-87930990D01*
X113863544Y-87930990D02*
X113815925Y-87978609D01*
X113815925Y-87978609D02*
X113768306Y-88073847D01*
X113768306Y-88073847D02*
X113768306Y-88311942D01*
X113768306Y-88311942D02*
X113815925Y-88407180D01*
X113815925Y-88407180D02*
X113863544Y-88454800D01*
X113863544Y-88454800D02*
X113958782Y-88502419D01*
X113958782Y-88502419D02*
X114244496Y-88502419D01*
X114244496Y-88502419D02*
X114339734Y-88454800D01*
X114339734Y-88454800D02*
X114387353Y-88407180D01*
X114387353Y-105502419D02*
X113768306Y-105502419D01*
X113768306Y-105502419D02*
X114101639Y-105883371D01*
X114101639Y-105883371D02*
X113958782Y-105883371D01*
X113958782Y-105883371D02*
X113863544Y-105930990D01*
X113863544Y-105930990D02*
X113815925Y-105978609D01*
X113815925Y-105978609D02*
X113768306Y-106073847D01*
X113768306Y-106073847D02*
X113768306Y-106311942D01*
X113768306Y-106311942D02*
X113815925Y-106407180D01*
X113815925Y-106407180D02*
X113863544Y-106454800D01*
X113863544Y-106454800D02*
X113958782Y-106502419D01*
X113958782Y-106502419D02*
X114244496Y-106502419D01*
X114244496Y-106502419D02*
X114339734Y-106454800D01*
X114339734Y-106454800D02*
X114387353Y-106407180D01*
X115839734Y-33897657D02*
X115792115Y-33850038D01*
X115792115Y-33850038D02*
X115696877Y-33802419D01*
X115696877Y-33802419D02*
X115458782Y-33802419D01*
X115458782Y-33802419D02*
X115363544Y-33850038D01*
X115363544Y-33850038D02*
X115315925Y-33897657D01*
X115315925Y-33897657D02*
X115268306Y-33992895D01*
X115268306Y-33992895D02*
X115268306Y-34088133D01*
X115268306Y-34088133D02*
X115315925Y-34230990D01*
X115315925Y-34230990D02*
X115887353Y-34802419D01*
X115887353Y-34802419D02*
X115268306Y-34802419D01*
X115839734Y-51897657D02*
X115792115Y-51850038D01*
X115792115Y-51850038D02*
X115696877Y-51802419D01*
X115696877Y-51802419D02*
X115458782Y-51802419D01*
X115458782Y-51802419D02*
X115363544Y-51850038D01*
X115363544Y-51850038D02*
X115315925Y-51897657D01*
X115315925Y-51897657D02*
X115268306Y-51992895D01*
X115268306Y-51992895D02*
X115268306Y-52088133D01*
X115268306Y-52088133D02*
X115315925Y-52230990D01*
X115315925Y-52230990D02*
X115887353Y-52802419D01*
X115887353Y-52802419D02*
X115268306Y-52802419D01*
X115839734Y-69897657D02*
X115792115Y-69850038D01*
X115792115Y-69850038D02*
X115696877Y-69802419D01*
X115696877Y-69802419D02*
X115458782Y-69802419D01*
X115458782Y-69802419D02*
X115363544Y-69850038D01*
X115363544Y-69850038D02*
X115315925Y-69897657D01*
X115315925Y-69897657D02*
X115268306Y-69992895D01*
X115268306Y-69992895D02*
X115268306Y-70088133D01*
X115268306Y-70088133D02*
X115315925Y-70230990D01*
X115315925Y-70230990D02*
X115887353Y-70802419D01*
X115887353Y-70802419D02*
X115268306Y-70802419D01*
X115839734Y-87897657D02*
X115792115Y-87850038D01*
X115792115Y-87850038D02*
X115696877Y-87802419D01*
X115696877Y-87802419D02*
X115458782Y-87802419D01*
X115458782Y-87802419D02*
X115363544Y-87850038D01*
X115363544Y-87850038D02*
X115315925Y-87897657D01*
X115315925Y-87897657D02*
X115268306Y-87992895D01*
X115268306Y-87992895D02*
X115268306Y-88088133D01*
X115268306Y-88088133D02*
X115315925Y-88230990D01*
X115315925Y-88230990D02*
X115887353Y-88802419D01*
X115887353Y-88802419D02*
X115268306Y-88802419D01*
X115839734Y-105897657D02*
X115792115Y-105850038D01*
X115792115Y-105850038D02*
X115696877Y-105802419D01*
X115696877Y-105802419D02*
X115458782Y-105802419D01*
X115458782Y-105802419D02*
X115363544Y-105850038D01*
X115363544Y-105850038D02*
X115315925Y-105897657D01*
X115315925Y-105897657D02*
X115268306Y-105992895D01*
X115268306Y-105992895D02*
X115268306Y-106088133D01*
X115268306Y-106088133D02*
X115315925Y-106230990D01*
X115315925Y-106230990D02*
X115887353Y-106802419D01*
X115887353Y-106802419D02*
X115268306Y-106802419D01*
X116868306Y-35202419D02*
X117439734Y-35202419D01*
X117154020Y-35202419D02*
X117154020Y-34202419D01*
X117154020Y-34202419D02*
X117249258Y-34345276D01*
X117249258Y-34345276D02*
X117344496Y-34440514D01*
X117344496Y-34440514D02*
X117439734Y-34488133D01*
X116868306Y-53202419D02*
X117439734Y-53202419D01*
X117154020Y-53202419D02*
X117154020Y-52202419D01*
X117154020Y-52202419D02*
X117249258Y-52345276D01*
X117249258Y-52345276D02*
X117344496Y-52440514D01*
X117344496Y-52440514D02*
X117439734Y-52488133D01*
X116868306Y-71202419D02*
X117439734Y-71202419D01*
X117154020Y-71202419D02*
X117154020Y-70202419D01*
X117154020Y-70202419D02*
X117249258Y-70345276D01*
X117249258Y-70345276D02*
X117344496Y-70440514D01*
X117344496Y-70440514D02*
X117439734Y-70488133D01*
X116868306Y-89202419D02*
X117439734Y-89202419D01*
X117154020Y-89202419D02*
X117154020Y-88202419D01*
X117154020Y-88202419D02*
X117249258Y-88345276D01*
X117249258Y-88345276D02*
X117344496Y-88440514D01*
X117344496Y-88440514D02*
X117439734Y-88488133D01*
X116868306Y-107202419D02*
X117439734Y-107202419D01*
X117154020Y-107202419D02*
X117154020Y-106202419D01*
X117154020Y-106202419D02*
X117249258Y-106345276D01*
X117249258Y-106345276D02*
X117344496Y-106440514D01*
X117344496Y-106440514D02*
X117439734Y-106488133D01*
X119192115Y-38602419D02*
X119192115Y-37602419D01*
X119192115Y-37602419D02*
X118811163Y-37602419D01*
X118811163Y-37602419D02*
X118715925Y-37650038D01*
X118715925Y-37650038D02*
X118668306Y-37697657D01*
X118668306Y-37697657D02*
X118620687Y-37792895D01*
X118620687Y-37792895D02*
X118620687Y-37935752D01*
X118620687Y-37935752D02*
X118668306Y-38030990D01*
X118668306Y-38030990D02*
X118715925Y-38078609D01*
X118715925Y-38078609D02*
X118811163Y-38126228D01*
X118811163Y-38126228D02*
X119192115Y-38126228D01*
X118239734Y-38316704D02*
X117763544Y-38316704D01*
X118334972Y-38602419D02*
X118001639Y-37602419D01*
X118001639Y-37602419D02*
X117668306Y-38602419D01*
X117144496Y-37602419D02*
X117049258Y-37602419D01*
X117049258Y-37602419D02*
X116954020Y-37650038D01*
X116954020Y-37650038D02*
X116906401Y-37697657D01*
X116906401Y-37697657D02*
X116858782Y-37792895D01*
X116858782Y-37792895D02*
X116811163Y-37983371D01*
X116811163Y-37983371D02*
X116811163Y-38221466D01*
X116811163Y-38221466D02*
X116858782Y-38411942D01*
X116858782Y-38411942D02*
X116906401Y-38507180D01*
X116906401Y-38507180D02*
X116954020Y-38554800D01*
X116954020Y-38554800D02*
X117049258Y-38602419D01*
X117049258Y-38602419D02*
X117144496Y-38602419D01*
X117144496Y-38602419D02*
X117239734Y-38554800D01*
X117239734Y-38554800D02*
X117287353Y-38507180D01*
X117287353Y-38507180D02*
X117334972Y-38411942D01*
X117334972Y-38411942D02*
X117382591Y-38221466D01*
X117382591Y-38221466D02*
X117382591Y-37983371D01*
X117382591Y-37983371D02*
X117334972Y-37792895D01*
X117334972Y-37792895D02*
X117287353Y-37697657D01*
X117287353Y-37697657D02*
X117239734Y-37650038D01*
X117239734Y-37650038D02*
X117144496Y-37602419D01*
X119192115Y-56602419D02*
X119192115Y-55602419D01*
X119192115Y-55602419D02*
X118811163Y-55602419D01*
X118811163Y-55602419D02*
X118715925Y-55650038D01*
X118715925Y-55650038D02*
X118668306Y-55697657D01*
X118668306Y-55697657D02*
X118620687Y-55792895D01*
X118620687Y-55792895D02*
X118620687Y-55935752D01*
X118620687Y-55935752D02*
X118668306Y-56030990D01*
X118668306Y-56030990D02*
X118715925Y-56078609D01*
X118715925Y-56078609D02*
X118811163Y-56126228D01*
X118811163Y-56126228D02*
X119192115Y-56126228D01*
X118239734Y-56316704D02*
X117763544Y-56316704D01*
X118334972Y-56602419D02*
X118001639Y-55602419D01*
X118001639Y-55602419D02*
X117668306Y-56602419D01*
X117144496Y-55602419D02*
X117049258Y-55602419D01*
X117049258Y-55602419D02*
X116954020Y-55650038D01*
X116954020Y-55650038D02*
X116906401Y-55697657D01*
X116906401Y-55697657D02*
X116858782Y-55792895D01*
X116858782Y-55792895D02*
X116811163Y-55983371D01*
X116811163Y-55983371D02*
X116811163Y-56221466D01*
X116811163Y-56221466D02*
X116858782Y-56411942D01*
X116858782Y-56411942D02*
X116906401Y-56507180D01*
X116906401Y-56507180D02*
X116954020Y-56554800D01*
X116954020Y-56554800D02*
X117049258Y-56602419D01*
X117049258Y-56602419D02*
X117144496Y-56602419D01*
X117144496Y-56602419D02*
X117239734Y-56554800D01*
X117239734Y-56554800D02*
X117287353Y-56507180D01*
X117287353Y-56507180D02*
X117334972Y-56411942D01*
X117334972Y-56411942D02*
X117382591Y-56221466D01*
X117382591Y-56221466D02*
X117382591Y-55983371D01*
X117382591Y-55983371D02*
X117334972Y-55792895D01*
X117334972Y-55792895D02*
X117287353Y-55697657D01*
X117287353Y-55697657D02*
X117239734Y-55650038D01*
X117239734Y-55650038D02*
X117144496Y-55602419D01*
X119192115Y-74602419D02*
X119192115Y-73602419D01*
X119192115Y-73602419D02*
X118811163Y-73602419D01*
X118811163Y-73602419D02*
X118715925Y-73650038D01*
X118715925Y-73650038D02*
X118668306Y-73697657D01*
X118668306Y-73697657D02*
X118620687Y-73792895D01*
X118620687Y-73792895D02*
X118620687Y-73935752D01*
X118620687Y-73935752D02*
X118668306Y-74030990D01*
X118668306Y-74030990D02*
X118715925Y-74078609D01*
X118715925Y-74078609D02*
X118811163Y-74126228D01*
X118811163Y-74126228D02*
X119192115Y-74126228D01*
X118239734Y-74316704D02*
X117763544Y-74316704D01*
X118334972Y-74602419D02*
X118001639Y-73602419D01*
X118001639Y-73602419D02*
X117668306Y-74602419D01*
X117144496Y-73602419D02*
X117049258Y-73602419D01*
X117049258Y-73602419D02*
X116954020Y-73650038D01*
X116954020Y-73650038D02*
X116906401Y-73697657D01*
X116906401Y-73697657D02*
X116858782Y-73792895D01*
X116858782Y-73792895D02*
X116811163Y-73983371D01*
X116811163Y-73983371D02*
X116811163Y-74221466D01*
X116811163Y-74221466D02*
X116858782Y-74411942D01*
X116858782Y-74411942D02*
X116906401Y-74507180D01*
X116906401Y-74507180D02*
X116954020Y-74554800D01*
X116954020Y-74554800D02*
X117049258Y-74602419D01*
X117049258Y-74602419D02*
X117144496Y-74602419D01*
X117144496Y-74602419D02*
X117239734Y-74554800D01*
X117239734Y-74554800D02*
X117287353Y-74507180D01*
X117287353Y-74507180D02*
X117334972Y-74411942D01*
X117334972Y-74411942D02*
X117382591Y-74221466D01*
X117382591Y-74221466D02*
X117382591Y-73983371D01*
X117382591Y-73983371D02*
X117334972Y-73792895D01*
X117334972Y-73792895D02*
X117287353Y-73697657D01*
X117287353Y-73697657D02*
X117239734Y-73650038D01*
X117239734Y-73650038D02*
X117144496Y-73602419D01*
X119192115Y-92602419D02*
X119192115Y-91602419D01*
X119192115Y-91602419D02*
X118811163Y-91602419D01*
X118811163Y-91602419D02*
X118715925Y-91650038D01*
X118715925Y-91650038D02*
X118668306Y-91697657D01*
X118668306Y-91697657D02*
X118620687Y-91792895D01*
X118620687Y-91792895D02*
X118620687Y-91935752D01*
X118620687Y-91935752D02*
X118668306Y-92030990D01*
X118668306Y-92030990D02*
X118715925Y-92078609D01*
X118715925Y-92078609D02*
X118811163Y-92126228D01*
X118811163Y-92126228D02*
X119192115Y-92126228D01*
X118239734Y-92316704D02*
X117763544Y-92316704D01*
X118334972Y-92602419D02*
X118001639Y-91602419D01*
X118001639Y-91602419D02*
X117668306Y-92602419D01*
X117144496Y-91602419D02*
X117049258Y-91602419D01*
X117049258Y-91602419D02*
X116954020Y-91650038D01*
X116954020Y-91650038D02*
X116906401Y-91697657D01*
X116906401Y-91697657D02*
X116858782Y-91792895D01*
X116858782Y-91792895D02*
X116811163Y-91983371D01*
X116811163Y-91983371D02*
X116811163Y-92221466D01*
X116811163Y-92221466D02*
X116858782Y-92411942D01*
X116858782Y-92411942D02*
X116906401Y-92507180D01*
X116906401Y-92507180D02*
X116954020Y-92554800D01*
X116954020Y-92554800D02*
X117049258Y-92602419D01*
X117049258Y-92602419D02*
X117144496Y-92602419D01*
X117144496Y-92602419D02*
X117239734Y-92554800D01*
X117239734Y-92554800D02*
X117287353Y-92507180D01*
X117287353Y-92507180D02*
X117334972Y-92411942D01*
X117334972Y-92411942D02*
X117382591Y-92221466D01*
X117382591Y-92221466D02*
X117382591Y-91983371D01*
X117382591Y-91983371D02*
X117334972Y-91792895D01*
X117334972Y-91792895D02*
X117287353Y-91697657D01*
X117287353Y-91697657D02*
X117239734Y-91650038D01*
X117239734Y-91650038D02*
X117144496Y-91602419D01*
X119192115Y-110602419D02*
X119192115Y-109602419D01*
X119192115Y-109602419D02*
X118811163Y-109602419D01*
X118811163Y-109602419D02*
X118715925Y-109650038D01*
X118715925Y-109650038D02*
X118668306Y-109697657D01*
X118668306Y-109697657D02*
X118620687Y-109792895D01*
X118620687Y-109792895D02*
X118620687Y-109935752D01*
X118620687Y-109935752D02*
X118668306Y-110030990D01*
X118668306Y-110030990D02*
X118715925Y-110078609D01*
X118715925Y-110078609D02*
X118811163Y-110126228D01*
X118811163Y-110126228D02*
X119192115Y-110126228D01*
X118239734Y-110316704D02*
X117763544Y-110316704D01*
X118334972Y-110602419D02*
X118001639Y-109602419D01*
X118001639Y-109602419D02*
X117668306Y-110602419D01*
X117144496Y-109602419D02*
X117049258Y-109602419D01*
X117049258Y-109602419D02*
X116954020Y-109650038D01*
X116954020Y-109650038D02*
X116906401Y-109697657D01*
X116906401Y-109697657D02*
X116858782Y-109792895D01*
X116858782Y-109792895D02*
X116811163Y-109983371D01*
X116811163Y-109983371D02*
X116811163Y-110221466D01*
X116811163Y-110221466D02*
X116858782Y-110411942D01*
X116858782Y-110411942D02*
X116906401Y-110507180D01*
X116906401Y-110507180D02*
X116954020Y-110554800D01*
X116954020Y-110554800D02*
X117049258Y-110602419D01*
X117049258Y-110602419D02*
X117144496Y-110602419D01*
X117144496Y-110602419D02*
X117239734Y-110554800D01*
X117239734Y-110554800D02*
X117287353Y-110507180D01*
X117287353Y-110507180D02*
X117334972Y-110411942D01*
X117334972Y-110411942D02*
X117382591Y-110221466D01*
X117382591Y-110221466D02*
X117382591Y-109983371D01*
X117382591Y-109983371D02*
X117334972Y-109792895D01*
X117334972Y-109792895D02*
X117287353Y-109697657D01*
X117287353Y-109697657D02*
X117239734Y-109650038D01*
X117239734Y-109650038D02*
X117144496Y-109602419D01*
X128218306Y-35702419D02*
X128789734Y-35702419D01*
X128504020Y-35702419D02*
X128504020Y-34702419D01*
X128504020Y-34702419D02*
X128599258Y-34845276D01*
X128599258Y-34845276D02*
X128694496Y-34940514D01*
X128694496Y-34940514D02*
X128789734Y-34988133D01*
X128218306Y-53702419D02*
X128789734Y-53702419D01*
X128504020Y-53702419D02*
X128504020Y-52702419D01*
X128504020Y-52702419D02*
X128599258Y-52845276D01*
X128599258Y-52845276D02*
X128694496Y-52940514D01*
X128694496Y-52940514D02*
X128789734Y-52988133D01*
X128218306Y-71702419D02*
X128789734Y-71702419D01*
X128504020Y-71702419D02*
X128504020Y-70702419D01*
X128504020Y-70702419D02*
X128599258Y-70845276D01*
X128599258Y-70845276D02*
X128694496Y-70940514D01*
X128694496Y-70940514D02*
X128789734Y-70988133D01*
X128218306Y-89702419D02*
X128789734Y-89702419D01*
X128504020Y-89702419D02*
X128504020Y-88702419D01*
X128504020Y-88702419D02*
X128599258Y-88845276D01*
X128599258Y-88845276D02*
X128694496Y-88940514D01*
X128694496Y-88940514D02*
X128789734Y-88988133D01*
X128218306Y-107702419D02*
X128789734Y-107702419D01*
X128504020Y-107702419D02*
X128504020Y-106702419D01*
X128504020Y-106702419D02*
X128599258Y-106845276D01*
X128599258Y-106845276D02*
X128694496Y-106940514D01*
X128694496Y-106940514D02*
X128789734Y-106988133D01*
X130489734Y-34097657D02*
X130442115Y-34050038D01*
X130442115Y-34050038D02*
X130346877Y-34002419D01*
X130346877Y-34002419D02*
X130108782Y-34002419D01*
X130108782Y-34002419D02*
X130013544Y-34050038D01*
X130013544Y-34050038D02*
X129965925Y-34097657D01*
X129965925Y-34097657D02*
X129918306Y-34192895D01*
X129918306Y-34192895D02*
X129918306Y-34288133D01*
X129918306Y-34288133D02*
X129965925Y-34430990D01*
X129965925Y-34430990D02*
X130537353Y-35002419D01*
X130537353Y-35002419D02*
X129918306Y-35002419D01*
X130489734Y-52097657D02*
X130442115Y-52050038D01*
X130442115Y-52050038D02*
X130346877Y-52002419D01*
X130346877Y-52002419D02*
X130108782Y-52002419D01*
X130108782Y-52002419D02*
X130013544Y-52050038D01*
X130013544Y-52050038D02*
X129965925Y-52097657D01*
X129965925Y-52097657D02*
X129918306Y-52192895D01*
X129918306Y-52192895D02*
X129918306Y-52288133D01*
X129918306Y-52288133D02*
X129965925Y-52430990D01*
X129965925Y-52430990D02*
X130537353Y-53002419D01*
X130537353Y-53002419D02*
X129918306Y-53002419D01*
X130489734Y-70097657D02*
X130442115Y-70050038D01*
X130442115Y-70050038D02*
X130346877Y-70002419D01*
X130346877Y-70002419D02*
X130108782Y-70002419D01*
X130108782Y-70002419D02*
X130013544Y-70050038D01*
X130013544Y-70050038D02*
X129965925Y-70097657D01*
X129965925Y-70097657D02*
X129918306Y-70192895D01*
X129918306Y-70192895D02*
X129918306Y-70288133D01*
X129918306Y-70288133D02*
X129965925Y-70430990D01*
X129965925Y-70430990D02*
X130537353Y-71002419D01*
X130537353Y-71002419D02*
X129918306Y-71002419D01*
X130489734Y-88097657D02*
X130442115Y-88050038D01*
X130442115Y-88050038D02*
X130346877Y-88002419D01*
X130346877Y-88002419D02*
X130108782Y-88002419D01*
X130108782Y-88002419D02*
X130013544Y-88050038D01*
X130013544Y-88050038D02*
X129965925Y-88097657D01*
X129965925Y-88097657D02*
X129918306Y-88192895D01*
X129918306Y-88192895D02*
X129918306Y-88288133D01*
X129918306Y-88288133D02*
X129965925Y-88430990D01*
X129965925Y-88430990D02*
X130537353Y-89002419D01*
X130537353Y-89002419D02*
X129918306Y-89002419D01*
X130489734Y-106097657D02*
X130442115Y-106050038D01*
X130442115Y-106050038D02*
X130346877Y-106002419D01*
X130346877Y-106002419D02*
X130108782Y-106002419D01*
X130108782Y-106002419D02*
X130013544Y-106050038D01*
X130013544Y-106050038D02*
X129965925Y-106097657D01*
X129965925Y-106097657D02*
X129918306Y-106192895D01*
X129918306Y-106192895D02*
X129918306Y-106288133D01*
X129918306Y-106288133D02*
X129965925Y-106430990D01*
X129965925Y-106430990D02*
X130537353Y-107002419D01*
X130537353Y-107002419D02*
X129918306Y-107002419D01*
X132437353Y-33802419D02*
X131818306Y-33802419D01*
X131818306Y-33802419D02*
X132151639Y-34183371D01*
X132151639Y-34183371D02*
X132008782Y-34183371D01*
X132008782Y-34183371D02*
X131913544Y-34230990D01*
X131913544Y-34230990D02*
X131865925Y-34278609D01*
X131865925Y-34278609D02*
X131818306Y-34373847D01*
X131818306Y-34373847D02*
X131818306Y-34611942D01*
X131818306Y-34611942D02*
X131865925Y-34707180D01*
X131865925Y-34707180D02*
X131913544Y-34754800D01*
X131913544Y-34754800D02*
X132008782Y-34802419D01*
X132008782Y-34802419D02*
X132294496Y-34802419D01*
X132294496Y-34802419D02*
X132389734Y-34754800D01*
X132389734Y-34754800D02*
X132437353Y-34707180D01*
X132437353Y-51802419D02*
X131818306Y-51802419D01*
X131818306Y-51802419D02*
X132151639Y-52183371D01*
X132151639Y-52183371D02*
X132008782Y-52183371D01*
X132008782Y-52183371D02*
X131913544Y-52230990D01*
X131913544Y-52230990D02*
X131865925Y-52278609D01*
X131865925Y-52278609D02*
X131818306Y-52373847D01*
X131818306Y-52373847D02*
X131818306Y-52611942D01*
X131818306Y-52611942D02*
X131865925Y-52707180D01*
X131865925Y-52707180D02*
X131913544Y-52754800D01*
X131913544Y-52754800D02*
X132008782Y-52802419D01*
X132008782Y-52802419D02*
X132294496Y-52802419D01*
X132294496Y-52802419D02*
X132389734Y-52754800D01*
X132389734Y-52754800D02*
X132437353Y-52707180D01*
X132437353Y-69802419D02*
X131818306Y-69802419D01*
X131818306Y-69802419D02*
X132151639Y-70183371D01*
X132151639Y-70183371D02*
X132008782Y-70183371D01*
X132008782Y-70183371D02*
X131913544Y-70230990D01*
X131913544Y-70230990D02*
X131865925Y-70278609D01*
X131865925Y-70278609D02*
X131818306Y-70373847D01*
X131818306Y-70373847D02*
X131818306Y-70611942D01*
X131818306Y-70611942D02*
X131865925Y-70707180D01*
X131865925Y-70707180D02*
X131913544Y-70754800D01*
X131913544Y-70754800D02*
X132008782Y-70802419D01*
X132008782Y-70802419D02*
X132294496Y-70802419D01*
X132294496Y-70802419D02*
X132389734Y-70754800D01*
X132389734Y-70754800D02*
X132437353Y-70707180D01*
X132437353Y-87802419D02*
X131818306Y-87802419D01*
X131818306Y-87802419D02*
X132151639Y-88183371D01*
X132151639Y-88183371D02*
X132008782Y-88183371D01*
X132008782Y-88183371D02*
X131913544Y-88230990D01*
X131913544Y-88230990D02*
X131865925Y-88278609D01*
X131865925Y-88278609D02*
X131818306Y-88373847D01*
X131818306Y-88373847D02*
X131818306Y-88611942D01*
X131818306Y-88611942D02*
X131865925Y-88707180D01*
X131865925Y-88707180D02*
X131913544Y-88754800D01*
X131913544Y-88754800D02*
X132008782Y-88802419D01*
X132008782Y-88802419D02*
X132294496Y-88802419D01*
X132294496Y-88802419D02*
X132389734Y-88754800D01*
X132389734Y-88754800D02*
X132437353Y-88707180D01*
X132437353Y-105802419D02*
X131818306Y-105802419D01*
X131818306Y-105802419D02*
X132151639Y-106183371D01*
X132151639Y-106183371D02*
X132008782Y-106183371D01*
X132008782Y-106183371D02*
X131913544Y-106230990D01*
X131913544Y-106230990D02*
X131865925Y-106278609D01*
X131865925Y-106278609D02*
X131818306Y-106373847D01*
X131818306Y-106373847D02*
X131818306Y-106611942D01*
X131818306Y-106611942D02*
X131865925Y-106707180D01*
X131865925Y-106707180D02*
X131913544Y-106754800D01*
X131913544Y-106754800D02*
X132008782Y-106802419D01*
X132008782Y-106802419D02*
X132294496Y-106802419D01*
X132294496Y-106802419D02*
X132389734Y-106754800D01*
X132389734Y-106754800D02*
X132437353Y-106707180D01*
X133713544Y-34235752D02*
X133713544Y-34902419D01*
X133951639Y-33854800D02*
X134189734Y-34569085D01*
X134189734Y-34569085D02*
X133570687Y-34569085D01*
X133713544Y-52235752D02*
X133713544Y-52902419D01*
X133951639Y-51854800D02*
X134189734Y-52569085D01*
X134189734Y-52569085D02*
X133570687Y-52569085D01*
X133713544Y-70235752D02*
X133713544Y-70902419D01*
X133951639Y-69854800D02*
X134189734Y-70569085D01*
X134189734Y-70569085D02*
X133570687Y-70569085D01*
X133713544Y-88235752D02*
X133713544Y-88902419D01*
X133951639Y-87854800D02*
X134189734Y-88569085D01*
X134189734Y-88569085D02*
X133570687Y-88569085D01*
X133713544Y-106235752D02*
X133713544Y-106902419D01*
X133951639Y-105854800D02*
X134189734Y-106569085D01*
X134189734Y-106569085D02*
X133570687Y-106569085D01*
X135265925Y-34702419D02*
X135742115Y-34702419D01*
X135742115Y-34702419D02*
X135789734Y-35178609D01*
X135789734Y-35178609D02*
X135742115Y-35130990D01*
X135742115Y-35130990D02*
X135646877Y-35083371D01*
X135646877Y-35083371D02*
X135408782Y-35083371D01*
X135408782Y-35083371D02*
X135313544Y-35130990D01*
X135313544Y-35130990D02*
X135265925Y-35178609D01*
X135265925Y-35178609D02*
X135218306Y-35273847D01*
X135218306Y-35273847D02*
X135218306Y-35511942D01*
X135218306Y-35511942D02*
X135265925Y-35607180D01*
X135265925Y-35607180D02*
X135313544Y-35654800D01*
X135313544Y-35654800D02*
X135408782Y-35702419D01*
X135408782Y-35702419D02*
X135646877Y-35702419D01*
X135646877Y-35702419D02*
X135742115Y-35654800D01*
X135742115Y-35654800D02*
X135789734Y-35607180D01*
X135265925Y-52702419D02*
X135742115Y-52702419D01*
X135742115Y-52702419D02*
X135789734Y-53178609D01*
X135789734Y-53178609D02*
X135742115Y-53130990D01*
X135742115Y-53130990D02*
X135646877Y-53083371D01*
X135646877Y-53083371D02*
X135408782Y-53083371D01*
X135408782Y-53083371D02*
X135313544Y-53130990D01*
X135313544Y-53130990D02*
X135265925Y-53178609D01*
X135265925Y-53178609D02*
X135218306Y-53273847D01*
X135218306Y-53273847D02*
X135218306Y-53511942D01*
X135218306Y-53511942D02*
X135265925Y-53607180D01*
X135265925Y-53607180D02*
X135313544Y-53654800D01*
X135313544Y-53654800D02*
X135408782Y-53702419D01*
X135408782Y-53702419D02*
X135646877Y-53702419D01*
X135646877Y-53702419D02*
X135742115Y-53654800D01*
X135742115Y-53654800D02*
X135789734Y-53607180D01*
X135265925Y-70702419D02*
X135742115Y-70702419D01*
X135742115Y-70702419D02*
X135789734Y-71178609D01*
X135789734Y-71178609D02*
X135742115Y-71130990D01*
X135742115Y-71130990D02*
X135646877Y-71083371D01*
X135646877Y-71083371D02*
X135408782Y-71083371D01*
X135408782Y-71083371D02*
X135313544Y-71130990D01*
X135313544Y-71130990D02*
X135265925Y-71178609D01*
X135265925Y-71178609D02*
X135218306Y-71273847D01*
X135218306Y-71273847D02*
X135218306Y-71511942D01*
X135218306Y-71511942D02*
X135265925Y-71607180D01*
X135265925Y-71607180D02*
X135313544Y-71654800D01*
X135313544Y-71654800D02*
X135408782Y-71702419D01*
X135408782Y-71702419D02*
X135646877Y-71702419D01*
X135646877Y-71702419D02*
X135742115Y-71654800D01*
X135742115Y-71654800D02*
X135789734Y-71607180D01*
X135265925Y-88702419D02*
X135742115Y-88702419D01*
X135742115Y-88702419D02*
X135789734Y-89178609D01*
X135789734Y-89178609D02*
X135742115Y-89130990D01*
X135742115Y-89130990D02*
X135646877Y-89083371D01*
X135646877Y-89083371D02*
X135408782Y-89083371D01*
X135408782Y-89083371D02*
X135313544Y-89130990D01*
X135313544Y-89130990D02*
X135265925Y-89178609D01*
X135265925Y-89178609D02*
X135218306Y-89273847D01*
X135218306Y-89273847D02*
X135218306Y-89511942D01*
X135218306Y-89511942D02*
X135265925Y-89607180D01*
X135265925Y-89607180D02*
X135313544Y-89654800D01*
X135313544Y-89654800D02*
X135408782Y-89702419D01*
X135408782Y-89702419D02*
X135646877Y-89702419D01*
X135646877Y-89702419D02*
X135742115Y-89654800D01*
X135742115Y-89654800D02*
X135789734Y-89607180D01*
X135265925Y-106702419D02*
X135742115Y-106702419D01*
X135742115Y-106702419D02*
X135789734Y-107178609D01*
X135789734Y-107178609D02*
X135742115Y-107130990D01*
X135742115Y-107130990D02*
X135646877Y-107083371D01*
X135646877Y-107083371D02*
X135408782Y-107083371D01*
X135408782Y-107083371D02*
X135313544Y-107130990D01*
X135313544Y-107130990D02*
X135265925Y-107178609D01*
X135265925Y-107178609D02*
X135218306Y-107273847D01*
X135218306Y-107273847D02*
X135218306Y-107511942D01*
X135218306Y-107511942D02*
X135265925Y-107607180D01*
X135265925Y-107607180D02*
X135313544Y-107654800D01*
X135313544Y-107654800D02*
X135408782Y-107702419D01*
X135408782Y-107702419D02*
X135646877Y-107702419D01*
X135646877Y-107702419D02*
X135742115Y-107654800D01*
X135742115Y-107654800D02*
X135789734Y-107607180D01*
X145265925Y-34602419D02*
X145742115Y-34602419D01*
X145742115Y-34602419D02*
X145789734Y-35078609D01*
X145789734Y-35078609D02*
X145742115Y-35030990D01*
X145742115Y-35030990D02*
X145646877Y-34983371D01*
X145646877Y-34983371D02*
X145408782Y-34983371D01*
X145408782Y-34983371D02*
X145313544Y-35030990D01*
X145313544Y-35030990D02*
X145265925Y-35078609D01*
X145265925Y-35078609D02*
X145218306Y-35173847D01*
X145218306Y-35173847D02*
X145218306Y-35411942D01*
X145218306Y-35411942D02*
X145265925Y-35507180D01*
X145265925Y-35507180D02*
X145313544Y-35554800D01*
X145313544Y-35554800D02*
X145408782Y-35602419D01*
X145408782Y-35602419D02*
X145646877Y-35602419D01*
X145646877Y-35602419D02*
X145742115Y-35554800D01*
X145742115Y-35554800D02*
X145789734Y-35507180D01*
X145265925Y-52602419D02*
X145742115Y-52602419D01*
X145742115Y-52602419D02*
X145789734Y-53078609D01*
X145789734Y-53078609D02*
X145742115Y-53030990D01*
X145742115Y-53030990D02*
X145646877Y-52983371D01*
X145646877Y-52983371D02*
X145408782Y-52983371D01*
X145408782Y-52983371D02*
X145313544Y-53030990D01*
X145313544Y-53030990D02*
X145265925Y-53078609D01*
X145265925Y-53078609D02*
X145218306Y-53173847D01*
X145218306Y-53173847D02*
X145218306Y-53411942D01*
X145218306Y-53411942D02*
X145265925Y-53507180D01*
X145265925Y-53507180D02*
X145313544Y-53554800D01*
X145313544Y-53554800D02*
X145408782Y-53602419D01*
X145408782Y-53602419D02*
X145646877Y-53602419D01*
X145646877Y-53602419D02*
X145742115Y-53554800D01*
X145742115Y-53554800D02*
X145789734Y-53507180D01*
X145265925Y-70602419D02*
X145742115Y-70602419D01*
X145742115Y-70602419D02*
X145789734Y-71078609D01*
X145789734Y-71078609D02*
X145742115Y-71030990D01*
X145742115Y-71030990D02*
X145646877Y-70983371D01*
X145646877Y-70983371D02*
X145408782Y-70983371D01*
X145408782Y-70983371D02*
X145313544Y-71030990D01*
X145313544Y-71030990D02*
X145265925Y-71078609D01*
X145265925Y-71078609D02*
X145218306Y-71173847D01*
X145218306Y-71173847D02*
X145218306Y-71411942D01*
X145218306Y-71411942D02*
X145265925Y-71507180D01*
X145265925Y-71507180D02*
X145313544Y-71554800D01*
X145313544Y-71554800D02*
X145408782Y-71602419D01*
X145408782Y-71602419D02*
X145646877Y-71602419D01*
X145646877Y-71602419D02*
X145742115Y-71554800D01*
X145742115Y-71554800D02*
X145789734Y-71507180D01*
X145265925Y-88602419D02*
X145742115Y-88602419D01*
X145742115Y-88602419D02*
X145789734Y-89078609D01*
X145789734Y-89078609D02*
X145742115Y-89030990D01*
X145742115Y-89030990D02*
X145646877Y-88983371D01*
X145646877Y-88983371D02*
X145408782Y-88983371D01*
X145408782Y-88983371D02*
X145313544Y-89030990D01*
X145313544Y-89030990D02*
X145265925Y-89078609D01*
X145265925Y-89078609D02*
X145218306Y-89173847D01*
X145218306Y-89173847D02*
X145218306Y-89411942D01*
X145218306Y-89411942D02*
X145265925Y-89507180D01*
X145265925Y-89507180D02*
X145313544Y-89554800D01*
X145313544Y-89554800D02*
X145408782Y-89602419D01*
X145408782Y-89602419D02*
X145646877Y-89602419D01*
X145646877Y-89602419D02*
X145742115Y-89554800D01*
X145742115Y-89554800D02*
X145789734Y-89507180D01*
X145265925Y-106602419D02*
X145742115Y-106602419D01*
X145742115Y-106602419D02*
X145789734Y-107078609D01*
X145789734Y-107078609D02*
X145742115Y-107030990D01*
X145742115Y-107030990D02*
X145646877Y-106983371D01*
X145646877Y-106983371D02*
X145408782Y-106983371D01*
X145408782Y-106983371D02*
X145313544Y-107030990D01*
X145313544Y-107030990D02*
X145265925Y-107078609D01*
X145265925Y-107078609D02*
X145218306Y-107173847D01*
X145218306Y-107173847D02*
X145218306Y-107411942D01*
X145218306Y-107411942D02*
X145265925Y-107507180D01*
X145265925Y-107507180D02*
X145313544Y-107554800D01*
X145313544Y-107554800D02*
X145408782Y-107602419D01*
X145408782Y-107602419D02*
X145646877Y-107602419D01*
X145646877Y-107602419D02*
X145742115Y-107554800D01*
X145742115Y-107554800D02*
X145789734Y-107507180D01*
X147013544Y-34135752D02*
X147013544Y-34802419D01*
X147251639Y-33754800D02*
X147489734Y-34469085D01*
X147489734Y-34469085D02*
X146870687Y-34469085D01*
X147013544Y-52135752D02*
X147013544Y-52802419D01*
X147251639Y-51754800D02*
X147489734Y-52469085D01*
X147489734Y-52469085D02*
X146870687Y-52469085D01*
X147013544Y-70135752D02*
X147013544Y-70802419D01*
X147251639Y-69754800D02*
X147489734Y-70469085D01*
X147489734Y-70469085D02*
X146870687Y-70469085D01*
X147013544Y-88135752D02*
X147013544Y-88802419D01*
X147251639Y-87754800D02*
X147489734Y-88469085D01*
X147489734Y-88469085D02*
X146870687Y-88469085D01*
X147013544Y-106135752D02*
X147013544Y-106802419D01*
X147251639Y-105754800D02*
X147489734Y-106469085D01*
X147489734Y-106469085D02*
X146870687Y-106469085D01*
X149137353Y-33502419D02*
X148518306Y-33502419D01*
X148518306Y-33502419D02*
X148851639Y-33883371D01*
X148851639Y-33883371D02*
X148708782Y-33883371D01*
X148708782Y-33883371D02*
X148613544Y-33930990D01*
X148613544Y-33930990D02*
X148565925Y-33978609D01*
X148565925Y-33978609D02*
X148518306Y-34073847D01*
X148518306Y-34073847D02*
X148518306Y-34311942D01*
X148518306Y-34311942D02*
X148565925Y-34407180D01*
X148565925Y-34407180D02*
X148613544Y-34454800D01*
X148613544Y-34454800D02*
X148708782Y-34502419D01*
X148708782Y-34502419D02*
X148994496Y-34502419D01*
X148994496Y-34502419D02*
X149089734Y-34454800D01*
X149089734Y-34454800D02*
X149137353Y-34407180D01*
X149137353Y-51502419D02*
X148518306Y-51502419D01*
X148518306Y-51502419D02*
X148851639Y-51883371D01*
X148851639Y-51883371D02*
X148708782Y-51883371D01*
X148708782Y-51883371D02*
X148613544Y-51930990D01*
X148613544Y-51930990D02*
X148565925Y-51978609D01*
X148565925Y-51978609D02*
X148518306Y-52073847D01*
X148518306Y-52073847D02*
X148518306Y-52311942D01*
X148518306Y-52311942D02*
X148565925Y-52407180D01*
X148565925Y-52407180D02*
X148613544Y-52454800D01*
X148613544Y-52454800D02*
X148708782Y-52502419D01*
X148708782Y-52502419D02*
X148994496Y-52502419D01*
X148994496Y-52502419D02*
X149089734Y-52454800D01*
X149089734Y-52454800D02*
X149137353Y-52407180D01*
X149137353Y-69502419D02*
X148518306Y-69502419D01*
X148518306Y-69502419D02*
X148851639Y-69883371D01*
X148851639Y-69883371D02*
X148708782Y-69883371D01*
X148708782Y-69883371D02*
X148613544Y-69930990D01*
X148613544Y-69930990D02*
X148565925Y-69978609D01*
X148565925Y-69978609D02*
X148518306Y-70073847D01*
X148518306Y-70073847D02*
X148518306Y-70311942D01*
X148518306Y-70311942D02*
X148565925Y-70407180D01*
X148565925Y-70407180D02*
X148613544Y-70454800D01*
X148613544Y-70454800D02*
X148708782Y-70502419D01*
X148708782Y-70502419D02*
X148994496Y-70502419D01*
X148994496Y-70502419D02*
X149089734Y-70454800D01*
X149089734Y-70454800D02*
X149137353Y-70407180D01*
X149137353Y-87502419D02*
X148518306Y-87502419D01*
X148518306Y-87502419D02*
X148851639Y-87883371D01*
X148851639Y-87883371D02*
X148708782Y-87883371D01*
X148708782Y-87883371D02*
X148613544Y-87930990D01*
X148613544Y-87930990D02*
X148565925Y-87978609D01*
X148565925Y-87978609D02*
X148518306Y-88073847D01*
X148518306Y-88073847D02*
X148518306Y-88311942D01*
X148518306Y-88311942D02*
X148565925Y-88407180D01*
X148565925Y-88407180D02*
X148613544Y-88454800D01*
X148613544Y-88454800D02*
X148708782Y-88502419D01*
X148708782Y-88502419D02*
X148994496Y-88502419D01*
X148994496Y-88502419D02*
X149089734Y-88454800D01*
X149089734Y-88454800D02*
X149137353Y-88407180D01*
X149137353Y-105502419D02*
X148518306Y-105502419D01*
X148518306Y-105502419D02*
X148851639Y-105883371D01*
X148851639Y-105883371D02*
X148708782Y-105883371D01*
X148708782Y-105883371D02*
X148613544Y-105930990D01*
X148613544Y-105930990D02*
X148565925Y-105978609D01*
X148565925Y-105978609D02*
X148518306Y-106073847D01*
X148518306Y-106073847D02*
X148518306Y-106311942D01*
X148518306Y-106311942D02*
X148565925Y-106407180D01*
X148565925Y-106407180D02*
X148613544Y-106454800D01*
X148613544Y-106454800D02*
X148708782Y-106502419D01*
X148708782Y-106502419D02*
X148994496Y-106502419D01*
X148994496Y-106502419D02*
X149089734Y-106454800D01*
X149089734Y-106454800D02*
X149137353Y-106407180D01*
X150589734Y-33897657D02*
X150542115Y-33850038D01*
X150542115Y-33850038D02*
X150446877Y-33802419D01*
X150446877Y-33802419D02*
X150208782Y-33802419D01*
X150208782Y-33802419D02*
X150113544Y-33850038D01*
X150113544Y-33850038D02*
X150065925Y-33897657D01*
X150065925Y-33897657D02*
X150018306Y-33992895D01*
X150018306Y-33992895D02*
X150018306Y-34088133D01*
X150018306Y-34088133D02*
X150065925Y-34230990D01*
X150065925Y-34230990D02*
X150637353Y-34802419D01*
X150637353Y-34802419D02*
X150018306Y-34802419D01*
X150589734Y-51897657D02*
X150542115Y-51850038D01*
X150542115Y-51850038D02*
X150446877Y-51802419D01*
X150446877Y-51802419D02*
X150208782Y-51802419D01*
X150208782Y-51802419D02*
X150113544Y-51850038D01*
X150113544Y-51850038D02*
X150065925Y-51897657D01*
X150065925Y-51897657D02*
X150018306Y-51992895D01*
X150018306Y-51992895D02*
X150018306Y-52088133D01*
X150018306Y-52088133D02*
X150065925Y-52230990D01*
X150065925Y-52230990D02*
X150637353Y-52802419D01*
X150637353Y-52802419D02*
X150018306Y-52802419D01*
X150589734Y-69897657D02*
X150542115Y-69850038D01*
X150542115Y-69850038D02*
X150446877Y-69802419D01*
X150446877Y-69802419D02*
X150208782Y-69802419D01*
X150208782Y-69802419D02*
X150113544Y-69850038D01*
X150113544Y-69850038D02*
X150065925Y-69897657D01*
X150065925Y-69897657D02*
X150018306Y-69992895D01*
X150018306Y-69992895D02*
X150018306Y-70088133D01*
X150018306Y-70088133D02*
X150065925Y-70230990D01*
X150065925Y-70230990D02*
X150637353Y-70802419D01*
X150637353Y-70802419D02*
X150018306Y-70802419D01*
X150589734Y-87897657D02*
X150542115Y-87850038D01*
X150542115Y-87850038D02*
X150446877Y-87802419D01*
X150446877Y-87802419D02*
X150208782Y-87802419D01*
X150208782Y-87802419D02*
X150113544Y-87850038D01*
X150113544Y-87850038D02*
X150065925Y-87897657D01*
X150065925Y-87897657D02*
X150018306Y-87992895D01*
X150018306Y-87992895D02*
X150018306Y-88088133D01*
X150018306Y-88088133D02*
X150065925Y-88230990D01*
X150065925Y-88230990D02*
X150637353Y-88802419D01*
X150637353Y-88802419D02*
X150018306Y-88802419D01*
X150589734Y-105897657D02*
X150542115Y-105850038D01*
X150542115Y-105850038D02*
X150446877Y-105802419D01*
X150446877Y-105802419D02*
X150208782Y-105802419D01*
X150208782Y-105802419D02*
X150113544Y-105850038D01*
X150113544Y-105850038D02*
X150065925Y-105897657D01*
X150065925Y-105897657D02*
X150018306Y-105992895D01*
X150018306Y-105992895D02*
X150018306Y-106088133D01*
X150018306Y-106088133D02*
X150065925Y-106230990D01*
X150065925Y-106230990D02*
X150637353Y-106802419D01*
X150637353Y-106802419D02*
X150018306Y-106802419D01*
X151618306Y-35202419D02*
X152189734Y-35202419D01*
X151904020Y-35202419D02*
X151904020Y-34202419D01*
X151904020Y-34202419D02*
X151999258Y-34345276D01*
X151999258Y-34345276D02*
X152094496Y-34440514D01*
X152094496Y-34440514D02*
X152189734Y-34488133D01*
X151618306Y-53202419D02*
X152189734Y-53202419D01*
X151904020Y-53202419D02*
X151904020Y-52202419D01*
X151904020Y-52202419D02*
X151999258Y-52345276D01*
X151999258Y-52345276D02*
X152094496Y-52440514D01*
X152094496Y-52440514D02*
X152189734Y-52488133D01*
X151618306Y-71202419D02*
X152189734Y-71202419D01*
X151904020Y-71202419D02*
X151904020Y-70202419D01*
X151904020Y-70202419D02*
X151999258Y-70345276D01*
X151999258Y-70345276D02*
X152094496Y-70440514D01*
X152094496Y-70440514D02*
X152189734Y-70488133D01*
X151618306Y-89202419D02*
X152189734Y-89202419D01*
X151904020Y-89202419D02*
X151904020Y-88202419D01*
X151904020Y-88202419D02*
X151999258Y-88345276D01*
X151999258Y-88345276D02*
X152094496Y-88440514D01*
X152094496Y-88440514D02*
X152189734Y-88488133D01*
X151618306Y-107202419D02*
X152189734Y-107202419D01*
X151904020Y-107202419D02*
X151904020Y-106202419D01*
X151904020Y-106202419D02*
X151999258Y-106345276D01*
X151999258Y-106345276D02*
X152094496Y-106440514D01*
X152094496Y-106440514D02*
X152189734Y-106488133D01*
X153942115Y-38602419D02*
X153942115Y-37602419D01*
X153942115Y-37602419D02*
X153561163Y-37602419D01*
X153561163Y-37602419D02*
X153465925Y-37650038D01*
X153465925Y-37650038D02*
X153418306Y-37697657D01*
X153418306Y-37697657D02*
X153370687Y-37792895D01*
X153370687Y-37792895D02*
X153370687Y-37935752D01*
X153370687Y-37935752D02*
X153418306Y-38030990D01*
X153418306Y-38030990D02*
X153465925Y-38078609D01*
X153465925Y-38078609D02*
X153561163Y-38126228D01*
X153561163Y-38126228D02*
X153942115Y-38126228D01*
X152989734Y-38316704D02*
X152513544Y-38316704D01*
X153084972Y-38602419D02*
X152751639Y-37602419D01*
X152751639Y-37602419D02*
X152418306Y-38602419D01*
X151894496Y-37602419D02*
X151799258Y-37602419D01*
X151799258Y-37602419D02*
X151704020Y-37650038D01*
X151704020Y-37650038D02*
X151656401Y-37697657D01*
X151656401Y-37697657D02*
X151608782Y-37792895D01*
X151608782Y-37792895D02*
X151561163Y-37983371D01*
X151561163Y-37983371D02*
X151561163Y-38221466D01*
X151561163Y-38221466D02*
X151608782Y-38411942D01*
X151608782Y-38411942D02*
X151656401Y-38507180D01*
X151656401Y-38507180D02*
X151704020Y-38554800D01*
X151704020Y-38554800D02*
X151799258Y-38602419D01*
X151799258Y-38602419D02*
X151894496Y-38602419D01*
X151894496Y-38602419D02*
X151989734Y-38554800D01*
X151989734Y-38554800D02*
X152037353Y-38507180D01*
X152037353Y-38507180D02*
X152084972Y-38411942D01*
X152084972Y-38411942D02*
X152132591Y-38221466D01*
X152132591Y-38221466D02*
X152132591Y-37983371D01*
X152132591Y-37983371D02*
X152084972Y-37792895D01*
X152084972Y-37792895D02*
X152037353Y-37697657D01*
X152037353Y-37697657D02*
X151989734Y-37650038D01*
X151989734Y-37650038D02*
X151894496Y-37602419D01*
X153942115Y-56602419D02*
X153942115Y-55602419D01*
X153942115Y-55602419D02*
X153561163Y-55602419D01*
X153561163Y-55602419D02*
X153465925Y-55650038D01*
X153465925Y-55650038D02*
X153418306Y-55697657D01*
X153418306Y-55697657D02*
X153370687Y-55792895D01*
X153370687Y-55792895D02*
X153370687Y-55935752D01*
X153370687Y-55935752D02*
X153418306Y-56030990D01*
X153418306Y-56030990D02*
X153465925Y-56078609D01*
X153465925Y-56078609D02*
X153561163Y-56126228D01*
X153561163Y-56126228D02*
X153942115Y-56126228D01*
X152989734Y-56316704D02*
X152513544Y-56316704D01*
X153084972Y-56602419D02*
X152751639Y-55602419D01*
X152751639Y-55602419D02*
X152418306Y-56602419D01*
X151894496Y-55602419D02*
X151799258Y-55602419D01*
X151799258Y-55602419D02*
X151704020Y-55650038D01*
X151704020Y-55650038D02*
X151656401Y-55697657D01*
X151656401Y-55697657D02*
X151608782Y-55792895D01*
X151608782Y-55792895D02*
X151561163Y-55983371D01*
X151561163Y-55983371D02*
X151561163Y-56221466D01*
X151561163Y-56221466D02*
X151608782Y-56411942D01*
X151608782Y-56411942D02*
X151656401Y-56507180D01*
X151656401Y-56507180D02*
X151704020Y-56554800D01*
X151704020Y-56554800D02*
X151799258Y-56602419D01*
X151799258Y-56602419D02*
X151894496Y-56602419D01*
X151894496Y-56602419D02*
X151989734Y-56554800D01*
X151989734Y-56554800D02*
X152037353Y-56507180D01*
X152037353Y-56507180D02*
X152084972Y-56411942D01*
X152084972Y-56411942D02*
X152132591Y-56221466D01*
X152132591Y-56221466D02*
X152132591Y-55983371D01*
X152132591Y-55983371D02*
X152084972Y-55792895D01*
X152084972Y-55792895D02*
X152037353Y-55697657D01*
X152037353Y-55697657D02*
X151989734Y-55650038D01*
X151989734Y-55650038D02*
X151894496Y-55602419D01*
X153942115Y-74602419D02*
X153942115Y-73602419D01*
X153942115Y-73602419D02*
X153561163Y-73602419D01*
X153561163Y-73602419D02*
X153465925Y-73650038D01*
X153465925Y-73650038D02*
X153418306Y-73697657D01*
X153418306Y-73697657D02*
X153370687Y-73792895D01*
X153370687Y-73792895D02*
X153370687Y-73935752D01*
X153370687Y-73935752D02*
X153418306Y-74030990D01*
X153418306Y-74030990D02*
X153465925Y-74078609D01*
X153465925Y-74078609D02*
X153561163Y-74126228D01*
X153561163Y-74126228D02*
X153942115Y-74126228D01*
X152989734Y-74316704D02*
X152513544Y-74316704D01*
X153084972Y-74602419D02*
X152751639Y-73602419D01*
X152751639Y-73602419D02*
X152418306Y-74602419D01*
X151894496Y-73602419D02*
X151799258Y-73602419D01*
X151799258Y-73602419D02*
X151704020Y-73650038D01*
X151704020Y-73650038D02*
X151656401Y-73697657D01*
X151656401Y-73697657D02*
X151608782Y-73792895D01*
X151608782Y-73792895D02*
X151561163Y-73983371D01*
X151561163Y-73983371D02*
X151561163Y-74221466D01*
X151561163Y-74221466D02*
X151608782Y-74411942D01*
X151608782Y-74411942D02*
X151656401Y-74507180D01*
X151656401Y-74507180D02*
X151704020Y-74554800D01*
X151704020Y-74554800D02*
X151799258Y-74602419D01*
X151799258Y-74602419D02*
X151894496Y-74602419D01*
X151894496Y-74602419D02*
X151989734Y-74554800D01*
X151989734Y-74554800D02*
X152037353Y-74507180D01*
X152037353Y-74507180D02*
X152084972Y-74411942D01*
X152084972Y-74411942D02*
X152132591Y-74221466D01*
X152132591Y-74221466D02*
X152132591Y-73983371D01*
X152132591Y-73983371D02*
X152084972Y-73792895D01*
X152084972Y-73792895D02*
X152037353Y-73697657D01*
X152037353Y-73697657D02*
X151989734Y-73650038D01*
X151989734Y-73650038D02*
X151894496Y-73602419D01*
X153942115Y-92602419D02*
X153942115Y-91602419D01*
X153942115Y-91602419D02*
X153561163Y-91602419D01*
X153561163Y-91602419D02*
X153465925Y-91650038D01*
X153465925Y-91650038D02*
X153418306Y-91697657D01*
X153418306Y-91697657D02*
X153370687Y-91792895D01*
X153370687Y-91792895D02*
X153370687Y-91935752D01*
X153370687Y-91935752D02*
X153418306Y-92030990D01*
X153418306Y-92030990D02*
X153465925Y-92078609D01*
X153465925Y-92078609D02*
X153561163Y-92126228D01*
X153561163Y-92126228D02*
X153942115Y-92126228D01*
X152989734Y-92316704D02*
X152513544Y-92316704D01*
X153084972Y-92602419D02*
X152751639Y-91602419D01*
X152751639Y-91602419D02*
X152418306Y-92602419D01*
X151894496Y-91602419D02*
X151799258Y-91602419D01*
X151799258Y-91602419D02*
X151704020Y-91650038D01*
X151704020Y-91650038D02*
X151656401Y-91697657D01*
X151656401Y-91697657D02*
X151608782Y-91792895D01*
X151608782Y-91792895D02*
X151561163Y-91983371D01*
X151561163Y-91983371D02*
X151561163Y-92221466D01*
X151561163Y-92221466D02*
X151608782Y-92411942D01*
X151608782Y-92411942D02*
X151656401Y-92507180D01*
X151656401Y-92507180D02*
X151704020Y-92554800D01*
X151704020Y-92554800D02*
X151799258Y-92602419D01*
X151799258Y-92602419D02*
X151894496Y-92602419D01*
X151894496Y-92602419D02*
X151989734Y-92554800D01*
X151989734Y-92554800D02*
X152037353Y-92507180D01*
X152037353Y-92507180D02*
X152084972Y-92411942D01*
X152084972Y-92411942D02*
X152132591Y-92221466D01*
X152132591Y-92221466D02*
X152132591Y-91983371D01*
X152132591Y-91983371D02*
X152084972Y-91792895D01*
X152084972Y-91792895D02*
X152037353Y-91697657D01*
X152037353Y-91697657D02*
X151989734Y-91650038D01*
X151989734Y-91650038D02*
X151894496Y-91602419D01*
X153942115Y-110602419D02*
X153942115Y-109602419D01*
X153942115Y-109602419D02*
X153561163Y-109602419D01*
X153561163Y-109602419D02*
X153465925Y-109650038D01*
X153465925Y-109650038D02*
X153418306Y-109697657D01*
X153418306Y-109697657D02*
X153370687Y-109792895D01*
X153370687Y-109792895D02*
X153370687Y-109935752D01*
X153370687Y-109935752D02*
X153418306Y-110030990D01*
X153418306Y-110030990D02*
X153465925Y-110078609D01*
X153465925Y-110078609D02*
X153561163Y-110126228D01*
X153561163Y-110126228D02*
X153942115Y-110126228D01*
X152989734Y-110316704D02*
X152513544Y-110316704D01*
X153084972Y-110602419D02*
X152751639Y-109602419D01*
X152751639Y-109602419D02*
X152418306Y-110602419D01*
X151894496Y-109602419D02*
X151799258Y-109602419D01*
X151799258Y-109602419D02*
X151704020Y-109650038D01*
X151704020Y-109650038D02*
X151656401Y-109697657D01*
X151656401Y-109697657D02*
X151608782Y-109792895D01*
X151608782Y-109792895D02*
X151561163Y-109983371D01*
X151561163Y-109983371D02*
X151561163Y-110221466D01*
X151561163Y-110221466D02*
X151608782Y-110411942D01*
X151608782Y-110411942D02*
X151656401Y-110507180D01*
X151656401Y-110507180D02*
X151704020Y-110554800D01*
X151704020Y-110554800D02*
X151799258Y-110602419D01*
X151799258Y-110602419D02*
X151894496Y-110602419D01*
X151894496Y-110602419D02*
X151989734Y-110554800D01*
X151989734Y-110554800D02*
X152037353Y-110507180D01*
X152037353Y-110507180D02*
X152084972Y-110411942D01*
X152084972Y-110411942D02*
X152132591Y-110221466D01*
X152132591Y-110221466D02*
X152132591Y-109983371D01*
X152132591Y-109983371D02*
X152084972Y-109792895D01*
X152084972Y-109792895D02*
X152037353Y-109697657D01*
X152037353Y-109697657D02*
X151989734Y-109650038D01*
X151989734Y-109650038D02*
X151894496Y-109602419D01*
D11*
X100303889Y-44132198D02*
X100089603Y-44203626D01*
X100089603Y-44203626D02*
X100018174Y-44275055D01*
X100018174Y-44275055D02*
X99946746Y-44417912D01*
X99946746Y-44417912D02*
X99946746Y-44632198D01*
X99946746Y-44632198D02*
X100018174Y-44775055D01*
X100018174Y-44775055D02*
X100089603Y-44846484D01*
X100089603Y-44846484D02*
X100232460Y-44917912D01*
X100232460Y-44917912D02*
X100803889Y-44917912D01*
X100803889Y-44917912D02*
X100803889Y-43417912D01*
X100803889Y-43417912D02*
X100303889Y-43417912D01*
X100303889Y-43417912D02*
X100161032Y-43489341D01*
X100161032Y-43489341D02*
X100089603Y-43560769D01*
X100089603Y-43560769D02*
X100018174Y-43703626D01*
X100018174Y-43703626D02*
X100018174Y-43846484D01*
X100018174Y-43846484D02*
X100089603Y-43989341D01*
X100089603Y-43989341D02*
X100161032Y-44060769D01*
X100161032Y-44060769D02*
X100303889Y-44132198D01*
X100303889Y-44132198D02*
X100803889Y-44132198D01*
X99303889Y-44917912D02*
X99303889Y-43917912D01*
X99303889Y-44203626D02*
X99232460Y-44060769D01*
X99232460Y-44060769D02*
X99161032Y-43989341D01*
X99161032Y-43989341D02*
X99018174Y-43917912D01*
X99018174Y-43917912D02*
X98875317Y-43917912D01*
X98375318Y-44917912D02*
X98375318Y-43917912D01*
X98375318Y-43417912D02*
X98446746Y-43489341D01*
X98446746Y-43489341D02*
X98375318Y-43560769D01*
X98375318Y-43560769D02*
X98303889Y-43489341D01*
X98303889Y-43489341D02*
X98375318Y-43417912D01*
X98375318Y-43417912D02*
X98375318Y-43560769D01*
X97018175Y-44917912D02*
X97018175Y-44132198D01*
X97018175Y-44132198D02*
X97089603Y-43989341D01*
X97089603Y-43989341D02*
X97232460Y-43917912D01*
X97232460Y-43917912D02*
X97518175Y-43917912D01*
X97518175Y-43917912D02*
X97661032Y-43989341D01*
X97018175Y-44846484D02*
X97161032Y-44917912D01*
X97161032Y-44917912D02*
X97518175Y-44917912D01*
X97518175Y-44917912D02*
X97661032Y-44846484D01*
X97661032Y-44846484D02*
X97732460Y-44703626D01*
X97732460Y-44703626D02*
X97732460Y-44560769D01*
X97732460Y-44560769D02*
X97661032Y-44417912D01*
X97661032Y-44417912D02*
X97518175Y-44346484D01*
X97518175Y-44346484D02*
X97161032Y-44346484D01*
X97161032Y-44346484D02*
X97018175Y-44275055D01*
X96303889Y-43917912D02*
X96303889Y-44917912D01*
X96303889Y-44060769D02*
X96232460Y-43989341D01*
X96232460Y-43989341D02*
X96089603Y-43917912D01*
X96089603Y-43917912D02*
X95875317Y-43917912D01*
X95875317Y-43917912D02*
X95732460Y-43989341D01*
X95732460Y-43989341D02*
X95661032Y-44132198D01*
X95661032Y-44132198D02*
X95661032Y-44917912D01*
X100875317Y-46904257D02*
X100161032Y-46904257D01*
X101018174Y-47332828D02*
X100518174Y-45832828D01*
X100518174Y-45832828D02*
X100018174Y-47332828D01*
X99303889Y-47332828D02*
X99446746Y-47261400D01*
X99446746Y-47261400D02*
X99518175Y-47118542D01*
X99518175Y-47118542D02*
X99518175Y-45832828D01*
X98875318Y-46332828D02*
X98518175Y-47332828D01*
X98518175Y-47332828D02*
X98161032Y-46332828D01*
X96946747Y-47332828D02*
X96946747Y-46547114D01*
X96946747Y-46547114D02*
X97018175Y-46404257D01*
X97018175Y-46404257D02*
X97161032Y-46332828D01*
X97161032Y-46332828D02*
X97446747Y-46332828D01*
X97446747Y-46332828D02*
X97589604Y-46404257D01*
X96946747Y-47261400D02*
X97089604Y-47332828D01*
X97089604Y-47332828D02*
X97446747Y-47332828D01*
X97446747Y-47332828D02*
X97589604Y-47261400D01*
X97589604Y-47261400D02*
X97661032Y-47118542D01*
X97661032Y-47118542D02*
X97661032Y-46975685D01*
X97661032Y-46975685D02*
X97589604Y-46832828D01*
X97589604Y-46832828D02*
X97446747Y-46761400D01*
X97446747Y-46761400D02*
X97089604Y-46761400D01*
X97089604Y-46761400D02*
X96946747Y-46689971D01*
X96232461Y-47332828D02*
X96232461Y-46332828D01*
X96232461Y-46618542D02*
X96161032Y-46475685D01*
X96161032Y-46475685D02*
X96089604Y-46404257D01*
X96089604Y-46404257D02*
X95946746Y-46332828D01*
X95946746Y-46332828D02*
X95803889Y-46332828D01*
X94732461Y-47261400D02*
X94875318Y-47332828D01*
X94875318Y-47332828D02*
X95161033Y-47332828D01*
X95161033Y-47332828D02*
X95303890Y-47261400D01*
X95303890Y-47261400D02*
X95375318Y-47118542D01*
X95375318Y-47118542D02*
X95375318Y-46547114D01*
X95375318Y-46547114D02*
X95303890Y-46404257D01*
X95303890Y-46404257D02*
X95161033Y-46332828D01*
X95161033Y-46332828D02*
X94875318Y-46332828D01*
X94875318Y-46332828D02*
X94732461Y-46404257D01*
X94732461Y-46404257D02*
X94661033Y-46547114D01*
X94661033Y-46547114D02*
X94661033Y-46689971D01*
X94661033Y-46689971D02*
X95375318Y-46832828D01*
X94161033Y-46332828D02*
X93375319Y-46332828D01*
X93375319Y-46332828D02*
X94161033Y-47332828D01*
X94161033Y-47332828D02*
X93375319Y-47332828D01*
X100303889Y-62132198D02*
X100089603Y-62203626D01*
X100089603Y-62203626D02*
X100018174Y-62275055D01*
X100018174Y-62275055D02*
X99946746Y-62417912D01*
X99946746Y-62417912D02*
X99946746Y-62632198D01*
X99946746Y-62632198D02*
X100018174Y-62775055D01*
X100018174Y-62775055D02*
X100089603Y-62846484D01*
X100089603Y-62846484D02*
X100232460Y-62917912D01*
X100232460Y-62917912D02*
X100803889Y-62917912D01*
X100803889Y-62917912D02*
X100803889Y-61417912D01*
X100803889Y-61417912D02*
X100303889Y-61417912D01*
X100303889Y-61417912D02*
X100161032Y-61489341D01*
X100161032Y-61489341D02*
X100089603Y-61560769D01*
X100089603Y-61560769D02*
X100018174Y-61703626D01*
X100018174Y-61703626D02*
X100018174Y-61846484D01*
X100018174Y-61846484D02*
X100089603Y-61989341D01*
X100089603Y-61989341D02*
X100161032Y-62060769D01*
X100161032Y-62060769D02*
X100303889Y-62132198D01*
X100303889Y-62132198D02*
X100803889Y-62132198D01*
X99303889Y-62917912D02*
X99303889Y-61917912D01*
X99303889Y-62203626D02*
X99232460Y-62060769D01*
X99232460Y-62060769D02*
X99161032Y-61989341D01*
X99161032Y-61989341D02*
X99018174Y-61917912D01*
X99018174Y-61917912D02*
X98875317Y-61917912D01*
X98375318Y-62917912D02*
X98375318Y-61917912D01*
X98375318Y-61417912D02*
X98446746Y-61489341D01*
X98446746Y-61489341D02*
X98375318Y-61560769D01*
X98375318Y-61560769D02*
X98303889Y-61489341D01*
X98303889Y-61489341D02*
X98375318Y-61417912D01*
X98375318Y-61417912D02*
X98375318Y-61560769D01*
X97018175Y-62917912D02*
X97018175Y-62132198D01*
X97018175Y-62132198D02*
X97089603Y-61989341D01*
X97089603Y-61989341D02*
X97232460Y-61917912D01*
X97232460Y-61917912D02*
X97518175Y-61917912D01*
X97518175Y-61917912D02*
X97661032Y-61989341D01*
X97018175Y-62846484D02*
X97161032Y-62917912D01*
X97161032Y-62917912D02*
X97518175Y-62917912D01*
X97518175Y-62917912D02*
X97661032Y-62846484D01*
X97661032Y-62846484D02*
X97732460Y-62703626D01*
X97732460Y-62703626D02*
X97732460Y-62560769D01*
X97732460Y-62560769D02*
X97661032Y-62417912D01*
X97661032Y-62417912D02*
X97518175Y-62346484D01*
X97518175Y-62346484D02*
X97161032Y-62346484D01*
X97161032Y-62346484D02*
X97018175Y-62275055D01*
X96303889Y-61917912D02*
X96303889Y-62917912D01*
X96303889Y-62060769D02*
X96232460Y-61989341D01*
X96232460Y-61989341D02*
X96089603Y-61917912D01*
X96089603Y-61917912D02*
X95875317Y-61917912D01*
X95875317Y-61917912D02*
X95732460Y-61989341D01*
X95732460Y-61989341D02*
X95661032Y-62132198D01*
X95661032Y-62132198D02*
X95661032Y-62917912D01*
X100875317Y-64904257D02*
X100161032Y-64904257D01*
X101018174Y-65332828D02*
X100518174Y-63832828D01*
X100518174Y-63832828D02*
X100018174Y-65332828D01*
X99303889Y-65332828D02*
X99446746Y-65261400D01*
X99446746Y-65261400D02*
X99518175Y-65118542D01*
X99518175Y-65118542D02*
X99518175Y-63832828D01*
X98875318Y-64332828D02*
X98518175Y-65332828D01*
X98518175Y-65332828D02*
X98161032Y-64332828D01*
X96946747Y-65332828D02*
X96946747Y-64547114D01*
X96946747Y-64547114D02*
X97018175Y-64404257D01*
X97018175Y-64404257D02*
X97161032Y-64332828D01*
X97161032Y-64332828D02*
X97446747Y-64332828D01*
X97446747Y-64332828D02*
X97589604Y-64404257D01*
X96946747Y-65261400D02*
X97089604Y-65332828D01*
X97089604Y-65332828D02*
X97446747Y-65332828D01*
X97446747Y-65332828D02*
X97589604Y-65261400D01*
X97589604Y-65261400D02*
X97661032Y-65118542D01*
X97661032Y-65118542D02*
X97661032Y-64975685D01*
X97661032Y-64975685D02*
X97589604Y-64832828D01*
X97589604Y-64832828D02*
X97446747Y-64761400D01*
X97446747Y-64761400D02*
X97089604Y-64761400D01*
X97089604Y-64761400D02*
X96946747Y-64689971D01*
X96232461Y-65332828D02*
X96232461Y-64332828D01*
X96232461Y-64618542D02*
X96161032Y-64475685D01*
X96161032Y-64475685D02*
X96089604Y-64404257D01*
X96089604Y-64404257D02*
X95946746Y-64332828D01*
X95946746Y-64332828D02*
X95803889Y-64332828D01*
X94732461Y-65261400D02*
X94875318Y-65332828D01*
X94875318Y-65332828D02*
X95161033Y-65332828D01*
X95161033Y-65332828D02*
X95303890Y-65261400D01*
X95303890Y-65261400D02*
X95375318Y-65118542D01*
X95375318Y-65118542D02*
X95375318Y-64547114D01*
X95375318Y-64547114D02*
X95303890Y-64404257D01*
X95303890Y-64404257D02*
X95161033Y-64332828D01*
X95161033Y-64332828D02*
X94875318Y-64332828D01*
X94875318Y-64332828D02*
X94732461Y-64404257D01*
X94732461Y-64404257D02*
X94661033Y-64547114D01*
X94661033Y-64547114D02*
X94661033Y-64689971D01*
X94661033Y-64689971D02*
X95375318Y-64832828D01*
X94161033Y-64332828D02*
X93375319Y-64332828D01*
X93375319Y-64332828D02*
X94161033Y-65332828D01*
X94161033Y-65332828D02*
X93375319Y-65332828D01*
X100303889Y-80132198D02*
X100089603Y-80203626D01*
X100089603Y-80203626D02*
X100018174Y-80275055D01*
X100018174Y-80275055D02*
X99946746Y-80417912D01*
X99946746Y-80417912D02*
X99946746Y-80632198D01*
X99946746Y-80632198D02*
X100018174Y-80775055D01*
X100018174Y-80775055D02*
X100089603Y-80846484D01*
X100089603Y-80846484D02*
X100232460Y-80917912D01*
X100232460Y-80917912D02*
X100803889Y-80917912D01*
X100803889Y-80917912D02*
X100803889Y-79417912D01*
X100803889Y-79417912D02*
X100303889Y-79417912D01*
X100303889Y-79417912D02*
X100161032Y-79489341D01*
X100161032Y-79489341D02*
X100089603Y-79560769D01*
X100089603Y-79560769D02*
X100018174Y-79703626D01*
X100018174Y-79703626D02*
X100018174Y-79846484D01*
X100018174Y-79846484D02*
X100089603Y-79989341D01*
X100089603Y-79989341D02*
X100161032Y-80060769D01*
X100161032Y-80060769D02*
X100303889Y-80132198D01*
X100303889Y-80132198D02*
X100803889Y-80132198D01*
X99303889Y-80917912D02*
X99303889Y-79917912D01*
X99303889Y-80203626D02*
X99232460Y-80060769D01*
X99232460Y-80060769D02*
X99161032Y-79989341D01*
X99161032Y-79989341D02*
X99018174Y-79917912D01*
X99018174Y-79917912D02*
X98875317Y-79917912D01*
X98375318Y-80917912D02*
X98375318Y-79917912D01*
X98375318Y-79417912D02*
X98446746Y-79489341D01*
X98446746Y-79489341D02*
X98375318Y-79560769D01*
X98375318Y-79560769D02*
X98303889Y-79489341D01*
X98303889Y-79489341D02*
X98375318Y-79417912D01*
X98375318Y-79417912D02*
X98375318Y-79560769D01*
X97018175Y-80917912D02*
X97018175Y-80132198D01*
X97018175Y-80132198D02*
X97089603Y-79989341D01*
X97089603Y-79989341D02*
X97232460Y-79917912D01*
X97232460Y-79917912D02*
X97518175Y-79917912D01*
X97518175Y-79917912D02*
X97661032Y-79989341D01*
X97018175Y-80846484D02*
X97161032Y-80917912D01*
X97161032Y-80917912D02*
X97518175Y-80917912D01*
X97518175Y-80917912D02*
X97661032Y-80846484D01*
X97661032Y-80846484D02*
X97732460Y-80703626D01*
X97732460Y-80703626D02*
X97732460Y-80560769D01*
X97732460Y-80560769D02*
X97661032Y-80417912D01*
X97661032Y-80417912D02*
X97518175Y-80346484D01*
X97518175Y-80346484D02*
X97161032Y-80346484D01*
X97161032Y-80346484D02*
X97018175Y-80275055D01*
X96303889Y-79917912D02*
X96303889Y-80917912D01*
X96303889Y-80060769D02*
X96232460Y-79989341D01*
X96232460Y-79989341D02*
X96089603Y-79917912D01*
X96089603Y-79917912D02*
X95875317Y-79917912D01*
X95875317Y-79917912D02*
X95732460Y-79989341D01*
X95732460Y-79989341D02*
X95661032Y-80132198D01*
X95661032Y-80132198D02*
X95661032Y-80917912D01*
X100875317Y-82904257D02*
X100161032Y-82904257D01*
X101018174Y-83332828D02*
X100518174Y-81832828D01*
X100518174Y-81832828D02*
X100018174Y-83332828D01*
X99303889Y-83332828D02*
X99446746Y-83261400D01*
X99446746Y-83261400D02*
X99518175Y-83118542D01*
X99518175Y-83118542D02*
X99518175Y-81832828D01*
X98875318Y-82332828D02*
X98518175Y-83332828D01*
X98518175Y-83332828D02*
X98161032Y-82332828D01*
X96946747Y-83332828D02*
X96946747Y-82547114D01*
X96946747Y-82547114D02*
X97018175Y-82404257D01*
X97018175Y-82404257D02*
X97161032Y-82332828D01*
X97161032Y-82332828D02*
X97446747Y-82332828D01*
X97446747Y-82332828D02*
X97589604Y-82404257D01*
X96946747Y-83261400D02*
X97089604Y-83332828D01*
X97089604Y-83332828D02*
X97446747Y-83332828D01*
X97446747Y-83332828D02*
X97589604Y-83261400D01*
X97589604Y-83261400D02*
X97661032Y-83118542D01*
X97661032Y-83118542D02*
X97661032Y-82975685D01*
X97661032Y-82975685D02*
X97589604Y-82832828D01*
X97589604Y-82832828D02*
X97446747Y-82761400D01*
X97446747Y-82761400D02*
X97089604Y-82761400D01*
X97089604Y-82761400D02*
X96946747Y-82689971D01*
X96232461Y-83332828D02*
X96232461Y-82332828D01*
X96232461Y-82618542D02*
X96161032Y-82475685D01*
X96161032Y-82475685D02*
X96089604Y-82404257D01*
X96089604Y-82404257D02*
X95946746Y-82332828D01*
X95946746Y-82332828D02*
X95803889Y-82332828D01*
X94732461Y-83261400D02*
X94875318Y-83332828D01*
X94875318Y-83332828D02*
X95161033Y-83332828D01*
X95161033Y-83332828D02*
X95303890Y-83261400D01*
X95303890Y-83261400D02*
X95375318Y-83118542D01*
X95375318Y-83118542D02*
X95375318Y-82547114D01*
X95375318Y-82547114D02*
X95303890Y-82404257D01*
X95303890Y-82404257D02*
X95161033Y-82332828D01*
X95161033Y-82332828D02*
X94875318Y-82332828D01*
X94875318Y-82332828D02*
X94732461Y-82404257D01*
X94732461Y-82404257D02*
X94661033Y-82547114D01*
X94661033Y-82547114D02*
X94661033Y-82689971D01*
X94661033Y-82689971D02*
X95375318Y-82832828D01*
X94161033Y-82332828D02*
X93375319Y-82332828D01*
X93375319Y-82332828D02*
X94161033Y-83332828D01*
X94161033Y-83332828D02*
X93375319Y-83332828D01*
X100303889Y-98132198D02*
X100089603Y-98203626D01*
X100089603Y-98203626D02*
X100018174Y-98275055D01*
X100018174Y-98275055D02*
X99946746Y-98417912D01*
X99946746Y-98417912D02*
X99946746Y-98632198D01*
X99946746Y-98632198D02*
X100018174Y-98775055D01*
X100018174Y-98775055D02*
X100089603Y-98846484D01*
X100089603Y-98846484D02*
X100232460Y-98917912D01*
X100232460Y-98917912D02*
X100803889Y-98917912D01*
X100803889Y-98917912D02*
X100803889Y-97417912D01*
X100803889Y-97417912D02*
X100303889Y-97417912D01*
X100303889Y-97417912D02*
X100161032Y-97489341D01*
X100161032Y-97489341D02*
X100089603Y-97560769D01*
X100089603Y-97560769D02*
X100018174Y-97703626D01*
X100018174Y-97703626D02*
X100018174Y-97846484D01*
X100018174Y-97846484D02*
X100089603Y-97989341D01*
X100089603Y-97989341D02*
X100161032Y-98060769D01*
X100161032Y-98060769D02*
X100303889Y-98132198D01*
X100303889Y-98132198D02*
X100803889Y-98132198D01*
X99303889Y-98917912D02*
X99303889Y-97917912D01*
X99303889Y-98203626D02*
X99232460Y-98060769D01*
X99232460Y-98060769D02*
X99161032Y-97989341D01*
X99161032Y-97989341D02*
X99018174Y-97917912D01*
X99018174Y-97917912D02*
X98875317Y-97917912D01*
X98375318Y-98917912D02*
X98375318Y-97917912D01*
X98375318Y-97417912D02*
X98446746Y-97489341D01*
X98446746Y-97489341D02*
X98375318Y-97560769D01*
X98375318Y-97560769D02*
X98303889Y-97489341D01*
X98303889Y-97489341D02*
X98375318Y-97417912D01*
X98375318Y-97417912D02*
X98375318Y-97560769D01*
X97018175Y-98917912D02*
X97018175Y-98132198D01*
X97018175Y-98132198D02*
X97089603Y-97989341D01*
X97089603Y-97989341D02*
X97232460Y-97917912D01*
X97232460Y-97917912D02*
X97518175Y-97917912D01*
X97518175Y-97917912D02*
X97661032Y-97989341D01*
X97018175Y-98846484D02*
X97161032Y-98917912D01*
X97161032Y-98917912D02*
X97518175Y-98917912D01*
X97518175Y-98917912D02*
X97661032Y-98846484D01*
X97661032Y-98846484D02*
X97732460Y-98703626D01*
X97732460Y-98703626D02*
X97732460Y-98560769D01*
X97732460Y-98560769D02*
X97661032Y-98417912D01*
X97661032Y-98417912D02*
X97518175Y-98346484D01*
X97518175Y-98346484D02*
X97161032Y-98346484D01*
X97161032Y-98346484D02*
X97018175Y-98275055D01*
X96303889Y-97917912D02*
X96303889Y-98917912D01*
X96303889Y-98060769D02*
X96232460Y-97989341D01*
X96232460Y-97989341D02*
X96089603Y-97917912D01*
X96089603Y-97917912D02*
X95875317Y-97917912D01*
X95875317Y-97917912D02*
X95732460Y-97989341D01*
X95732460Y-97989341D02*
X95661032Y-98132198D01*
X95661032Y-98132198D02*
X95661032Y-98917912D01*
X100875317Y-100904257D02*
X100161032Y-100904257D01*
X101018174Y-101332828D02*
X100518174Y-99832828D01*
X100518174Y-99832828D02*
X100018174Y-101332828D01*
X99303889Y-101332828D02*
X99446746Y-101261400D01*
X99446746Y-101261400D02*
X99518175Y-101118542D01*
X99518175Y-101118542D02*
X99518175Y-99832828D01*
X98875318Y-100332828D02*
X98518175Y-101332828D01*
X98518175Y-101332828D02*
X98161032Y-100332828D01*
X96946747Y-101332828D02*
X96946747Y-100547114D01*
X96946747Y-100547114D02*
X97018175Y-100404257D01*
X97018175Y-100404257D02*
X97161032Y-100332828D01*
X97161032Y-100332828D02*
X97446747Y-100332828D01*
X97446747Y-100332828D02*
X97589604Y-100404257D01*
X96946747Y-101261400D02*
X97089604Y-101332828D01*
X97089604Y-101332828D02*
X97446747Y-101332828D01*
X97446747Y-101332828D02*
X97589604Y-101261400D01*
X97589604Y-101261400D02*
X97661032Y-101118542D01*
X97661032Y-101118542D02*
X97661032Y-100975685D01*
X97661032Y-100975685D02*
X97589604Y-100832828D01*
X97589604Y-100832828D02*
X97446747Y-100761400D01*
X97446747Y-100761400D02*
X97089604Y-100761400D01*
X97089604Y-100761400D02*
X96946747Y-100689971D01*
X96232461Y-101332828D02*
X96232461Y-100332828D01*
X96232461Y-100618542D02*
X96161032Y-100475685D01*
X96161032Y-100475685D02*
X96089604Y-100404257D01*
X96089604Y-100404257D02*
X95946746Y-100332828D01*
X95946746Y-100332828D02*
X95803889Y-100332828D01*
X94732461Y-101261400D02*
X94875318Y-101332828D01*
X94875318Y-101332828D02*
X95161033Y-101332828D01*
X95161033Y-101332828D02*
X95303890Y-101261400D01*
X95303890Y-101261400D02*
X95375318Y-101118542D01*
X95375318Y-101118542D02*
X95375318Y-100547114D01*
X95375318Y-100547114D02*
X95303890Y-100404257D01*
X95303890Y-100404257D02*
X95161033Y-100332828D01*
X95161033Y-100332828D02*
X94875318Y-100332828D01*
X94875318Y-100332828D02*
X94732461Y-100404257D01*
X94732461Y-100404257D02*
X94661033Y-100547114D01*
X94661033Y-100547114D02*
X94661033Y-100689971D01*
X94661033Y-100689971D02*
X95375318Y-100832828D01*
X94161033Y-100332828D02*
X93375319Y-100332828D01*
X93375319Y-100332828D02*
X94161033Y-101332828D01*
X94161033Y-101332828D02*
X93375319Y-101332828D01*
X100303889Y-116132198D02*
X100089603Y-116203626D01*
X100089603Y-116203626D02*
X100018174Y-116275055D01*
X100018174Y-116275055D02*
X99946746Y-116417912D01*
X99946746Y-116417912D02*
X99946746Y-116632198D01*
X99946746Y-116632198D02*
X100018174Y-116775055D01*
X100018174Y-116775055D02*
X100089603Y-116846484D01*
X100089603Y-116846484D02*
X100232460Y-116917912D01*
X100232460Y-116917912D02*
X100803889Y-116917912D01*
X100803889Y-116917912D02*
X100803889Y-115417912D01*
X100803889Y-115417912D02*
X100303889Y-115417912D01*
X100303889Y-115417912D02*
X100161032Y-115489341D01*
X100161032Y-115489341D02*
X100089603Y-115560769D01*
X100089603Y-115560769D02*
X100018174Y-115703626D01*
X100018174Y-115703626D02*
X100018174Y-115846484D01*
X100018174Y-115846484D02*
X100089603Y-115989341D01*
X100089603Y-115989341D02*
X100161032Y-116060769D01*
X100161032Y-116060769D02*
X100303889Y-116132198D01*
X100303889Y-116132198D02*
X100803889Y-116132198D01*
X99303889Y-116917912D02*
X99303889Y-115917912D01*
X99303889Y-116203626D02*
X99232460Y-116060769D01*
X99232460Y-116060769D02*
X99161032Y-115989341D01*
X99161032Y-115989341D02*
X99018174Y-115917912D01*
X99018174Y-115917912D02*
X98875317Y-115917912D01*
X98375318Y-116917912D02*
X98375318Y-115917912D01*
X98375318Y-115417912D02*
X98446746Y-115489341D01*
X98446746Y-115489341D02*
X98375318Y-115560769D01*
X98375318Y-115560769D02*
X98303889Y-115489341D01*
X98303889Y-115489341D02*
X98375318Y-115417912D01*
X98375318Y-115417912D02*
X98375318Y-115560769D01*
X97018175Y-116917912D02*
X97018175Y-116132198D01*
X97018175Y-116132198D02*
X97089603Y-115989341D01*
X97089603Y-115989341D02*
X97232460Y-115917912D01*
X97232460Y-115917912D02*
X97518175Y-115917912D01*
X97518175Y-115917912D02*
X97661032Y-115989341D01*
X97018175Y-116846484D02*
X97161032Y-116917912D01*
X97161032Y-116917912D02*
X97518175Y-116917912D01*
X97518175Y-116917912D02*
X97661032Y-116846484D01*
X97661032Y-116846484D02*
X97732460Y-116703626D01*
X97732460Y-116703626D02*
X97732460Y-116560769D01*
X97732460Y-116560769D02*
X97661032Y-116417912D01*
X97661032Y-116417912D02*
X97518175Y-116346484D01*
X97518175Y-116346484D02*
X97161032Y-116346484D01*
X97161032Y-116346484D02*
X97018175Y-116275055D01*
X96303889Y-115917912D02*
X96303889Y-116917912D01*
X96303889Y-116060769D02*
X96232460Y-115989341D01*
X96232460Y-115989341D02*
X96089603Y-115917912D01*
X96089603Y-115917912D02*
X95875317Y-115917912D01*
X95875317Y-115917912D02*
X95732460Y-115989341D01*
X95732460Y-115989341D02*
X95661032Y-116132198D01*
X95661032Y-116132198D02*
X95661032Y-116917912D01*
X100875317Y-118904257D02*
X100161032Y-118904257D01*
X101018174Y-119332828D02*
X100518174Y-117832828D01*
X100518174Y-117832828D02*
X100018174Y-119332828D01*
X99303889Y-119332828D02*
X99446746Y-119261400D01*
X99446746Y-119261400D02*
X99518175Y-119118542D01*
X99518175Y-119118542D02*
X99518175Y-117832828D01*
X98875318Y-118332828D02*
X98518175Y-119332828D01*
X98518175Y-119332828D02*
X98161032Y-118332828D01*
X96946747Y-119332828D02*
X96946747Y-118547114D01*
X96946747Y-118547114D02*
X97018175Y-118404257D01*
X97018175Y-118404257D02*
X97161032Y-118332828D01*
X97161032Y-118332828D02*
X97446747Y-118332828D01*
X97446747Y-118332828D02*
X97589604Y-118404257D01*
X96946747Y-119261400D02*
X97089604Y-119332828D01*
X97089604Y-119332828D02*
X97446747Y-119332828D01*
X97446747Y-119332828D02*
X97589604Y-119261400D01*
X97589604Y-119261400D02*
X97661032Y-119118542D01*
X97661032Y-119118542D02*
X97661032Y-118975685D01*
X97661032Y-118975685D02*
X97589604Y-118832828D01*
X97589604Y-118832828D02*
X97446747Y-118761400D01*
X97446747Y-118761400D02*
X97089604Y-118761400D01*
X97089604Y-118761400D02*
X96946747Y-118689971D01*
X96232461Y-119332828D02*
X96232461Y-118332828D01*
X96232461Y-118618542D02*
X96161032Y-118475685D01*
X96161032Y-118475685D02*
X96089604Y-118404257D01*
X96089604Y-118404257D02*
X95946746Y-118332828D01*
X95946746Y-118332828D02*
X95803889Y-118332828D01*
X94732461Y-119261400D02*
X94875318Y-119332828D01*
X94875318Y-119332828D02*
X95161033Y-119332828D01*
X95161033Y-119332828D02*
X95303890Y-119261400D01*
X95303890Y-119261400D02*
X95375318Y-119118542D01*
X95375318Y-119118542D02*
X95375318Y-118547114D01*
X95375318Y-118547114D02*
X95303890Y-118404257D01*
X95303890Y-118404257D02*
X95161033Y-118332828D01*
X95161033Y-118332828D02*
X94875318Y-118332828D01*
X94875318Y-118332828D02*
X94732461Y-118404257D01*
X94732461Y-118404257D02*
X94661033Y-118547114D01*
X94661033Y-118547114D02*
X94661033Y-118689971D01*
X94661033Y-118689971D02*
X95375318Y-118832828D01*
X94161033Y-118332828D02*
X93375319Y-118332828D01*
X93375319Y-118332828D02*
X94161033Y-119332828D01*
X94161033Y-119332828D02*
X93375319Y-119332828D01*
X135053889Y-44132198D02*
X134839603Y-44203626D01*
X134839603Y-44203626D02*
X134768174Y-44275055D01*
X134768174Y-44275055D02*
X134696746Y-44417912D01*
X134696746Y-44417912D02*
X134696746Y-44632198D01*
X134696746Y-44632198D02*
X134768174Y-44775055D01*
X134768174Y-44775055D02*
X134839603Y-44846484D01*
X134839603Y-44846484D02*
X134982460Y-44917912D01*
X134982460Y-44917912D02*
X135553889Y-44917912D01*
X135553889Y-44917912D02*
X135553889Y-43417912D01*
X135553889Y-43417912D02*
X135053889Y-43417912D01*
X135053889Y-43417912D02*
X134911032Y-43489341D01*
X134911032Y-43489341D02*
X134839603Y-43560769D01*
X134839603Y-43560769D02*
X134768174Y-43703626D01*
X134768174Y-43703626D02*
X134768174Y-43846484D01*
X134768174Y-43846484D02*
X134839603Y-43989341D01*
X134839603Y-43989341D02*
X134911032Y-44060769D01*
X134911032Y-44060769D02*
X135053889Y-44132198D01*
X135053889Y-44132198D02*
X135553889Y-44132198D01*
X134053889Y-44917912D02*
X134053889Y-43917912D01*
X134053889Y-44203626D02*
X133982460Y-44060769D01*
X133982460Y-44060769D02*
X133911032Y-43989341D01*
X133911032Y-43989341D02*
X133768174Y-43917912D01*
X133768174Y-43917912D02*
X133625317Y-43917912D01*
X133125318Y-44917912D02*
X133125318Y-43917912D01*
X133125318Y-43417912D02*
X133196746Y-43489341D01*
X133196746Y-43489341D02*
X133125318Y-43560769D01*
X133125318Y-43560769D02*
X133053889Y-43489341D01*
X133053889Y-43489341D02*
X133125318Y-43417912D01*
X133125318Y-43417912D02*
X133125318Y-43560769D01*
X131768175Y-44917912D02*
X131768175Y-44132198D01*
X131768175Y-44132198D02*
X131839603Y-43989341D01*
X131839603Y-43989341D02*
X131982460Y-43917912D01*
X131982460Y-43917912D02*
X132268175Y-43917912D01*
X132268175Y-43917912D02*
X132411032Y-43989341D01*
X131768175Y-44846484D02*
X131911032Y-44917912D01*
X131911032Y-44917912D02*
X132268175Y-44917912D01*
X132268175Y-44917912D02*
X132411032Y-44846484D01*
X132411032Y-44846484D02*
X132482460Y-44703626D01*
X132482460Y-44703626D02*
X132482460Y-44560769D01*
X132482460Y-44560769D02*
X132411032Y-44417912D01*
X132411032Y-44417912D02*
X132268175Y-44346484D01*
X132268175Y-44346484D02*
X131911032Y-44346484D01*
X131911032Y-44346484D02*
X131768175Y-44275055D01*
X131053889Y-43917912D02*
X131053889Y-44917912D01*
X131053889Y-44060769D02*
X130982460Y-43989341D01*
X130982460Y-43989341D02*
X130839603Y-43917912D01*
X130839603Y-43917912D02*
X130625317Y-43917912D01*
X130625317Y-43917912D02*
X130482460Y-43989341D01*
X130482460Y-43989341D02*
X130411032Y-44132198D01*
X130411032Y-44132198D02*
X130411032Y-44917912D01*
X135625317Y-46904257D02*
X134911032Y-46904257D01*
X135768174Y-47332828D02*
X135268174Y-45832828D01*
X135268174Y-45832828D02*
X134768174Y-47332828D01*
X134053889Y-47332828D02*
X134196746Y-47261400D01*
X134196746Y-47261400D02*
X134268175Y-47118542D01*
X134268175Y-47118542D02*
X134268175Y-45832828D01*
X133625318Y-46332828D02*
X133268175Y-47332828D01*
X133268175Y-47332828D02*
X132911032Y-46332828D01*
X131696747Y-47332828D02*
X131696747Y-46547114D01*
X131696747Y-46547114D02*
X131768175Y-46404257D01*
X131768175Y-46404257D02*
X131911032Y-46332828D01*
X131911032Y-46332828D02*
X132196747Y-46332828D01*
X132196747Y-46332828D02*
X132339604Y-46404257D01*
X131696747Y-47261400D02*
X131839604Y-47332828D01*
X131839604Y-47332828D02*
X132196747Y-47332828D01*
X132196747Y-47332828D02*
X132339604Y-47261400D01*
X132339604Y-47261400D02*
X132411032Y-47118542D01*
X132411032Y-47118542D02*
X132411032Y-46975685D01*
X132411032Y-46975685D02*
X132339604Y-46832828D01*
X132339604Y-46832828D02*
X132196747Y-46761400D01*
X132196747Y-46761400D02*
X131839604Y-46761400D01*
X131839604Y-46761400D02*
X131696747Y-46689971D01*
X130982461Y-47332828D02*
X130982461Y-46332828D01*
X130982461Y-46618542D02*
X130911032Y-46475685D01*
X130911032Y-46475685D02*
X130839604Y-46404257D01*
X130839604Y-46404257D02*
X130696746Y-46332828D01*
X130696746Y-46332828D02*
X130553889Y-46332828D01*
X129482461Y-47261400D02*
X129625318Y-47332828D01*
X129625318Y-47332828D02*
X129911033Y-47332828D01*
X129911033Y-47332828D02*
X130053890Y-47261400D01*
X130053890Y-47261400D02*
X130125318Y-47118542D01*
X130125318Y-47118542D02*
X130125318Y-46547114D01*
X130125318Y-46547114D02*
X130053890Y-46404257D01*
X130053890Y-46404257D02*
X129911033Y-46332828D01*
X129911033Y-46332828D02*
X129625318Y-46332828D01*
X129625318Y-46332828D02*
X129482461Y-46404257D01*
X129482461Y-46404257D02*
X129411033Y-46547114D01*
X129411033Y-46547114D02*
X129411033Y-46689971D01*
X129411033Y-46689971D02*
X130125318Y-46832828D01*
X128911033Y-46332828D02*
X128125319Y-46332828D01*
X128125319Y-46332828D02*
X128911033Y-47332828D01*
X128911033Y-47332828D02*
X128125319Y-47332828D01*
X135053889Y-62132198D02*
X134839603Y-62203626D01*
X134839603Y-62203626D02*
X134768174Y-62275055D01*
X134768174Y-62275055D02*
X134696746Y-62417912D01*
X134696746Y-62417912D02*
X134696746Y-62632198D01*
X134696746Y-62632198D02*
X134768174Y-62775055D01*
X134768174Y-62775055D02*
X134839603Y-62846484D01*
X134839603Y-62846484D02*
X134982460Y-62917912D01*
X134982460Y-62917912D02*
X135553889Y-62917912D01*
X135553889Y-62917912D02*
X135553889Y-61417912D01*
X135553889Y-61417912D02*
X135053889Y-61417912D01*
X135053889Y-61417912D02*
X134911032Y-61489341D01*
X134911032Y-61489341D02*
X134839603Y-61560769D01*
X134839603Y-61560769D02*
X134768174Y-61703626D01*
X134768174Y-61703626D02*
X134768174Y-61846484D01*
X134768174Y-61846484D02*
X134839603Y-61989341D01*
X134839603Y-61989341D02*
X134911032Y-62060769D01*
X134911032Y-62060769D02*
X135053889Y-62132198D01*
X135053889Y-62132198D02*
X135553889Y-62132198D01*
X134053889Y-62917912D02*
X134053889Y-61917912D01*
X134053889Y-62203626D02*
X133982460Y-62060769D01*
X133982460Y-62060769D02*
X133911032Y-61989341D01*
X133911032Y-61989341D02*
X133768174Y-61917912D01*
X133768174Y-61917912D02*
X133625317Y-61917912D01*
X133125318Y-62917912D02*
X133125318Y-61917912D01*
X133125318Y-61417912D02*
X133196746Y-61489341D01*
X133196746Y-61489341D02*
X133125318Y-61560769D01*
X133125318Y-61560769D02*
X133053889Y-61489341D01*
X133053889Y-61489341D02*
X133125318Y-61417912D01*
X133125318Y-61417912D02*
X133125318Y-61560769D01*
X131768175Y-62917912D02*
X131768175Y-62132198D01*
X131768175Y-62132198D02*
X131839603Y-61989341D01*
X131839603Y-61989341D02*
X131982460Y-61917912D01*
X131982460Y-61917912D02*
X132268175Y-61917912D01*
X132268175Y-61917912D02*
X132411032Y-61989341D01*
X131768175Y-62846484D02*
X131911032Y-62917912D01*
X131911032Y-62917912D02*
X132268175Y-62917912D01*
X132268175Y-62917912D02*
X132411032Y-62846484D01*
X132411032Y-62846484D02*
X132482460Y-62703626D01*
X132482460Y-62703626D02*
X132482460Y-62560769D01*
X132482460Y-62560769D02*
X132411032Y-62417912D01*
X132411032Y-62417912D02*
X132268175Y-62346484D01*
X132268175Y-62346484D02*
X131911032Y-62346484D01*
X131911032Y-62346484D02*
X131768175Y-62275055D01*
X131053889Y-61917912D02*
X131053889Y-62917912D01*
X131053889Y-62060769D02*
X130982460Y-61989341D01*
X130982460Y-61989341D02*
X130839603Y-61917912D01*
X130839603Y-61917912D02*
X130625317Y-61917912D01*
X130625317Y-61917912D02*
X130482460Y-61989341D01*
X130482460Y-61989341D02*
X130411032Y-62132198D01*
X130411032Y-62132198D02*
X130411032Y-62917912D01*
X135625317Y-64904257D02*
X134911032Y-64904257D01*
X135768174Y-65332828D02*
X135268174Y-63832828D01*
X135268174Y-63832828D02*
X134768174Y-65332828D01*
X134053889Y-65332828D02*
X134196746Y-65261400D01*
X134196746Y-65261400D02*
X134268175Y-65118542D01*
X134268175Y-65118542D02*
X134268175Y-63832828D01*
X133625318Y-64332828D02*
X133268175Y-65332828D01*
X133268175Y-65332828D02*
X132911032Y-64332828D01*
X131696747Y-65332828D02*
X131696747Y-64547114D01*
X131696747Y-64547114D02*
X131768175Y-64404257D01*
X131768175Y-64404257D02*
X131911032Y-64332828D01*
X131911032Y-64332828D02*
X132196747Y-64332828D01*
X132196747Y-64332828D02*
X132339604Y-64404257D01*
X131696747Y-65261400D02*
X131839604Y-65332828D01*
X131839604Y-65332828D02*
X132196747Y-65332828D01*
X132196747Y-65332828D02*
X132339604Y-65261400D01*
X132339604Y-65261400D02*
X132411032Y-65118542D01*
X132411032Y-65118542D02*
X132411032Y-64975685D01*
X132411032Y-64975685D02*
X132339604Y-64832828D01*
X132339604Y-64832828D02*
X132196747Y-64761400D01*
X132196747Y-64761400D02*
X131839604Y-64761400D01*
X131839604Y-64761400D02*
X131696747Y-64689971D01*
X130982461Y-65332828D02*
X130982461Y-64332828D01*
X130982461Y-64618542D02*
X130911032Y-64475685D01*
X130911032Y-64475685D02*
X130839604Y-64404257D01*
X130839604Y-64404257D02*
X130696746Y-64332828D01*
X130696746Y-64332828D02*
X130553889Y-64332828D01*
X129482461Y-65261400D02*
X129625318Y-65332828D01*
X129625318Y-65332828D02*
X129911033Y-65332828D01*
X129911033Y-65332828D02*
X130053890Y-65261400D01*
X130053890Y-65261400D02*
X130125318Y-65118542D01*
X130125318Y-65118542D02*
X130125318Y-64547114D01*
X130125318Y-64547114D02*
X130053890Y-64404257D01*
X130053890Y-64404257D02*
X129911033Y-64332828D01*
X129911033Y-64332828D02*
X129625318Y-64332828D01*
X129625318Y-64332828D02*
X129482461Y-64404257D01*
X129482461Y-64404257D02*
X129411033Y-64547114D01*
X129411033Y-64547114D02*
X129411033Y-64689971D01*
X129411033Y-64689971D02*
X130125318Y-64832828D01*
X128911033Y-64332828D02*
X128125319Y-64332828D01*
X128125319Y-64332828D02*
X128911033Y-65332828D01*
X128911033Y-65332828D02*
X128125319Y-65332828D01*
X135053889Y-80132198D02*
X134839603Y-80203626D01*
X134839603Y-80203626D02*
X134768174Y-80275055D01*
X134768174Y-80275055D02*
X134696746Y-80417912D01*
X134696746Y-80417912D02*
X134696746Y-80632198D01*
X134696746Y-80632198D02*
X134768174Y-80775055D01*
X134768174Y-80775055D02*
X134839603Y-80846484D01*
X134839603Y-80846484D02*
X134982460Y-80917912D01*
X134982460Y-80917912D02*
X135553889Y-80917912D01*
X135553889Y-80917912D02*
X135553889Y-79417912D01*
X135553889Y-79417912D02*
X135053889Y-79417912D01*
X135053889Y-79417912D02*
X134911032Y-79489341D01*
X134911032Y-79489341D02*
X134839603Y-79560769D01*
X134839603Y-79560769D02*
X134768174Y-79703626D01*
X134768174Y-79703626D02*
X134768174Y-79846484D01*
X134768174Y-79846484D02*
X134839603Y-79989341D01*
X134839603Y-79989341D02*
X134911032Y-80060769D01*
X134911032Y-80060769D02*
X135053889Y-80132198D01*
X135053889Y-80132198D02*
X135553889Y-80132198D01*
X134053889Y-80917912D02*
X134053889Y-79917912D01*
X134053889Y-80203626D02*
X133982460Y-80060769D01*
X133982460Y-80060769D02*
X133911032Y-79989341D01*
X133911032Y-79989341D02*
X133768174Y-79917912D01*
X133768174Y-79917912D02*
X133625317Y-79917912D01*
X133125318Y-80917912D02*
X133125318Y-79917912D01*
X133125318Y-79417912D02*
X133196746Y-79489341D01*
X133196746Y-79489341D02*
X133125318Y-79560769D01*
X133125318Y-79560769D02*
X133053889Y-79489341D01*
X133053889Y-79489341D02*
X133125318Y-79417912D01*
X133125318Y-79417912D02*
X133125318Y-79560769D01*
X131768175Y-80917912D02*
X131768175Y-80132198D01*
X131768175Y-80132198D02*
X131839603Y-79989341D01*
X131839603Y-79989341D02*
X131982460Y-79917912D01*
X131982460Y-79917912D02*
X132268175Y-79917912D01*
X132268175Y-79917912D02*
X132411032Y-79989341D01*
X131768175Y-80846484D02*
X131911032Y-80917912D01*
X131911032Y-80917912D02*
X132268175Y-80917912D01*
X132268175Y-80917912D02*
X132411032Y-80846484D01*
X132411032Y-80846484D02*
X132482460Y-80703626D01*
X132482460Y-80703626D02*
X132482460Y-80560769D01*
X132482460Y-80560769D02*
X132411032Y-80417912D01*
X132411032Y-80417912D02*
X132268175Y-80346484D01*
X132268175Y-80346484D02*
X131911032Y-80346484D01*
X131911032Y-80346484D02*
X131768175Y-80275055D01*
X131053889Y-79917912D02*
X131053889Y-80917912D01*
X131053889Y-80060769D02*
X130982460Y-79989341D01*
X130982460Y-79989341D02*
X130839603Y-79917912D01*
X130839603Y-79917912D02*
X130625317Y-79917912D01*
X130625317Y-79917912D02*
X130482460Y-79989341D01*
X130482460Y-79989341D02*
X130411032Y-80132198D01*
X130411032Y-80132198D02*
X130411032Y-80917912D01*
X135625317Y-82904257D02*
X134911032Y-82904257D01*
X135768174Y-83332828D02*
X135268174Y-81832828D01*
X135268174Y-81832828D02*
X134768174Y-83332828D01*
X134053889Y-83332828D02*
X134196746Y-83261400D01*
X134196746Y-83261400D02*
X134268175Y-83118542D01*
X134268175Y-83118542D02*
X134268175Y-81832828D01*
X133625318Y-82332828D02*
X133268175Y-83332828D01*
X133268175Y-83332828D02*
X132911032Y-82332828D01*
X131696747Y-83332828D02*
X131696747Y-82547114D01*
X131696747Y-82547114D02*
X131768175Y-82404257D01*
X131768175Y-82404257D02*
X131911032Y-82332828D01*
X131911032Y-82332828D02*
X132196747Y-82332828D01*
X132196747Y-82332828D02*
X132339604Y-82404257D01*
X131696747Y-83261400D02*
X131839604Y-83332828D01*
X131839604Y-83332828D02*
X132196747Y-83332828D01*
X132196747Y-83332828D02*
X132339604Y-83261400D01*
X132339604Y-83261400D02*
X132411032Y-83118542D01*
X132411032Y-83118542D02*
X132411032Y-82975685D01*
X132411032Y-82975685D02*
X132339604Y-82832828D01*
X132339604Y-82832828D02*
X132196747Y-82761400D01*
X132196747Y-82761400D02*
X131839604Y-82761400D01*
X131839604Y-82761400D02*
X131696747Y-82689971D01*
X130982461Y-83332828D02*
X130982461Y-82332828D01*
X130982461Y-82618542D02*
X130911032Y-82475685D01*
X130911032Y-82475685D02*
X130839604Y-82404257D01*
X130839604Y-82404257D02*
X130696746Y-82332828D01*
X130696746Y-82332828D02*
X130553889Y-82332828D01*
X129482461Y-83261400D02*
X129625318Y-83332828D01*
X129625318Y-83332828D02*
X129911033Y-83332828D01*
X129911033Y-83332828D02*
X130053890Y-83261400D01*
X130053890Y-83261400D02*
X130125318Y-83118542D01*
X130125318Y-83118542D02*
X130125318Y-82547114D01*
X130125318Y-82547114D02*
X130053890Y-82404257D01*
X130053890Y-82404257D02*
X129911033Y-82332828D01*
X129911033Y-82332828D02*
X129625318Y-82332828D01*
X129625318Y-82332828D02*
X129482461Y-82404257D01*
X129482461Y-82404257D02*
X129411033Y-82547114D01*
X129411033Y-82547114D02*
X129411033Y-82689971D01*
X129411033Y-82689971D02*
X130125318Y-82832828D01*
X128911033Y-82332828D02*
X128125319Y-82332828D01*
X128125319Y-82332828D02*
X128911033Y-83332828D01*
X128911033Y-83332828D02*
X128125319Y-83332828D01*
X135053889Y-98132198D02*
X134839603Y-98203626D01*
X134839603Y-98203626D02*
X134768174Y-98275055D01*
X134768174Y-98275055D02*
X134696746Y-98417912D01*
X134696746Y-98417912D02*
X134696746Y-98632198D01*
X134696746Y-98632198D02*
X134768174Y-98775055D01*
X134768174Y-98775055D02*
X134839603Y-98846484D01*
X134839603Y-98846484D02*
X134982460Y-98917912D01*
X134982460Y-98917912D02*
X135553889Y-98917912D01*
X135553889Y-98917912D02*
X135553889Y-97417912D01*
X135553889Y-97417912D02*
X135053889Y-97417912D01*
X135053889Y-97417912D02*
X134911032Y-97489341D01*
X134911032Y-97489341D02*
X134839603Y-97560769D01*
X134839603Y-97560769D02*
X134768174Y-97703626D01*
X134768174Y-97703626D02*
X134768174Y-97846484D01*
X134768174Y-97846484D02*
X134839603Y-97989341D01*
X134839603Y-97989341D02*
X134911032Y-98060769D01*
X134911032Y-98060769D02*
X135053889Y-98132198D01*
X135053889Y-98132198D02*
X135553889Y-98132198D01*
X134053889Y-98917912D02*
X134053889Y-97917912D01*
X134053889Y-98203626D02*
X133982460Y-98060769D01*
X133982460Y-98060769D02*
X133911032Y-97989341D01*
X133911032Y-97989341D02*
X133768174Y-97917912D01*
X133768174Y-97917912D02*
X133625317Y-97917912D01*
X133125318Y-98917912D02*
X133125318Y-97917912D01*
X133125318Y-97417912D02*
X133196746Y-97489341D01*
X133196746Y-97489341D02*
X133125318Y-97560769D01*
X133125318Y-97560769D02*
X133053889Y-97489341D01*
X133053889Y-97489341D02*
X133125318Y-97417912D01*
X133125318Y-97417912D02*
X133125318Y-97560769D01*
X131768175Y-98917912D02*
X131768175Y-98132198D01*
X131768175Y-98132198D02*
X131839603Y-97989341D01*
X131839603Y-97989341D02*
X131982460Y-97917912D01*
X131982460Y-97917912D02*
X132268175Y-97917912D01*
X132268175Y-97917912D02*
X132411032Y-97989341D01*
X131768175Y-98846484D02*
X131911032Y-98917912D01*
X131911032Y-98917912D02*
X132268175Y-98917912D01*
X132268175Y-98917912D02*
X132411032Y-98846484D01*
X132411032Y-98846484D02*
X132482460Y-98703626D01*
X132482460Y-98703626D02*
X132482460Y-98560769D01*
X132482460Y-98560769D02*
X132411032Y-98417912D01*
X132411032Y-98417912D02*
X132268175Y-98346484D01*
X132268175Y-98346484D02*
X131911032Y-98346484D01*
X131911032Y-98346484D02*
X131768175Y-98275055D01*
X131053889Y-97917912D02*
X131053889Y-98917912D01*
X131053889Y-98060769D02*
X130982460Y-97989341D01*
X130982460Y-97989341D02*
X130839603Y-97917912D01*
X130839603Y-97917912D02*
X130625317Y-97917912D01*
X130625317Y-97917912D02*
X130482460Y-97989341D01*
X130482460Y-97989341D02*
X130411032Y-98132198D01*
X130411032Y-98132198D02*
X130411032Y-98917912D01*
X135625317Y-100904257D02*
X134911032Y-100904257D01*
X135768174Y-101332828D02*
X135268174Y-99832828D01*
X135268174Y-99832828D02*
X134768174Y-101332828D01*
X134053889Y-101332828D02*
X134196746Y-101261400D01*
X134196746Y-101261400D02*
X134268175Y-101118542D01*
X134268175Y-101118542D02*
X134268175Y-99832828D01*
X133625318Y-100332828D02*
X133268175Y-101332828D01*
X133268175Y-101332828D02*
X132911032Y-100332828D01*
X131696747Y-101332828D02*
X131696747Y-100547114D01*
X131696747Y-100547114D02*
X131768175Y-100404257D01*
X131768175Y-100404257D02*
X131911032Y-100332828D01*
X131911032Y-100332828D02*
X132196747Y-100332828D01*
X132196747Y-100332828D02*
X132339604Y-100404257D01*
X131696747Y-101261400D02*
X131839604Y-101332828D01*
X131839604Y-101332828D02*
X132196747Y-101332828D01*
X132196747Y-101332828D02*
X132339604Y-101261400D01*
X132339604Y-101261400D02*
X132411032Y-101118542D01*
X132411032Y-101118542D02*
X132411032Y-100975685D01*
X132411032Y-100975685D02*
X132339604Y-100832828D01*
X132339604Y-100832828D02*
X132196747Y-100761400D01*
X132196747Y-100761400D02*
X131839604Y-100761400D01*
X131839604Y-100761400D02*
X131696747Y-100689971D01*
X130982461Y-101332828D02*
X130982461Y-100332828D01*
X130982461Y-100618542D02*
X130911032Y-100475685D01*
X130911032Y-100475685D02*
X130839604Y-100404257D01*
X130839604Y-100404257D02*
X130696746Y-100332828D01*
X130696746Y-100332828D02*
X130553889Y-100332828D01*
X129482461Y-101261400D02*
X129625318Y-101332828D01*
X129625318Y-101332828D02*
X129911033Y-101332828D01*
X129911033Y-101332828D02*
X130053890Y-101261400D01*
X130053890Y-101261400D02*
X130125318Y-101118542D01*
X130125318Y-101118542D02*
X130125318Y-100547114D01*
X130125318Y-100547114D02*
X130053890Y-100404257D01*
X130053890Y-100404257D02*
X129911033Y-100332828D01*
X129911033Y-100332828D02*
X129625318Y-100332828D01*
X129625318Y-100332828D02*
X129482461Y-100404257D01*
X129482461Y-100404257D02*
X129411033Y-100547114D01*
X129411033Y-100547114D02*
X129411033Y-100689971D01*
X129411033Y-100689971D02*
X130125318Y-100832828D01*
X128911033Y-100332828D02*
X128125319Y-100332828D01*
X128125319Y-100332828D02*
X128911033Y-101332828D01*
X128911033Y-101332828D02*
X128125319Y-101332828D01*
X135053889Y-116132198D02*
X134839603Y-116203626D01*
X134839603Y-116203626D02*
X134768174Y-116275055D01*
X134768174Y-116275055D02*
X134696746Y-116417912D01*
X134696746Y-116417912D02*
X134696746Y-116632198D01*
X134696746Y-116632198D02*
X134768174Y-116775055D01*
X134768174Y-116775055D02*
X134839603Y-116846484D01*
X134839603Y-116846484D02*
X134982460Y-116917912D01*
X134982460Y-116917912D02*
X135553889Y-116917912D01*
X135553889Y-116917912D02*
X135553889Y-115417912D01*
X135553889Y-115417912D02*
X135053889Y-115417912D01*
X135053889Y-115417912D02*
X134911032Y-115489341D01*
X134911032Y-115489341D02*
X134839603Y-115560769D01*
X134839603Y-115560769D02*
X134768174Y-115703626D01*
X134768174Y-115703626D02*
X134768174Y-115846484D01*
X134768174Y-115846484D02*
X134839603Y-115989341D01*
X134839603Y-115989341D02*
X134911032Y-116060769D01*
X134911032Y-116060769D02*
X135053889Y-116132198D01*
X135053889Y-116132198D02*
X135553889Y-116132198D01*
X134053889Y-116917912D02*
X134053889Y-115917912D01*
X134053889Y-116203626D02*
X133982460Y-116060769D01*
X133982460Y-116060769D02*
X133911032Y-115989341D01*
X133911032Y-115989341D02*
X133768174Y-115917912D01*
X133768174Y-115917912D02*
X133625317Y-115917912D01*
X133125318Y-116917912D02*
X133125318Y-115917912D01*
X133125318Y-115417912D02*
X133196746Y-115489341D01*
X133196746Y-115489341D02*
X133125318Y-115560769D01*
X133125318Y-115560769D02*
X133053889Y-115489341D01*
X133053889Y-115489341D02*
X133125318Y-115417912D01*
X133125318Y-115417912D02*
X133125318Y-115560769D01*
X131768175Y-116917912D02*
X131768175Y-116132198D01*
X131768175Y-116132198D02*
X131839603Y-115989341D01*
X131839603Y-115989341D02*
X131982460Y-115917912D01*
X131982460Y-115917912D02*
X132268175Y-115917912D01*
X132268175Y-115917912D02*
X132411032Y-115989341D01*
X131768175Y-116846484D02*
X131911032Y-116917912D01*
X131911032Y-116917912D02*
X132268175Y-116917912D01*
X132268175Y-116917912D02*
X132411032Y-116846484D01*
X132411032Y-116846484D02*
X132482460Y-116703626D01*
X132482460Y-116703626D02*
X132482460Y-116560769D01*
X132482460Y-116560769D02*
X132411032Y-116417912D01*
X132411032Y-116417912D02*
X132268175Y-116346484D01*
X132268175Y-116346484D02*
X131911032Y-116346484D01*
X131911032Y-116346484D02*
X131768175Y-116275055D01*
X131053889Y-115917912D02*
X131053889Y-116917912D01*
X131053889Y-116060769D02*
X130982460Y-115989341D01*
X130982460Y-115989341D02*
X130839603Y-115917912D01*
X130839603Y-115917912D02*
X130625317Y-115917912D01*
X130625317Y-115917912D02*
X130482460Y-115989341D01*
X130482460Y-115989341D02*
X130411032Y-116132198D01*
X130411032Y-116132198D02*
X130411032Y-116917912D01*
X135625317Y-118904257D02*
X134911032Y-118904257D01*
X135768174Y-119332828D02*
X135268174Y-117832828D01*
X135268174Y-117832828D02*
X134768174Y-119332828D01*
X134053889Y-119332828D02*
X134196746Y-119261400D01*
X134196746Y-119261400D02*
X134268175Y-119118542D01*
X134268175Y-119118542D02*
X134268175Y-117832828D01*
X133625318Y-118332828D02*
X133268175Y-119332828D01*
X133268175Y-119332828D02*
X132911032Y-118332828D01*
X131696747Y-119332828D02*
X131696747Y-118547114D01*
X131696747Y-118547114D02*
X131768175Y-118404257D01*
X131768175Y-118404257D02*
X131911032Y-118332828D01*
X131911032Y-118332828D02*
X132196747Y-118332828D01*
X132196747Y-118332828D02*
X132339604Y-118404257D01*
X131696747Y-119261400D02*
X131839604Y-119332828D01*
X131839604Y-119332828D02*
X132196747Y-119332828D01*
X132196747Y-119332828D02*
X132339604Y-119261400D01*
X132339604Y-119261400D02*
X132411032Y-119118542D01*
X132411032Y-119118542D02*
X132411032Y-118975685D01*
X132411032Y-118975685D02*
X132339604Y-118832828D01*
X132339604Y-118832828D02*
X132196747Y-118761400D01*
X132196747Y-118761400D02*
X131839604Y-118761400D01*
X131839604Y-118761400D02*
X131696747Y-118689971D01*
X130982461Y-119332828D02*
X130982461Y-118332828D01*
X130982461Y-118618542D02*
X130911032Y-118475685D01*
X130911032Y-118475685D02*
X130839604Y-118404257D01*
X130839604Y-118404257D02*
X130696746Y-118332828D01*
X130696746Y-118332828D02*
X130553889Y-118332828D01*
X129482461Y-119261400D02*
X129625318Y-119332828D01*
X129625318Y-119332828D02*
X129911033Y-119332828D01*
X129911033Y-119332828D02*
X130053890Y-119261400D01*
X130053890Y-119261400D02*
X130125318Y-119118542D01*
X130125318Y-119118542D02*
X130125318Y-118547114D01*
X130125318Y-118547114D02*
X130053890Y-118404257D01*
X130053890Y-118404257D02*
X129911033Y-118332828D01*
X129911033Y-118332828D02*
X129625318Y-118332828D01*
X129625318Y-118332828D02*
X129482461Y-118404257D01*
X129482461Y-118404257D02*
X129411033Y-118547114D01*
X129411033Y-118547114D02*
X129411033Y-118689971D01*
X129411033Y-118689971D02*
X130125318Y-118832828D01*
X128911033Y-118332828D02*
X128125319Y-118332828D01*
X128125319Y-118332828D02*
X128911033Y-119332828D01*
X128911033Y-119332828D02*
X128125319Y-119332828D01*
X118067310Y-40530200D02*
X119210168Y-40530200D01*
X118067310Y-42257400D02*
X119210168Y-42257400D01*
X118638739Y-41685971D02*
X118638739Y-42828828D01*
X118067310Y-58530200D02*
X119210168Y-58530200D01*
X118067310Y-60257400D02*
X119210168Y-60257400D01*
X118638739Y-59685971D02*
X118638739Y-60828828D01*
X118067310Y-76530200D02*
X119210168Y-76530200D01*
X118067310Y-78257400D02*
X119210168Y-78257400D01*
X118638739Y-77685971D02*
X118638739Y-78828828D01*
X118067310Y-94530200D02*
X119210168Y-94530200D01*
X118067310Y-96257400D02*
X119210168Y-96257400D01*
X118638739Y-95685971D02*
X118638739Y-96828828D01*
X118067310Y-112530200D02*
X119210168Y-112530200D01*
X118067310Y-114257400D02*
X119210168Y-114257400D01*
X118638739Y-113685971D02*
X118638739Y-114828828D01*
X152817310Y-40530200D02*
X153960168Y-40530200D01*
X152817310Y-42257400D02*
X153960168Y-42257400D01*
X153388739Y-41685971D02*
X153388739Y-42828828D01*
X152817310Y-58530200D02*
X153960168Y-58530200D01*
X152817310Y-60257400D02*
X153960168Y-60257400D01*
X153388739Y-59685971D02*
X153388739Y-60828828D01*
X152817310Y-76530200D02*
X153960168Y-76530200D01*
X152817310Y-78257400D02*
X153960168Y-78257400D01*
X153388739Y-77685971D02*
X153388739Y-78828828D01*
X152817310Y-94530200D02*
X153960168Y-94530200D01*
X152817310Y-96257400D02*
X153960168Y-96257400D01*
X153388739Y-95685971D02*
X153388739Y-96828828D01*
X152817310Y-112530200D02*
X153960168Y-112530200D01*
X152817310Y-114257400D02*
X153960168Y-114257400D01*
X153388739Y-113685971D02*
X153388739Y-114828828D01*
D12*
X94117304Y-40375066D02*
X91069685Y-40375066D01*
X92593494Y-41898876D02*
X92593494Y-38851257D01*
X94117304Y-58375066D02*
X91069685Y-58375066D01*
X92593494Y-59898876D02*
X92593494Y-56851257D01*
X94117304Y-76375066D02*
X91069685Y-76375066D01*
X92593494Y-77898876D02*
X92593494Y-74851257D01*
X94117304Y-94375066D02*
X91069685Y-94375066D01*
X92593494Y-95898876D02*
X92593494Y-92851257D01*
X94117304Y-112375066D02*
X91069685Y-112375066D01*
X92593494Y-113898876D02*
X92593494Y-110851257D01*
X128867304Y-40375066D02*
X125819685Y-40375066D01*
X127343494Y-41898876D02*
X127343494Y-38851257D01*
X128867304Y-58375066D02*
X125819685Y-58375066D01*
X127343494Y-59898876D02*
X127343494Y-56851257D01*
X128867304Y-76375066D02*
X125819685Y-76375066D01*
X127343494Y-77898876D02*
X127343494Y-74851257D01*
X128867304Y-94375066D02*
X125819685Y-94375066D01*
X127343494Y-95898876D02*
X127343494Y-92851257D01*
X128867304Y-112375066D02*
X125819685Y-112375066D01*
X127343494Y-113898876D02*
X127343494Y-110851257D01*
X112674695Y-45184933D02*
X115722315Y-45184933D01*
X112674695Y-63184933D02*
X115722315Y-63184933D01*
X112674695Y-81184933D02*
X115722315Y-81184933D01*
X112674695Y-99184933D02*
X115722315Y-99184933D01*
X112674695Y-117184933D02*
X115722315Y-117184933D01*
X147424695Y-45184933D02*
X150472315Y-45184933D01*
X147424695Y-63184933D02*
X150472315Y-63184933D01*
X147424695Y-81184933D02*
X150472315Y-81184933D01*
X147424695Y-99184933D02*
X150472315Y-99184933D01*
X147424695Y-117184933D02*
X150472315Y-117184933D01*
%TO.C,J1*%
D13*
X103128000Y-73937000D02*
X103462970Y-73937000D01*
X103128000Y-77812000D02*
X103128000Y-73937000D01*
X103128000Y-77812000D02*
X103187435Y-77812000D01*
X103128000Y-78547000D02*
X103128000Y-79282000D01*
X103128000Y-79282000D02*
X103873000Y-79282000D01*
X104283030Y-73937000D02*
X104618000Y-73937000D01*
X104558565Y-77812000D02*
X104618000Y-77812000D01*
X104618000Y-77812000D02*
X104618000Y-73937000D01*
%TO.C,TP4*%
X121358400Y-94547000D02*
G75*
G02*
X119458400Y-94547000I-950000J0D01*
G01*
X119458400Y-94547000D02*
G75*
G02*
X121358400Y-94547000I950000J0D01*
G01*
X121358400Y-40547000D02*
G75*
G02*
X119458400Y-40547000I-950000J0D01*
G01*
X119458400Y-40547000D02*
G75*
G02*
X121358400Y-40547000I950000J0D01*
G01*
%TO.C,TP1*%
X99595200Y-112547000D02*
G75*
G02*
X95095200Y-112547000I-2250000J0D01*
G01*
X95095200Y-112547000D02*
G75*
G02*
X99595200Y-112547000I2250000J0D01*
G01*
%TO.C,TP5*%
X156108400Y-43112400D02*
G75*
G02*
X154208400Y-43112400I-950000J0D01*
G01*
X154208400Y-43112400D02*
G75*
G02*
X156108400Y-43112400I950000J0D01*
G01*
%TO.C,J1*%
X137878000Y-109937000D02*
X138212970Y-109937000D01*
X137878000Y-113812000D02*
X137878000Y-109937000D01*
X137878000Y-113812000D02*
X137937435Y-113812000D01*
X137878000Y-114547000D02*
X137878000Y-115282000D01*
X137878000Y-115282000D02*
X138623000Y-115282000D01*
X139033030Y-109937000D02*
X139368000Y-109937000D01*
X139308565Y-113812000D02*
X139368000Y-113812000D01*
X139368000Y-113812000D02*
X139368000Y-109937000D01*
%TO.C,TP5*%
X121358400Y-115112400D02*
G75*
G02*
X119458400Y-115112400I-950000J0D01*
G01*
X119458400Y-115112400D02*
G75*
G02*
X121358400Y-115112400I950000J0D01*
G01*
%TO.C,TP1*%
X134345200Y-112547000D02*
G75*
G02*
X129845200Y-112547000I-2250000J0D01*
G01*
X129845200Y-112547000D02*
G75*
G02*
X134345200Y-112547000I2250000J0D01*
G01*
%TO.C,TP5*%
X121358400Y-97112400D02*
G75*
G02*
X119458400Y-97112400I-950000J0D01*
G01*
X119458400Y-97112400D02*
G75*
G02*
X121358400Y-97112400I950000J0D01*
G01*
X121358400Y-61112400D02*
G75*
G02*
X119458400Y-61112400I-950000J0D01*
G01*
X119458400Y-61112400D02*
G75*
G02*
X121358400Y-61112400I950000J0D01*
G01*
X121358400Y-79112400D02*
G75*
G02*
X119458400Y-79112400I-950000J0D01*
G01*
X119458400Y-79112400D02*
G75*
G02*
X121358400Y-79112400I950000J0D01*
G01*
%TO.C,TP4*%
X156108400Y-40547000D02*
G75*
G02*
X154208400Y-40547000I-950000J0D01*
G01*
X154208400Y-40547000D02*
G75*
G02*
X156108400Y-40547000I950000J0D01*
G01*
%TO.C,TP3*%
X121409200Y-74032400D02*
G75*
G02*
X119509200Y-74032400I-950000J0D01*
G01*
X119509200Y-74032400D02*
G75*
G02*
X121409200Y-74032400I950000J0D01*
G01*
%TO.C,TP1*%
X99595200Y-94547000D02*
G75*
G02*
X95095200Y-94547000I-2250000J0D01*
G01*
X95095200Y-94547000D02*
G75*
G02*
X99595200Y-94547000I2250000J0D01*
G01*
%TO.C,J1*%
X103128000Y-91937000D02*
X103462970Y-91937000D01*
X103128000Y-95812000D02*
X103128000Y-91937000D01*
X103128000Y-95812000D02*
X103187435Y-95812000D01*
X103128000Y-96547000D02*
X103128000Y-97282000D01*
X103128000Y-97282000D02*
X103873000Y-97282000D01*
X104283030Y-91937000D02*
X104618000Y-91937000D01*
X104558565Y-95812000D02*
X104618000Y-95812000D01*
X104618000Y-95812000D02*
X104618000Y-91937000D01*
%TO.C,TP1*%
X134345200Y-40547000D02*
G75*
G02*
X129845200Y-40547000I-2250000J0D01*
G01*
X129845200Y-40547000D02*
G75*
G02*
X134345200Y-40547000I2250000J0D01*
G01*
%TO.C,J1*%
X137878000Y-37937000D02*
X138212970Y-37937000D01*
X137878000Y-41812000D02*
X137878000Y-37937000D01*
X137878000Y-41812000D02*
X137937435Y-41812000D01*
X137878000Y-42547000D02*
X137878000Y-43282000D01*
X137878000Y-43282000D02*
X138623000Y-43282000D01*
X139033030Y-37937000D02*
X139368000Y-37937000D01*
X139308565Y-41812000D02*
X139368000Y-41812000D01*
X139368000Y-41812000D02*
X139368000Y-37937000D01*
%TO.C,TP1*%
X99595200Y-76547000D02*
G75*
G02*
X95095200Y-76547000I-2250000J0D01*
G01*
X95095200Y-76547000D02*
G75*
G02*
X99595200Y-76547000I2250000J0D01*
G01*
%TO.C,TP3*%
X121409200Y-56032400D02*
G75*
G02*
X119509200Y-56032400I-950000J0D01*
G01*
X119509200Y-56032400D02*
G75*
G02*
X121409200Y-56032400I950000J0D01*
G01*
%TO.C,TP4*%
X121358400Y-76547000D02*
G75*
G02*
X119458400Y-76547000I-950000J0D01*
G01*
X119458400Y-76547000D02*
G75*
G02*
X121358400Y-76547000I950000J0D01*
G01*
X121358400Y-58547000D02*
G75*
G02*
X119458400Y-58547000I-950000J0D01*
G01*
X119458400Y-58547000D02*
G75*
G02*
X121358400Y-58547000I950000J0D01*
G01*
%TO.C,TP1*%
X134345200Y-76547000D02*
G75*
G02*
X129845200Y-76547000I-2250000J0D01*
G01*
X129845200Y-76547000D02*
G75*
G02*
X134345200Y-76547000I2250000J0D01*
G01*
%TO.C,TP5*%
X156108400Y-79112400D02*
G75*
G02*
X154208400Y-79112400I-950000J0D01*
G01*
X154208400Y-79112400D02*
G75*
G02*
X156108400Y-79112400I950000J0D01*
G01*
%TO.C,TP4*%
X156108400Y-112547000D02*
G75*
G02*
X154208400Y-112547000I-950000J0D01*
G01*
X154208400Y-112547000D02*
G75*
G02*
X156108400Y-112547000I950000J0D01*
G01*
%TO.C,TP1*%
X134345200Y-58547000D02*
G75*
G02*
X129845200Y-58547000I-2250000J0D01*
G01*
X129845200Y-58547000D02*
G75*
G02*
X134345200Y-58547000I2250000J0D01*
G01*
%TO.C,J1*%
X103128000Y-55937000D02*
X103462970Y-55937000D01*
X103128000Y-59812000D02*
X103128000Y-55937000D01*
X103128000Y-59812000D02*
X103187435Y-59812000D01*
X103128000Y-60547000D02*
X103128000Y-61282000D01*
X103128000Y-61282000D02*
X103873000Y-61282000D01*
X104283030Y-55937000D02*
X104618000Y-55937000D01*
X104558565Y-59812000D02*
X104618000Y-59812000D01*
X104618000Y-59812000D02*
X104618000Y-55937000D01*
%TO.C,TP3*%
X156159200Y-38032400D02*
G75*
G02*
X154259200Y-38032400I-950000J0D01*
G01*
X154259200Y-38032400D02*
G75*
G02*
X156159200Y-38032400I950000J0D01*
G01*
%TO.C,TP1*%
X99595200Y-40547000D02*
G75*
G02*
X95095200Y-40547000I-2250000J0D01*
G01*
X95095200Y-40547000D02*
G75*
G02*
X99595200Y-40547000I2250000J0D01*
G01*
%TO.C,TP3*%
X156159200Y-74032400D02*
G75*
G02*
X154259200Y-74032400I-950000J0D01*
G01*
X154259200Y-74032400D02*
G75*
G02*
X156159200Y-74032400I950000J0D01*
G01*
%TO.C,TP5*%
X156108400Y-115112400D02*
G75*
G02*
X154208400Y-115112400I-950000J0D01*
G01*
X154208400Y-115112400D02*
G75*
G02*
X156108400Y-115112400I950000J0D01*
G01*
%TO.C,TP3*%
X156159200Y-92032400D02*
G75*
G02*
X154259200Y-92032400I-950000J0D01*
G01*
X154259200Y-92032400D02*
G75*
G02*
X156159200Y-92032400I950000J0D01*
G01*
%TO.C,TP4*%
X156108400Y-58547000D02*
G75*
G02*
X154208400Y-58547000I-950000J0D01*
G01*
X154208400Y-58547000D02*
G75*
G02*
X156108400Y-58547000I950000J0D01*
G01*
X121358400Y-112547000D02*
G75*
G02*
X119458400Y-112547000I-950000J0D01*
G01*
X119458400Y-112547000D02*
G75*
G02*
X121358400Y-112547000I950000J0D01*
G01*
%TO.C,J1*%
X137878000Y-55937000D02*
X138212970Y-55937000D01*
X137878000Y-59812000D02*
X137878000Y-55937000D01*
X137878000Y-59812000D02*
X137937435Y-59812000D01*
X137878000Y-60547000D02*
X137878000Y-61282000D01*
X137878000Y-61282000D02*
X138623000Y-61282000D01*
X139033030Y-55937000D02*
X139368000Y-55937000D01*
X139308565Y-59812000D02*
X139368000Y-59812000D01*
X139368000Y-59812000D02*
X139368000Y-55937000D01*
%TO.C,TP3*%
X156159200Y-110032400D02*
G75*
G02*
X154259200Y-110032400I-950000J0D01*
G01*
X154259200Y-110032400D02*
G75*
G02*
X156159200Y-110032400I950000J0D01*
G01*
%TO.C,J1*%
X137878000Y-91937000D02*
X138212970Y-91937000D01*
X137878000Y-95812000D02*
X137878000Y-91937000D01*
X137878000Y-95812000D02*
X137937435Y-95812000D01*
X137878000Y-96547000D02*
X137878000Y-97282000D01*
X137878000Y-97282000D02*
X138623000Y-97282000D01*
X139033030Y-91937000D02*
X139368000Y-91937000D01*
X139308565Y-95812000D02*
X139368000Y-95812000D01*
X139368000Y-95812000D02*
X139368000Y-91937000D01*
%TO.C,TP1*%
X134345200Y-94547000D02*
G75*
G02*
X129845200Y-94547000I-2250000J0D01*
G01*
X129845200Y-94547000D02*
G75*
G02*
X134345200Y-94547000I2250000J0D01*
G01*
%TO.C,TP5*%
X156108400Y-97112400D02*
G75*
G02*
X154208400Y-97112400I-950000J0D01*
G01*
X154208400Y-97112400D02*
G75*
G02*
X156108400Y-97112400I950000J0D01*
G01*
%TO.C,TP3*%
X156159200Y-56032400D02*
G75*
G02*
X154259200Y-56032400I-950000J0D01*
G01*
X154259200Y-56032400D02*
G75*
G02*
X156159200Y-56032400I950000J0D01*
G01*
X121409200Y-92032400D02*
G75*
G02*
X119509200Y-92032400I-950000J0D01*
G01*
X119509200Y-92032400D02*
G75*
G02*
X121409200Y-92032400I950000J0D01*
G01*
%TO.C,TP5*%
X121358400Y-43112400D02*
G75*
G02*
X119458400Y-43112400I-950000J0D01*
G01*
X119458400Y-43112400D02*
G75*
G02*
X121358400Y-43112400I950000J0D01*
G01*
%TO.C,TP4*%
X156108400Y-76547000D02*
G75*
G02*
X154208400Y-76547000I-950000J0D01*
G01*
X154208400Y-76547000D02*
G75*
G02*
X156108400Y-76547000I950000J0D01*
G01*
%TO.C,TP5*%
X156108400Y-61112400D02*
G75*
G02*
X154208400Y-61112400I-950000J0D01*
G01*
X154208400Y-61112400D02*
G75*
G02*
X156108400Y-61112400I950000J0D01*
G01*
%TO.C,J1*%
X103128000Y-109937000D02*
X103462970Y-109937000D01*
X103128000Y-113812000D02*
X103128000Y-109937000D01*
X103128000Y-113812000D02*
X103187435Y-113812000D01*
X103128000Y-114547000D02*
X103128000Y-115282000D01*
X103128000Y-115282000D02*
X103873000Y-115282000D01*
X104283030Y-109937000D02*
X104618000Y-109937000D01*
X104558565Y-113812000D02*
X104618000Y-113812000D01*
X104618000Y-113812000D02*
X104618000Y-109937000D01*
X103128000Y-37937000D02*
X103462970Y-37937000D01*
X103128000Y-41812000D02*
X103128000Y-37937000D01*
X103128000Y-41812000D02*
X103187435Y-41812000D01*
X103128000Y-42547000D02*
X103128000Y-43282000D01*
X103128000Y-43282000D02*
X103873000Y-43282000D01*
X104283030Y-37937000D02*
X104618000Y-37937000D01*
X104558565Y-41812000D02*
X104618000Y-41812000D01*
X104618000Y-41812000D02*
X104618000Y-37937000D01*
X137878000Y-73937000D02*
X138212970Y-73937000D01*
X137878000Y-77812000D02*
X137878000Y-73937000D01*
X137878000Y-77812000D02*
X137937435Y-77812000D01*
X137878000Y-78547000D02*
X137878000Y-79282000D01*
X137878000Y-79282000D02*
X138623000Y-79282000D01*
X139033030Y-73937000D02*
X139368000Y-73937000D01*
X139308565Y-77812000D02*
X139368000Y-77812000D01*
X139368000Y-77812000D02*
X139368000Y-73937000D01*
%TO.C,TP4*%
X156108400Y-94547000D02*
G75*
G02*
X154208400Y-94547000I-950000J0D01*
G01*
X154208400Y-94547000D02*
G75*
G02*
X156108400Y-94547000I950000J0D01*
G01*
%TO.C,TP1*%
X99595200Y-58547000D02*
G75*
G02*
X95095200Y-58547000I-2250000J0D01*
G01*
X95095200Y-58547000D02*
G75*
G02*
X99595200Y-58547000I2250000J0D01*
G01*
%TO.C,TP3*%
X121409200Y-38032400D02*
G75*
G02*
X119509200Y-38032400I-950000J0D01*
G01*
X119509200Y-38032400D02*
G75*
G02*
X121409200Y-38032400I950000J0D01*
G01*
X121409200Y-110032400D02*
G75*
G02*
X119509200Y-110032400I-950000J0D01*
G01*
X119509200Y-110032400D02*
G75*
G02*
X121409200Y-110032400I950000J0D01*
G01*
%TD*%
M02*
